SplineFontDB: 3.2
FontName: OcticonsV2NF2-Light
FullName: OcticonsV2NF2 Light
FamilyName: OcticonsV2NF2
Weight: Light
Copyright: 
UComments: "2020-6-10: Created with FontForge (http://fontforge.org)"
Version: e5345d7
ItalicAngle: 0
UnderlinePosition: -100
UnderlineWidth: 50
Ascent: 800
Descent: 200
InvalidEm: 0
LayerCount: 2
Layer: 0 0 "Back" 1
Layer: 1 0 "Fore" 0
XUID: [1021 790 1827221160 9742]
OS2Version: 0
OS2_WeightWidthSlopeOnly: 0
OS2_UseTypoMetrics: 1
CreationTime: 1591800147
ModificationTime: 1591829724
OS2TypoAscent: 0
OS2TypoAOffset: 1
OS2TypoDescent: 0
OS2TypoDOffset: 1
OS2TypoLinegap: 0
OS2WinAscent: 0
OS2WinAOffset: 1
OS2WinDescent: 0
OS2WinDOffset: 1
HheadAscent: 0
HheadAOffset: 1
HheadDescent: 0
HheadDOffset: 1
OS2Vendor: 'PfEd'
MarkAttachClasses: 1
DEI: 91125
Encoding: UnicodeBmp
UnicodeInterp: none
NameList: AGL For New Fonts
DisplaySize: -48
AntiAlias: 1
FitToEm: 0
WinInfo: 61427 19 13
BeginPrivate: 0
EndPrivate
BeginChars: 65536 174

StartChar: uniF000
Encoding: 61440 61440 0
Width: 1000
Flags: H
LayerCount: 2
Fore
SplineSet
235 456.25 m 0
 235 597.447139525 332.847548113 721.25 500 721.25 c 0
 667.152451887 721.25 765 597.447139525 765 456.25 c 0
 765 364.536851088 722.755123769 304.625500294 681.001458033 247.576469841 c 0
 652.179950405 208.180679035 619.945502117 163.440537631 611.1262959 110.04161113 c 2
 609.054961098 97.5 l 1
 390.945038902 97.5 l 1
 382.889142193 166.396281977 341.562756567 215.710132274 307.179527297 263.853838881 c 0
 269.301711437 316.882583948 235 373.080015911 235 456.25 c 0
391.25 33.75 m 1
 608.75 33.75 l 1
 608.75 18.3333333333 608.75 2.91666666667 608.75 -12.5 c 0
 608.75 -72.5500617049 560.052347834 -121.25 500 -121.25 c 0
 439.947652166 -121.25 391.25 -72.5500617049 391.25 -12.5 c 0
 391.25 2.91666666667 391.25 18.3333333333 391.25 33.75 c 1
500 785 m 0
 292.330477382 785 171.25 628.424555057 171.25 456.25 c 0
 171.25 343.050947507 221.516169109 273.91250986 265.68025879 212.324056934 c 0
 302.143446553 161.579967999 327.5 127.679232939 327.5 81.25 c 2
 327.5 -12.5 l 2
 327.5 -107.781747104 404.721826139 -185 500 -185 c 0
 595.278173861 -185 672.5 -107.781747104 672.5 -12.5 c 2
 672.5 81.25 l 2
 672.5 127.717229918 698.027658265 161.85873994 734.498236935 212.570905506 c 0
 778.630488197 274.12411044 828.75 343.146427989 828.75 456.25 c 0
 828.75 628.424555057 707.669522618 785 500 785 c 0
EndSplineSet
EndChar

StartChar: uniF001
Encoding: 61441 61441 1
Width: 1000
Flags: H
LayerCount: 2
Fore
SplineSet
860 753.125 m 2
 860 770.488691045 845.497678604 785 828.125 785 c 2
 281.25 785 l 2
 243.812100321 785 207.828076903 770.089736279 181.369170313 743.630829687 c 0
 154.910577719 717.173118871 140 681.187974835 140 643.75 c 2
 140 81.0822071112 l 2
 140 44.1954470469 154.508083087 8.69565106958 180.330614916 -17.6225367347 c 0
 186.286704706 -23.7056220418 194.464308189 -27.2027927657 203.132369761 -27.2027927657 c 0
 220.536817385 -27.2027927657 235.017170875 -12.7006651172 235.017170875 4.68693417716 c 0
 235.017170875 13.0015177427 231.723167034 21.0699950354 225.908359653 27.0087855158 c 0
 215.203090165 37.9276264646 207.997499088 51.7237167264 205.137873017 66.6841780528 c 0
 204.217539878 71.4993050453 203.75899817 76.3725618762 203.75899817 81.2522889931 c 0
 203.75899817 111.205551848 219.258288035 133.097328314 238.372439913 145.80124633 c 0
 251.087899431 154.252374912 265.947950903 158.75 281.25 158.75 c 2
 796.25 158.75 l 1
 796.25 3.75 l 1
 671.875 3.75 l 2
 654.508139515 3.75 640 -10.7549835573 640 -28.125 c 0
 640 -45.4918604861 654.504983559 -60 671.875 -60 c 2
 828.125 -60 l 2
 845.491860485 -60 860 -45.4950164427 860 -28.125 c 2
 860 753.125 l 2
796.25 721.25 m 1
 796.25 222.5 l 1
 281.25 222.5 l 2
 261.119716864 222.5 242.030938138 218.317451613 224.755515285 210.752397161 c 2
 203.75 201.553903539 l 1
 203.75 643.75 l 2
 203.75 664.328911403 211.887687495 683.984189645 226.451587347 698.549302955 c 0
 241.016700658 713.113202807 260.671088597 721.25 281.25 721.25 c 2
 796.25 721.25 l 1
328.125 35 m 2
 327.775715652 35 327.5 34.7167013802 327.5 34.375 c 2
 327.5 -168.75 l 2
 327.5 -169.229352414 328.084601286 -169.564444366 328.502057349 -169.250781544 c 2
 419.140260291 -101.303372593 l 2
 424.465153451 -97.3048968625 430.846974414 -95.1875 437.5 -95.1875 c 0
 444.152423345 -95.1875 450.544697442 -97.3108436836 455.871451602 -101.312161363 c 2
 546.484739709 -169.240872593 l 2
 546.547094034 -169.287723591 546.701411868 -169.361596322 546.882013374 -169.37646279 c 0
 547.234315388 -169.37646279 547.5 -169.072576367 547.5 -168.75 c 2
 547.5 34.375 l 2
 547.5 34.7163953161 547.224802994 35 546.875 35 c 2
 328.125 35 l 2
EndSplineSet
EndChar

StartChar: uniF002
Encoding: 61442 61442 2
Width: 1000
Flags: H
LayerCount: 2
Fore
SplineSet
327.5 596.874023438 m 0
 327.5 580.43982222 321.009914603 564.758878665 309.375029688 553.123993751 c 0
 297.741319719 541.49028378 282.060661081 534.999023438 265.625 534.999023438 c 0
 249.189974945 534.999023438 233.509214269 541.491042199 221.874970314 553.123993749 c 0
 210.240085398 564.758878663 203.75 580.43982222 203.75 596.874023438 c 0
 203.75 613.308860667 210.238733432 628.989108775 221.874376836 640.623459615 c 0
 233.509902513 652.260277843 249.191622676 658.749023438 265.625 658.749023438 c 0
 282.059013323 658.749023438 297.739444597 652.26222345 309.374436111 640.624646668 c 0
 321.010079515 628.990295828 327.5 613.308860667 327.5 596.874023438 c 0
297.5 474.858679449 m 1
 307.504646419 478.39577663 l 2
 352.246530603 494.214066029 391.250176907 537.686439069 391.250176907 596.831497002 c 0
 391.250176907 603.894842537 390.652580788 610.999704235 389.440914021 618.062135181 c 0
 384.423625051 647.305487795 369.234094606 673.799395658 346.606247758 692.87506001 c 0
 323.972426062 711.957504268 295.228085676 722.45703125 265.625 722.45703125 c 0
 236.021961778 722.45703125 207.279196708 711.958049063 184.645248402 692.87549806 c 0
 162.016570199 673.799867359 146.826361302 647.305408253 141.809073409 618.062061917 c 0
 140.597496648 611.000155586 139.999966593 603.895886067 139.999966593 596.833031245 c 0
 139.999966593 537.730428699 179.032427576 494.204321598 223.745491269 478.39572795 c 2
 233.75 474.858569005 l 1
 233.75 409.374023438 l 2
 233.75 376.081853269 247.014827357 344.070192955 270.542998437 320.542021875 c 0
 294.071265586 297.013754727 326.08182326 283.749023438 359.375 283.749023438 c 2
 468.125 283.749023438 l 1
 468.125 125.138154972 l 1
 458.117624682 121.602282317 l 2
 413.344710711 105.782817457 374.31264537 62.2773683507 374.31264537 3.09686468985 c 0
 374.31264537 -3.96618410094 374.909877198 -11.0706929351 376.120835485 -18.1327891611 c 0
 381.139287076 -47.3935503294 396.335545253 -73.9016230701 418.975815416 -92.9911446309 c 0
 441.624367582 -112.079941292 470.382236554 -122.587890625 500 -122.587890625 c 0
 529.618852387 -122.587890625 558.378863672 -112.077952146 581.026262145 -92.9893932205 c 0
 603.667978147 -73.8993872878 618.864259214 -47.3926441769 623.877907829 -18.1344233346 c 0
 625.089969126 -11.0708135003 625.688279328 -3.96141393654 625.688279328 3.10318484986 c 0
 625.688279328 62.2361593992 586.623745509 105.793962716 541.882375318 121.602282317 c 2
 531.875 125.138154972 l 1
 531.875 283.749023438 l 1
 640.625 283.749023438 l 2
 673.915967162 283.749023438 705.926949951 297.013607519 729.458571656 320.542615373 c 0
 752.98854725 344.0699773 766.25 376.080749294 766.25 409.374023438 c 2
 766.25 474.858569005 l 1
 776.254508731 478.39572795 l 2
 820.995799637 494.214301512 860.001777935 537.689826696 860.001777935 596.828494119 c 0
 860.001777935 603.892316649 859.403784674 610.99760615 858.191207161 618.060427152 c 0
 853.170830275 647.306502983 837.986324047 673.799453274 815.354632117 692.873952374 c 0
 792.720210594 711.956902344 763.979973744 722.45703125 734.375 722.45703125 c 0
 704.770026256 722.45703125 676.031623051 711.95844803 653.397201528 692.87549806 c 0
 630.766860584 673.799934627 615.576359147 647.305395692 610.559073409 618.062061917 c 0
 609.347496648 611.000155586 608.749966593 603.895886067 608.749966593 596.833031245 c 0
 608.749966593 537.730379082 647.779543802 494.205341175 692.495491269 478.39572795 c 2
 702.5 474.858569005 l 1
 702.5 409.374023438 l 2
 702.5 392.940613391 696.010970509 377.258010256 684.371296135 365.622213619 c 0
 672.738717746 353.985756842 657.059347157 347.499023438 640.625 347.499023438 c 2
 359.375 347.499023438 l 2
 342.939974945 347.499023438 327.259807842 353.990448658 315.625563887 365.623400209 c 0
 303.990678972 377.258285123 297.5 392.93982222 297.5 409.374023438 c 2
 297.5 474.858679449 l 1
561.875 3.125 m 0
 561.875 -13.3085231637 555.390793663 -28.9874835291 543.752403262 -40.62070246 c 0
 532.117140917 -52.2611354589 516.434046014 -58.75 500 -58.75 c 0
 483.566589954 -58.75 467.888141845 -52.265125305 456.252345207 -40.6254509291 c 0
 444.613954806 -28.9922319982 438.125 -13.3085231637 438.125 3.125 c 0
 438.125 19.5585231637 444.60979978 35.2380772026 456.248190181 46.8712961335 c 0
 467.883986818 58.5109705095 483.566589954 65 500 65 c 0
 516.434046014 65 532.112392448 58.515883928 543.747654793 46.8754509291 c 0
 555.386045194 35.2422319982 561.875 19.5585231637 561.875 3.125 c 0
734.375 534.999023438 m 0
 717.940652843 534.999023438 702.261282254 541.485756842 690.628703865 553.122213619 c 0
 678.989029491 564.758010256 672.5 580.440613391 672.5 596.874023438 c 0
 672.5 613.308069451 678.983522729 628.985822245 690.623955727 640.621084591 c 0
 702.257815005 652.26140856 717.942300884 658.749023438 734.375 658.749023438 c 0
 750.807699116 658.749023438 766.486843183 652.266750669 778.120702461 640.6264267 c 0
 789.761135459 628.991164355 796.25 613.308069451 796.25 596.874023438 c 0
 796.25 580.440613391 789.76453186 564.761571607 778.124857486 553.125774969 c 0
 766.492279096 541.489318193 750.809347157 534.999023438 734.375 534.999023438 c 0
EndSplineSet
EndChar

StartChar: uniF005
Encoding: 61445 61445 3
Width: 1000
Flags: H
LayerCount: 2
Fore
SplineSet
77.5 643.75 m 2
 77.5 81.25 l 2
 77.5 3.23089227005 140.73089227 -60 218.75 -60 c 2
 578.125 -60 l 2
 595.737747165 -60 610 -45.7377471657 610 -28.125 c 0
 610 -10.5122528343 595.737747165 3.75 578.125 3.75 c 2
 218.75 3.75 l 2
 175.957792093 3.75 141.25 38.4565657764 141.25 81.25 c 0
 141.25 124.043434224 175.957792093 158.75 218.75 158.75 c 2
 421.875 158.75 l 2
 439.487747165 158.75 453.75 173.012252835 453.75 190.625 c 0
 453.75 208.237747165 439.487747165 222.5 421.875 222.5 c 2
 218.75 222.5 l 2
 198.656885264 222.5 179.545844229 218.305733303 162.244061664 210.74641068 c 2
 141.25 201.573894224 l 1
 141.25 643.75 l 2
 141.25 686.542415708 175.957584292 721.25 218.75 721.25 c 2
 733.75 721.25 l 1
 733.75 534.375 l 2
 733.75 516.762252835 748.012252835 502.5 765.625 502.5 c 0
 783.237747165 502.5 797.5 516.762252835 797.5 534.375 c 2
 797.5 753.125 l 2
 797.5 770.738667791 783.238024232 785 765.625 785 c 2
 218.75 785 l 2
 140.730892271 785 77.5 721.769107729 77.5 643.75 c 2
922.484375 158.139160156 m 0
 930.654730583 158.139160156 938.810424924 161.257418328 945.02605248 167.473377472 c 0
 951.242202842 173.689196236 954.360839844 181.844987818 954.360839844 190.014648438 c 0
 954.360839844 198.184309058 951.242772889 206.339530592 945.026622528 212.555349355 c 2
 788.483302089 369.100622911 l 2
 782.267094883 375.316830117 774.111057144 378.435058594 765.940551758 378.435058594 c 0
 757.770042833 378.435058594 749.614373422 375.316794081 743.398752207 369.100841278 c 2
 586.854555205 212.555667705 l 2
 580.638806421 206.339918921 577.520751953 198.184535615 577.520751953 190.014648438 c 0
 577.520751953 181.844761261 580.63877309 173.689411285 586.854521875 167.4736625 c 0
 593.070321616 161.257531161 601.225753374 158.139160156 609.395874023 158.139160156 c 0
 617.565984084 158.139160156 625.722435736 161.257338046 631.939993455 167.474232487 c 2
 734.056640625 269.592183058 l 1
 734.056640625 -153.125 l 2
 734.056640625 -170.737747166 748.318893459 -185 765.931640625 -185 c 0
 783.543467164 -185 797.806640625 -170.737470103 797.806640625 -153.125 c 2
 797.806640625 269.613344231 l 1
 899.942617026 167.47345797 l 2
 906.158244581 161.257498826 914.314019417 158.139160156 922.484375 158.139160156 c 0
EndSplineSet
EndChar

StartChar: uniF006
Encoding: 61446 61446 4
Width: 1000
Flags: H
LayerCount: 2
Fore
SplineSet
452.5 440 m 1
 827.5 440 l 1
 827.5 336.20904375 l 1
 978.79095625 487.5 l 1
 827.5 638.79095625 l 1
 827.5 535 l 1
 452.5 535 l 1
 452.5 440 l 1
235 627.5 m 1
 235 660 l 1
 202.5 660 l 1
 202.5 627.5 l 1
 235 627.5 l 1
735 347.5 m 1
 702.5 347.5 l 1
 702.5 160 l 1
 110 160 l 1
 110 752.5 l 1
 702.5 752.5 l 1
 702.5 627.5 l 1
 735 627.5 l 1
 735 737.5 l 2
 735 763.575949578 713.575949578 785 687.5 785 c 2
 62.5 785 l 2
 36.4240504217 785 15 763.575949578 15 737.5 c 2
 15 -12.5 l 2
 15 -38.5759495783 36.4240504217 -60 62.5 -60 c 2
 202.5 -60 l 1
 202.5 -163.79095625 l 1
 281.25 -85.04095625 l 1
 360 -163.79095625 l 1
 360 -60 l 1
 687.5 -60 l 2
 713.575949578 -60 735 -38.5759495783 735 -12.5 c 2
 735 347.5 l 1
702.5 127.5 m 1
 702.5 -27.5 l 1
 360 -27.5 l 1
 360 -6.66666666667 360 14.1666666667 360 35 c 1
 202.5 35 l 1
 202.5 14.1666666667 202.5 -6.66666666667 202.5 -27.5 c 1
 47.5 -27.5 l 1
 47.5 127.5 l 1
 702.5 127.5 l 1
235 377.5 m 1
 235 410 l 1
 202.5 410 l 1
 202.5 377.5 l 1
 235 377.5 l 1
235 502.5 m 1
 235 535 l 1
 202.5 535 l 1
 202.5 502.5 l 1
 235 502.5 l 1
202.5 285 m 1
 202.5 252.5 l 1
 235 252.5 l 1
 235 285 l 1
 202.5 285 l 1
EndSplineSet
EndChar

StartChar: uniF02D
Encoding: 61485 61485 5
Width: 1000
Flags: H
LayerCount: 2
Fore
SplineSet
910.747512901 -28.1109551405 m 0
 910.747512901 -44.1122657887 897.913028492 -58.75 880.099609375 -58.75 c 2
 119.896484375 -58.75 l 2
 102.084863155 -58.75 89.2505884212 -44.111391705 89.2505884212 -28.1097434165 c 0
 89.2505884212 -23.2243682285 90.4381917056 -18.2691070764 92.878978133 -13.7007192095 c 2
 472.981067124 697.454688661 l 2
 478.706984548 708.169289077 489.546463485 713.660766606 499.999994147 713.660766606 c 0
 510.452994647 713.660766606 521.29195937 708.169514113 527.018501907 697.456471615 c 2
 907.120724134 -13.7038172537 l 2
 909.56110796 -18.2722534795 910.747512901 -23.2253098496 910.747512901 -28.1109551405 c 0
25.3705040972 -28.0264552506 m 0
 25.3705040972 -77.4786125617 65.0218705489 -122.5 119.896484375 -122.5 c 2
 880.099609375 -122.5 l 2
 934.975275597 -122.5 974.628198733 -77.478253317 974.628198733 -28.0265528885 c 0
 974.628198733 -13.3467736107 971.125014691 1.78266378765 963.324491221 16.3761251806 c 2
 583.222700455 727.537685057 l 2
 565.404288367 760.875836096 532.895065609 777.410888672 500 777.410888672 c 0
 467.104934391 777.410888672 434.595739684 760.87588858 416.777327596 727.537737541 c 2
 36.6737688466 16.3765240423 l 2
 28.8736260471 1.7830429118 25.3705040972 -13.3465962034 25.3705040972 -28.0264552506 c 0
547.5 112.5 m 0
 547.5 138.743882952 526.243882952 160 500 160 c 0
 473.757051657 160 452.5 138.743675152 452.5 112.5 c 0
 452.5 86.2563248486 473.757051657 65 500 65 c 0
 526.243882952 65 547.5 86.2561170486 547.5 112.5 c 0
531.875 440.625 m 2
 531.875 458.237747165 517.612747165 472.5 500 472.5 c 0
 482.387252835 472.5 468.125 458.237747165 468.125 440.625 c 2
 468.125 284.375 l 2
 468.125 266.762252835 482.387252835 252.5 500 252.5 c 0
 517.612747165 252.5 531.875 266.762252835 531.875 284.375 c 2
 531.875 440.625 l 2
EndSplineSet
EndChar

StartChar: uniF007
Encoding: 61447 61447 6
Width: 1000
Flags: H
LayerCount: 2
Fore
SplineSet
15 690.625 m 2
 15 34.375 l 2
 15 16.7619757674 29.2613322085 2.5 46.875 2.5 c 2
 328.584960938 2.5 l 2
 369.884124851 2.5 409.41001177 -13.8702292333 438.625412653 -43.0823845609 c 2
 477.458745328 -81.9137640844 l 2
 483.674564091 -88.1299144458 491.83033938 -91.2485351559 500 -91.2485351559 c 0
 508.16966062 -91.2485351559 516.324882154 -88.1304682016 522.540700917 -81.9143178403 c 2
 561.374262485 -43.0827093969 l 2
 590.589610411 -13.8706070204 630.115622901 2.5 671.412109375 2.5 c 2
 953.125 2.5 l 2
 970.737747165 2.5 985 16.7622528343 985 34.375 c 2
 985 690.625 l 2
 985 708.237747165 970.737747165 722.5 953.125 722.5 c 2
 687.8125 722.5 l 2
 616.002645171 722.5 552.265192831 688.005269486 512.249951041 634.691828253 c 2
 500.246196326 618.69888549 l 1
 488.2423107 634.69172934 l 2
 448.224322742 688.007918163 384.483894567 722.5 312.678710938 722.5 c 2
 46.875 722.5 l 2
 29.2613322087 722.5 15 708.238024232 15 690.625 c 2
687.8125 658.75 m 2
 921.25 658.75 l 1
 921.25 66.25 l 1
 671.412109375 66.25 l 2
 629.915511786 66.25 589.539404107 54.4562288424 554.900198031 32.753940883 c 2
 531.938206283 18.3677060097 l 1
 532.1875 503.125 l 2
 532.1875 589.06483979 601.87266021 658.75 687.8125 658.75 c 2
328.584960938 66.25 m 2
 78.75 66.25 l 1
 78.75 658.75 l 1
 312.678710938 658.75 l 2
 398.560190394 658.75 468.221682065 589.155516105 468.30272737 503.273427282 c 2
 468.437495787 362.444702556 l 1
 468.182026697 18.2599953421 l 1
 445.242374256 32.6616847663 l 2
 410.574240842 54.4266043358 370.141150216 66.25 328.584960938 66.25 c 2
EndSplineSet
EndChar

StartChar: uniF008
Encoding: 61448 61448 7
Width: 1000
Flags: H
LayerCount: 2
Fore
SplineSet
919.229025028 554.60139973 m 0
 919.229025028 583.879288351 914.49327257 619.463671763 899.70899486 659.653565708 c 0
 898.080731701 659.763808858 896.131968166 659.838211037 893.837708205 659.838211037 c 0
 869.702348047 659.838211037 808.673077128 650.819700167 704.061880269 579.473988501 c 2
 698.301797951 575.545564159 l 1
 691.577246602 577.428438537 l 2
 631.369848646 594.286509965 565.889859476 596.875 500 596.875 c 0
 434.110140524 596.875 368.630151354 594.286509965 308.422753398 577.428438537 c 2
 301.673181272 575.538558342 l 1
 295.902722647 579.498203591 l 2
 192.023517936 650.77933151 131.156075142 659.950579667 106.744853597 659.950579667 c 0
 104.229328742 659.950579667 102.088806237 659.853994572 100.313956823 659.715939821 c 0
 85.5116282849 619.500488888 80.7709749716 583.894433735 80.7709749716 554.60139973 c 0
 80.7709749716 511.725304752 91.0010600178 482.10746108 95.1533529955 471.886432212 c 2
 98.748739867 463.036249143 l 1
 92.2290857428 456.033657676 l 2
 44.0108725741 404.243725014 15 338.104145586 15 256.875 c 0
 15 81.8957279118 76.6022164574 -13.2986254988 178.034419176 -65.6717171408 c 0
 260.028130786 -108.008017223 370.588733551 -122.5 498.75 -122.5 c 0
 626.908043371 -122.5 737.980651457 -108.011974902 820.542705939 -65.6539083131 c 0
 922.692949847 -13.2462149635 985 81.9644659 985 256.875 c 0
 985 338.104145586 955.989127426 404.243725014 907.770914257 456.033657676 c 2
 901.251260133 463.036249143 l 1
 904.846647004 471.886432212 l 2
 908.998939982 482.10746108 919.229025028 511.725304752 919.229025028 554.60139973 c 0
500 306.25 m 0
 562.043374064 306.25 623.122969153 314.864841682 682.895583427 314.864841682 c 0
 734.959010816 314.864841682 783.060190175 307.196526173 820.075638823 273.608433882 c 0
 863.021380627 234.626914398 888.75 186.330515121 888.75 133.125 c 0
 888.75 69.0133295093 871.928091961 21.3237192133 840.733500647 -12.7578024807 c 0
 772.582552642 -87.215838794 643.644957777 -91.25 500 -91.25 c 0
 356.333256868 -91.25 227.397521292 -87.4946047351 159.264866576 -13.0326247437 c 0
 128.063886256 21.0668358154 111.25 68.8311015638 111.25 133.125 c 0
 111.25 185.842623566 137.637798751 234.626013398 179.874401786 273.56288182 c 0
 216.632517172 307.229193108 264.89824117 314.864841682 317.09050559 314.864841682 c 0
 376.753043868 314.864841682 438.187773543 306.25 500 306.25 c 0
343.125 221.875 m 0
 333.572136473 221.875 324.1029831 218.089781093 315.190509486 210.328501987 c 0
 297.249786634 194.705122504 283.125 163.002106744 283.125 125.625 c 0
 283.125 88.2448863012 297.267831043 56.2157804975 315.244155425 40.4115953118 c 0
 324.172197176 32.5623586056 333.62728352 28.75 343.125 28.75 c 0
 352.677121724 28.75 362.13820671 32.5321228827 371.046017088 40.3078990247 c 0
 388.977227804 55.9603517123 403.125 87.7934899346 403.125 125.625 c 0
 403.125 163.453729133 388.995251387 194.960304057 371.100160076 210.432101754 c 0
 362.207828945 218.120263043 352.732279936 221.875 343.125 221.875 c 0
656.875 221.875 m 0
 647.267720064 221.875 637.792171055 218.120263043 628.899839924 210.432101754 c 0
 611.004748613 194.960304057 596.875 163.453729133 596.875 125.625 c 0
 596.875 87.7934899346 611.022772196 55.9603517123 628.953982912 40.3078990247 c 0
 637.86179329 32.5321228827 647.322878276 28.75 656.875 28.75 c 0
 666.427121724 28.75 675.88820671 32.5321228827 684.796017088 40.3078990247 c 0
 702.727227804 55.9603517123 716.875 87.7934899346 716.875 125.625 c 0
 716.875 163.535310616 702.967456528 195.008351233 685.127937854 210.432101754 c 0
 676.267207831 218.092941252 666.748024546 221.875 656.875 221.875 c 0
EndSplineSet
EndChar

StartChar: uniF009
Encoding: 61449 61449 8
Width: 1000
Flags: H
LayerCount: 2
Fore
SplineSet
458.969726563 596.875488281 m 0
 458.969726563 596.70288881 459.03697293 596.545117696 459.150420313 596.431670313 c 2
 608.928705789 446.654361399 l 1
 608.928705789 446.654361399 609.189955927 446.442175498 609.260083731 446.442175498 c 0
 609.869652331 446.442175498 609.997070312 446.695817348 609.997070312 447.098632812 c 2
 609.997070312 746.654296875 l 2
 609.997070312 747.057112339 609.86965233 747.310754189 609.26008373 747.310754189 c 0
 609.189955927 747.310754189 608.928210535 747.098073061 608.928210535 747.098073061 c 1
 459.150455149 597.319341086 l 2
 459.037007766 597.205893704 458.969726563 597.048087753 458.969726563 596.875488281 c 0
234.375 658.75 m 0
 268.537643459 658.75 296.25 631.037643459 296.25 596.875 c 0
 296.25 562.712356541 268.537643459 535 234.375 535 c 0
 200.212356541 535 172.5 562.712356541 172.5 596.875 c 0
 172.5 631.037643459 200.212356541 658.75 234.375 658.75 c 0
108.75 596.875 m 0
 108.75 542.165924437 143.706181567 495.643147585 192.494139644 478.399135439 c 2
 202.5 474.86258289 l 1
 202.5 125.139728033 l 1
 192.49458569 121.602975348 l 2
 143.705858301 104.356946624 108.75 57.8369273169 108.75 3.125 c 0
 108.75 -66.2623645846 164.98503873 -122.5 234.375 -122.5 c 0
 303.76496127 -122.5 360 -66.2623645846 360 3.125 c 0
 360 57.8369273169 325.044141699 104.356946624 276.25541431 121.602975348 c 2
 266.25 125.139728033 l 1
 266.25 474.86258289 l 1
 276.255860356 478.399135439 l 2
 325.043818433 495.643147585 360 542.165924437 360 596.875 c 0
 360 666.265238334 303.765238334 722.5 234.375 722.5 c 0
 164.984761666 722.5 108.75 666.265238334 108.75 596.875 c 0
640 565 m 1
 687.5 565 l 2
 730.293434224 565 765 530.292207907 765 487.5 c 2
 765 125.139664797 l 1
 754.994506858 121.602947482 l 2
 706.204937779 104.35692959 671.25 57.8370776801 671.25 3.125 c 0
 671.25 -66.2620875189 727.487912481 -122.5 796.875 -122.5 c 0
 866.262087519 -122.5 922.5 -66.2620875189 922.5 3.125 c 0
 922.5 57.8370776801 887.545062221 104.35692959 838.755493142 121.602947482 c 2
 828.75 125.139664797 l 1
 828.75 487.5 l 2
 828.75 565.519107729 765.519107729 628.75 687.5 628.75 c 2
 640 628.75 l 1
 640 565 l 1
735 3.125 m 0
 735 37.2876434593 762.712356541 65 796.875 65 c 0
 831.037643459 65 858.75 37.2876434593 858.75 3.125 c 0
 858.75 -31.0376434593 831.037643459 -58.75 796.875 -58.75 c 0
 762.712356541 -58.75 735 -31.0376434593 735 3.125 c 0
234.375 65 m 0
 268.537643459 65 296.25 37.2876434593 296.25 3.125 c 0
 296.25 -31.0376434593 268.537643459 -58.75 234.375 -58.75 c 0
 200.212356541 -58.75 172.5 -31.0376434593 172.5 3.125 c 0
 172.5 37.2876434593 200.212356541 65 234.375 65 c 0
EndSplineSet
EndChar

StartChar: uniF00A
Encoding: 61450 61450 9
Width: 1000
Flags: H
LayerCount: 2
Fore
SplineSet
640.625 -13.125 m 0
 640.625 -72.5707722139 640 -107.35891655 640 -150.625 c 0
 640 -152.980133712 640.771838374 -155.497623274 641.828330817 -156.997266458 c 0
 642.943140991 -158.579689023 644.508295612 -160.33015226 650.352735227 -160.33015226 c 0
 651.787483252 -160.33015226 653.524242058 -160.190039519 655.561720612 -159.828554051 c 0
 846.605809497 -95.2953774735 985 86.3356082784 985 300 c 0
 985 567.977484272 767.977484272 785 500 785 c 0
 232.022515728 785 15 567.977484272 15 300 c 0
 15 85.7823947096 153.271575657 -95.1690000303 345.494864894 -159.765665063 c 0
 347.319936617 -160.038963879 348.912180212 -160.149762683 350.269774745 -160.149762855 c 0
 356.629976044 -160.149762855 358.38282754 -158.246919888 359.459462233 -156.771516772 c 0
 360.486718439 -155.363781151 361.25 -153.002298163 361.25 -150.625 c 0
 361.25 -127.341914605 360.767766385 -104.228201382 360.659088217 -75.1111009976 c 1
 346.140581291 -77.115176765 320.155246451 -78.135404607 319.404926245 -78.1323018476 c 0
 249.475048978 -78.1323018476 209.366420322 -48.4733722244 193.449950076 -4.01654902591 c 0
 190.910570216 2.36744237817 182.237047117 19.2333579503 172.180009353 33.7361266107 c 0
 164.000218721 45.5318074639 154.558323784 55.5840161966 149.039439734 58.7201993952 c 0
 142.052348914 62.4783843978 134.606385072 67.5925846302 128.414758363 73.8706023406 c 0
 123.840601179 78.5085834847 117.713468422 84.9691487991 117.713468422 95.626637553 c 0
 117.713468422 99.4162921577 118.800066708 103.51606662 121.041622922 106.992001601 c 0
 124.546921476 112.42759576 129.69937186 115.28351271 134.415766027 116.954596993 c 0
 140.699243056 119.180920606 147.893420916 120.007847205 156.613576645 120.007847205 c 0
 178.202045187 120.007847205 196.323154784 111.058883456 210.249293228 100.481752983 c 0
 227.786634937 87.1618544243 239.696954573 70.9886756195 245.400054833 61.4042987943 c 0
 267.917328781 23.562768965 295.789666949 14.400264633 321.20194092 14.400264633 c 0
 337.554368469 14.400264633 353.232539949 18.7088075619 364.639869435 23.1039413273 c 1
 367.982199289 40.9137783744 373.881261726 55.9230084853 381.340057169 68.1257722846 c 1
 339.340546747 74.9030114848 297.060634554 87.307602484 260.878152193 112.127142108 c 0
 205.333572551 150.228201112 167.5 216.493353657 167.5 326.25 c 0
 167.5 380.877325142 186.007386697 427.278512988 216.67239574 463.868984392 c 1
 213.049914308 475.237736092 208.653056425 493.872636653 208.65305639 517.901715379 c 0
 208.65305639 540.69315668 212.63362256 568.229450946 224.816695647 598.687133664 c 2
 227.4662046 605.310906046 l 1
 234.264093937 607.441587771 l 2
 235.672189701 607.882931217 240.726445451 609.226189061 249.578539916 609.226189061 c 0
 270.731536444 609.226189061 312.570508606 601.644750485 378.873157977 558.14138779 c 1
 418.288227896 568.564978254 459.757566007 573.75 501.25 573.75 c 0
 542.72892762 573.75 584.184773995 568.568352792 623.588350137 558.151564846 c 1
 682.579896407 597.21869518 745.577707239 609.791655946 752.280105357 609.791655946 c 0
 752.66712221 609.791655946 752.866435585 609.74973444 752.866435585 609.668571682 c 0
 761.859984217 609.613740219 766.997456567 607.849676302 768.427579536 607.380083687 c 2
 775.079856201 605.195754044 l 1
 777.683304353 598.687133664 l 2
 789.86637744 568.229450946 793.84694361 540.69315668 793.84694361 517.901715379 c 0
 793.84694361 493.875426581 789.451106662 475.242063409 785.828866092 463.872944625 c 1
 816.456472946 427.381943826 835 381.445100517 835 326.25 c 0
 835 216.135251942 796.954537915 149.886808038 741.220987457 111.896428128 c 0
 704.947398921 87.1707934281 662.607693299 74.8711370853 620.623081217 68.1272271315 c 1
 632.734322767 48.3481022638 640.625 21.2830467685 640.625 -13.125 c 0
EndSplineSet
EndChar

StartChar: uniF00B
Encoding: 61451 61451 10
Width: 1000
Flags: H
LayerCount: 2
Fore
SplineSet
500 127.501464844 m 0
 508.16966062 127.501464844 516.324882154 130.619531798 522.540700917 136.835682159 c 2
 756.914032813 371.209014063 l 2
 763.130183174 377.424832826 766.248535156 385.58033938 766.248535156 393.75 c 0
 766.248535156 401.91966062 763.130468202 410.074882154 756.914317841 416.290700917 c 0
 750.698186617 422.506832141 742.543497232 425.624755859 734.375 425.624755859 c 0
 726.206502768 425.624755859 718.052098411 422.507117161 711.835967187 416.290985937 c 2
 531.875 236.332295857 l 1
 531.875 690.625 l 2
 531.875 708.237747165 517.612747165 722.5 500 722.5 c 0
 482.387252835 722.5 468.125 708.237747165 468.125 690.625 c 2
 468.125 236.331971875 l 1
 288.165985937 416.290985937 l 2
 281.950237152 422.506734722 273.794887176 425.624755859 265.625 425.624755859 c 0
 257.455112824 425.624755859 249.299762848 422.506734722 243.084014063 416.290985937 c 0
 236.868265278 410.075237152 233.750244141 401.919887176 233.750244141 393.75 c 0
 233.750244141 385.580112824 236.868265278 377.424762848 243.084014063 371.209014063 c 2
 477.458969538 136.836011711 l 2
 483.674788301 130.61986135 491.83033938 127.501464844 500 127.501464844 c 0
234.375 -27.505859375 m 2
 216.762529897 -27.505859375 202.5 -41.7690328363 202.5 -59.380859375 c 0
 202.5 -76.9936065407 216.762252835 -91.255859375 234.375 -91.255859375 c 2
 765.625 -91.255859375 l 2
 783.237747165 -91.255859375 797.5 -76.9936065407 797.5 -59.380859375 c 0
 797.5 -41.7690328363 783.237470103 -27.505859375 765.625 -27.505859375 c 2
 234.375 -27.505859375 l 2
EndSplineSet
EndChar

StartChar: uniF00C
Encoding: 61452 61452 11
Width: 1000
Flags: H
LayerCount: 2
Fore
SplineSet
500 722.499755859 m 0
 491.830112824 722.499755859 483.674762848 719.381734722 477.459014063 713.165985937 c 2
 243.084014063 478.790985937 l 2
 236.868265278 472.575237152 233.750244141 464.419887176 233.750244141 456.25 c 0
 233.750244141 448.080112824 236.868265278 439.924762848 243.084014063 433.709014063 c 0
 249.299762848 427.493265278 257.455112824 424.375244141 265.625 424.375244141 c 0
 273.794887176 424.375244141 281.950237152 427.493265278 288.165985937 433.709014063 c 2
 468.125 613.668028125 l 1
 468.125 159.375 l 2
 468.125 141.762252835 482.387252835 127.5 500 127.5 c 0
 517.612747165 127.5 531.875 141.762252835 531.875 159.375 c 2
 531.875 613.667704143 l 1
 711.835899581 433.709081669 l 2
 718.052030804 427.492950445 726.206502768 424.375244141 734.375 424.375244141 c 0
 742.543497232 424.375244141 750.697901589 427.492882839 756.914032813 433.709014063 c 0
 763.130183174 439.924832826 766.248535156 448.08033938 766.248535156 456.25 c 0
 766.248535156 464.41966062 763.130468202 472.574882154 756.914317841 478.790700917 c 2
 522.540941413 713.166030462 l 2
 516.325192628 719.381779247 508.169887176 722.499755859 500 722.499755859 c 0
234.375 -27.5 m 2
 216.762252835 -27.5 202.5 -41.7622528343 202.5 -59.375 c 0
 202.5 -76.9877471657 216.762252835 -91.25 234.375 -91.25 c 2
 765.625 -91.25 l 2
 783.237747165 -91.25 797.5 -76.9877471657 797.5 -59.375 c 0
 797.5 -41.7622528343 783.237747165 -27.5 765.625 -27.5 c 2
 234.375 -27.5 l 2
EndSplineSet
EndChar

StartChar: uniF010
Encoding: 61456 61456 12
Width: 1000
Flags: H
LayerCount: 2
Fore
SplineSet
265 690.625 m 2
 265 534.375 l 2
 265 516.762252835 279.262252835 502.5 296.875 502.5 c 0
 314.487747165 502.5 328.75 516.762252835 328.75 534.375 c 2
 328.75 690.625 l 2
 328.75 707.529075525 342.470924475 721.25 359.375 721.25 c 2
 640 721.25 l 1
 640 534.375 l 2
 640 482.243540198 682.243540198 440 734.375 440 c 2
 921.25 440 l 1
 921.25 -28.125 l 2
 921.25 -45.0297018787 907.529701879 -58.75 890.625 -58.75 c 2
 328.125 -58.75 l 2
 310.512252835 -58.75 296.25 -73.0122528343 296.25 -90.625 c 0
 296.25 -108.237747165 310.512252835 -122.5 328.125 -122.5 c 2
 890.625 -122.5 l 2
 942.756459802 -122.5 985 -80.2564598021 985 -28.125 c 2
 985 508.487304688 l 2
 985 533.491772031 975.026733191 557.553285559 957.35836875 575.22165 c 2
 775.22064479 757.360350522 l 2
 757.551400909 775.028753211 733.491300169 785 708.487304688 785 c 2
 359.375 785 l 2
 307.243540198 785 265 742.756459802 265 690.625 c 2
935.054569224 503.75 m 1
 734.375 503.75 l 2
 717.468635726 503.75 703.75 517.472586927 703.75 534.375 c 2
 703.75 735.402692436 l 1
 728.605537533 713.710586993 l 2
 729.11266444 713.268003511 729.652750596 712.763498522 730.141659897 712.278321353 c 2
 912.36183872 530.05652386 l 2
 912.721242672 529.691504222 913.205473247 529.194516889 913.78986301 528.51396172 c 2
 935.054569224 503.75 l 1
358.750244141 346.875 m 0
 358.750244141 338.705112824 361.868265278 330.549762848 368.084014063 324.334014063 c 2
 470.542915383 221.875112741 l 1
 368.084127669 119.41414642 l 2
 361.867996445 113.198015196 358.750244141 105.043497232 358.750244141 96.8750000001 c 0
 358.750244141 88.7065027682 361.867882839 80.5520984112 368.084014063 74.3359671877 c 0
 374.299832825 68.1198168262 382.45533938 65.0014648438 390.625 65.0014648438 c 0
 398.79466062 65.0014648438 406.949882154 68.119531798 413.165700917 74.3356821596 c 2
 538.166069421 199.334097546 l 2
 544.381818206 205.549846331 547.499755859 213.705112824 547.499755859 221.875 c 0
 547.499755859 230.044887176 544.381734722 238.200237152 538.165985937 244.415985937 c 2
 413.165985937 369.415985937 l 2
 406.950237152 375.631734722 398.794887176 378.749755859 390.625 378.749755859 c 0
 382.455112824 378.749755859 374.299762848 375.631734722 368.084014063 369.415985937 c 0
 361.868265278 363.200237152 358.750244141 355.044887176 358.750244141 346.875 c 0
203.749755859 346.875 m 0
 203.749755859 355.044887176 200.631734722 363.200237152 194.415985937 369.415985937 c 0
 188.200237152 375.631734722 180.044887176 378.749755859 171.875 378.749755859 c 0
 163.705112824 378.749755859 155.549762848 375.631734722 149.334014063 369.415985937 c 2
 24.3340140625 244.415985937 l 2
 18.1182652776 238.200237152 15.0002441406 230.044887176 15.0002441406 221.875 c 0
 15.0002441406 213.705112824 18.1182652775 205.549762848 24.3340140623 199.334014063 c 2
 149.333930579 74.3360506709 l 2
 155.549749342 68.1199003094 163.70533938 65.0014648438 171.875 65.0014648438 c 0
 180.04466062 65.0014648438 188.199882154 68.119531798 194.415700917 74.3356821596 c 0
 200.63183214 80.5518133831 203.749755859 88.7065027682 203.749755859 96.8750000001 c 0
 203.749755859 105.043497232 200.632117161 113.197901589 194.415985937 119.414032813 c 2
 91.9570846165 221.875112741 l 1
 194.415985937 324.334014063 l 2
 200.631734722 330.549762848 203.749755859 338.705112824 203.749755859 346.875 c 0
EndSplineSet
EndChar

StartChar: uniF011
Encoding: 61457 61457 13
Width: 1000
Flags: H
LayerCount: 2
Fore
SplineSet
203.75 690.625 m 2
 203.75 707.307097106 217.688049853 721.25 234.375 721.25 c 2
 515 721.25 l 1
 515 534.375 l 2
 515 509.369742985 524.971892887 485.307463363 542.639678125 467.639678125 c 0
 560.307463363 449.971892887 584.369742985 440 609.375 440 c 2
 796.25 440 l 1
 796.25 -28.125 l 2
 796.25 -44.8048624423 782.308233657 -58.75 765.625 -58.75 c 2
 234.375 -58.75 l 2
 217.472177196 -58.75 203.75 -45.0278228041 203.75 -28.125 c 2
 203.75 690.625 l 2
782.45904375 503.75 m 1
 609.375 503.75 l 2
 592.472177196 503.75 578.75 517.472177196 578.75 534.375 c 2
 578.75 707.45904375 l 1
 782.45904375 503.75 l 1
140 690.625 m 2
 140 -28.125 l 2
 140 -53.127980332 149.97165332 -77.1895027647 167.639932492 -94.8586231232 c 0
 185.308150714 -112.526841345 209.370463139 -122.5 234.375 -122.5 c 2
 765.625 -122.5 l 2
 790.627260162 -122.5 814.689069764 -112.526826534 832.358623123 -94.8581143828 c 0
 850.027335275 -77.1885610245 860 -53.1272601621 860 -28.125 c 2
 860 477.25 l 2
 860 502.254759424 850.050293815 526.29448974 832.349255071 543.941725935 c 2
 618.957978125 757.332978125 l 2
 601.31074193 775.03401687 577.254759424 785 552.25 785 c 2
 234.375 785 l 2
 182.277822804 785 140 742.722177196 140 690.625 c 2
EndSplineSet
EndChar

StartChar: uniF012
Encoding: 61458 61458 14
Width: 1000
Flags: H
LayerCount: 2
Fore
SplineSet
109.375 658.75 m 2
 890.625 658.75 l 2
 907.531364274 658.75 921.25 645.027413073 921.25 628.125 c 2
 921.25 121.834808752 l 1
 690.479502155 330.628155127 l 2
 672.467437215 346.924727169 649.795545377 355.022345741 627.170533566 355.022345741 c 0
 602.955469274 355.022345741 578.787234137 345.750065387 560.4199653 327.38279655 c 2
 180.56717275 -52.4709460626 l 2
 178.584340506 -54.4475429845 176.740721176 -56.6616433222 174.864686042 -58.75 c 1
 109.375 -58.75 l 2
 92.4725869268 -58.75 78.75 -45.0313642745 78.75 -28.125 c 2
 78.75 628.125 l 2
 78.75 645.029075525 92.4709244751 658.75 109.375 658.75 c 2
890.625 -58.75 m 2
 264.451191764 -58.7499999969 l 1
 605.501833188 282.301697176 l 2
 611.478689601 288.277562239 619.311341707 291.272355449 627.156244771 291.272355449 c 0
 634.498203469 291.272355449 641.844113904 288.652281828 647.695257364 283.358213865 c 2
 921.25 35.8591927366 l 1
 921.25 -28.125 l 2
 921.25 -45.0297018787 907.529701879 -58.75 890.625 -58.75 c 2
985 -28.125 m 2
 985 628.125 l 2
 985 680.256459802 942.756459802 722.5 890.625 722.5 c 2
 109.375 722.5 l 2
 57.2435401979 722.5 15 680.256459802 15 628.125 c 2
 15 -28.125 l 2
 15 -80.2564598021 57.2435401979 -122.5 109.375 -122.5 c 2
 890.625 -122.5 l 2
 942.756459802 -122.5 985 -80.2564598021 985 -28.125 c 2
358.75 425 m 0
 358.75 399.466373355 338.033626645 378.75 312.5 378.75 c 0
 286.966373355 378.75 266.25 399.466373355 266.25 425 c 0
 266.25 450.533626645 286.966373355 471.25 312.5 471.25 c 0
 338.033626645 471.25 358.75 450.533626645 358.75 425 c 0
422.5 425 m 0
 422.5 485.760318667 373.260318667 535 312.5 535 c 0
 251.739681333 535 202.5 485.760318667 202.5 425 c 0
 202.5 364.239681333 251.739681333 315 312.5 315 c 0
 373.260318667 315 422.5 364.239681333 422.5 425 c 0
EndSplineSet
EndChar

StartChar: uniF013
Encoding: 61459 61459 15
Width: 1000
Flags: H
LayerCount: 2
Fore
SplineSet
203.081946854 -114.145117545 m 0
 219.140360459 -114.145117545 235.007751123 -101.053741367 235.007751123 -82.3072348473 c 0
 235.007751123 -71.25864963 229.279259146 -60.5683784653 219.101916391 -54.6811580124 c 0
 209.771785463 -49.2918097683 203.75 -39.291704539 203.75 -28.125 c 2
 203.75 690.625 l 2
 203.75 707.529075525 217.470924475 721.25 234.375 721.25 c 2
 421.84765625 721.25 l 1
 421.856314899 691.250002451 l 1
 404.252297211 691.240036408 390 676.981878596 390 659.375 c 0
 390 641.762252835 404.262252835 627.5 421.875 627.5 c 2
 453.125 627.5 l 2
 470.737747165 627.5 485 641.762252835 485 659.375 c 0
 485 676.987747165 470.737747165 691.25 453.125 691.25 c 1
 453.125 721.25 l 1
 583.487304688 721.25 l 2
 591.634140903 721.25 599.365830626 718.052197499 605.139678125 712.27835 c 2
 787.279297916 530.139706772 l 2
 793.062355279 524.36050221 796.25 516.626674631 796.25 508.487304688 c 2
 796.25 -28.125 l 2
 796.25 -45.0297018787 782.529701879 -58.75 765.625 -58.75 c 2
 734.375 -58.75 l 2
 716.762252835 -58.75 702.5 -73.0122528343 702.5 -90.625 c 0
 702.5 -108.237747165 716.762252835 -122.5 734.375 -122.5 c 2
 765.625 -122.5 l 2
 817.756459802 -122.5 860 -80.2564598021 860 -28.125 c 2
 860 508.487304688 l 2
 860 533.491772031 850.026733191 557.553285559 832.35836875 575.22165 c 2
 650.22064479 757.360350522 l 2
 632.551400909 775.028753211 608.491300169 785 583.487304688 785 c 2
 234.375 785 l 2
 182.243540198 785 140 742.756459802 140 690.625 c 2
 140 -28.125 l 2
 140 -63.1145418737 159.063515473 -93.6003022918 187.147403174 -109.84383903 c 0
 192.212058499 -112.773336138 197.70480648 -114.145117545 203.081946854 -114.145117545 c 0
546.875 597.5 m 2
 529.262252835 597.5 515 583.237747165 515 565.625 c 0
 515 548.012252835 529.262252835 533.75 546.875 533.75 c 2
 578.125 533.75 l 2
 595.737747165 533.75 610 548.012252835 610 565.625 c 0
 610 583.237747165 595.737747165 597.5 578.125 597.5 c 2
 546.875 597.5 l 2
390 471.875 m 0
 390 454.262252835 404.262252835 440 421.875 440 c 2
 453.125 440 l 2
 470.737747165 440 485 454.262252835 485 471.875 c 0
 485 489.487747165 470.737747165 503.75 453.125 503.75 c 2
 421.875 503.75 l 2
 404.262252835 503.75 390 489.487747165 390 471.875 c 0
515 378.125 m 0
 515 360.512252835 529.262252835 346.25 546.875 346.25 c 2
 578.125 346.25 l 2
 595.737747165 346.25 610 360.512252835 610 378.125 c 0
 610 395.737747165 595.737747165 410 578.125 410 c 2
 546.875 410 l 2
 529.262252835 410 515 395.737747165 515 378.125 c 0
421.875 316.25 m 2
 404.262252835 316.25 390 301.987747165 390 284.375 c 0
 390 266.762252835 404.262252835 252.5 421.875 252.5 c 2
 453.125 252.5 l 2
 470.737747165 252.5 485 266.762252835 485 284.375 c 0
 485 301.987747165 470.737747165 316.25 453.125 316.25 c 2
 421.875 316.25 l 2
515 190.625 m 0
 515 173.012252835 529.262252835 158.75 546.875 158.75 c 2
 578.125 158.75 l 2
 595.737747165 158.75 610 173.012252835 610 190.625 c 0
 610 208.237747165 595.737747165 222.5 578.125 222.5 c 2
 546.875 222.5 l 2
 529.262252835 222.5 515 208.237747165 515 190.625 c 0
453.125 128.75 m 2
 400.993540198 128.75 358.75 86.5064598021 358.75 34.375 c 2
 358.75 -153.125 l 2
 358.75 -170.737747165 373.012252835 -185 390.625 -185 c 2
 546.875 -185 l 2
 564.487747165 -185 578.75 -170.737747165 578.75 -153.125 c 2
 578.75 34.375 l 2
 578.75 86.5064598021 536.506459802 128.75 484.375 128.75 c 2
 453.125 128.75 l 2
422.5 34.375 m 2
 422.5 51.2813642745 436.222586927 65 453.125 65 c 2
 484.375 65 l 2
 501.277413073 65 515 51.2813642745 515 34.375 c 2
 515 -121.25 l 1
 422.5 -121.25 l 1
 422.5 34.375 l 2
EndSplineSet
EndChar

StartChar: uniF015
Encoding: 61461 61461 16
Width: 1000
Flags: H
LayerCount: 2
Fore
SplineSet
141.249971759 628.125 m 2
 141.249971759 644.807082093 155.188059581 658.75 171.875 658.75 c 2
 485.96718109 658.75 l 2
 495.251467704 658.75 502.60095038 654.782151942 507.604521875 649.792021875 c 2
 898.211559509 259.184954098 l 2
 903.230279133 254.183064521 907.212890625 246.792402411 907.212890625 237.5 c 0
 907.212890625 228.230308655 903.235200838 220.821870772 898.229521875 215.832978125 c 2
 584.184954096 -98.2115595107 l 2
 579.183064519 -103.230279133 571.79240241 -107.212890625 562.5 -107.212890625 c 0
 553.230308656 -107.212890625 545.821870773 -103.235200837 540.832978125 -98.229521875 c 2
 150.193615465 292.409860116 l 2
 145.202950442 297.413968007 141.249971759 304.750142462 141.249971759 314.03281891 c 2
 141.249971759 628.125 l 2
77.5 314.0625 m 2
 77.5 285.581791579 89.8305390129 262.616720354 105.162913519 247.296128652 c 2
 495.792021875 -143.332978125 l 2
 513.458042451 -160.985540157 537.506238623 -170.943359375 562.5 -170.943359375 c 0
 587.493761377 -170.943359375 611.546030282 -160.981468976 629.212050858 -143.328906944 c 2
 943.332978125 170.792021875 l 2
 960.985540157 188.458042451 970.943359375 212.506238623 970.943359375 237.5 c 0
 970.943359375 262.493761377 960.981468976 286.546030282 943.328906944 304.212050858 c 2
 552.707978125 694.832978125 l 2
 535.070079377 712.524650955 510.946717935 722.5 485.9375 722.5 c 2
 171.875 722.5 l 2
 119.777822804 722.5 77.5 680.222177196 77.5 628.125 c 2
 77.5 314.0625 l 2
375 472.5 m 0
 362.426567653 472.5 350.287986842 467.466875317 341.409740777 458.589368921 c 0
 332.532234381 449.711122855 327.5 437.573432347 327.5 425 c 0
 327.5 412.426567653 332.533124683 400.287986842 341.410631079 391.409740777 c 0
 350.288877145 382.532234381 362.426567653 377.5 375 377.5 c 0
 387.573432347 377.5 399.712013158 382.533124683 408.590259223 391.410631079 c 0
 417.467765619 400.288877145 422.5 412.426567653 422.5 425 c 0
 422.5 437.573432347 417.466875317 449.712013158 408.589368921 458.590259223 c 0
 399.711122855 467.467765619 387.573432347 472.5 375 472.5 c 0
EndSplineSet
EndChar

StartChar: uniF016
Encoding: 61462 61462 17
Width: 1000
Flags: H
LayerCount: 2
Fore
SplineSet
109.375 722.5 m 2
 84.3697429845 722.5 60.3074633633 712.528107113 42.639678125 694.860321875 c 0
 24.9718928867 677.192536637 15 653.130257015 15 628.125 c 2
 15 -28.125 l 2
 15 -80.2221771959 57.2778228041 -122.5 109.375 -122.5 c 2
 890.625 -122.5 l 2
 915.627260162 -122.5 939.689069764 -112.526826534 957.358623123 -94.8581143828 c 0
 975.027335275 -77.1885610245 985 -53.1272601621 985 -28.125 c 2
 985 503.125 l 2
 985 528.129536861 975.026586972 552.192103653 957.35836875 569.860321875 c 0
 939.689248391 587.528601047 915.627980332 597.5 890.625 597.5 c 2
 484.375 597.5 l 2
 473.430987137 597.5 464.895319799 603.062701204 459.87005305 609.759686468 c 2
 403.617868436 684.762598554 l 2
 385.864194418 708.434163912 357.760212931 722.5 328.125 722.5 c 2
 109.375 722.5 l 2
EndSplineSet
EndChar

StartChar: uniF017
Encoding: 61463 61463 18
Width: 1000
Flags: H
LayerCount: 2
Fore
SplineSet
15 628.125 m 2
 15 -28.125 l 2
 15 -80.2564598021 57.2435401979 -122.5 109.375 -122.5 c 2
 890.625 -122.5 l 2
 942.756459802 -122.5 985 -80.2564598021 985 -28.125 c 2
 985 503.125 l 2
 985 555.256459802 942.756459802 597.5 890.625 597.5 c 2
 468.75 597.5 l 2
 459.102564184 597.5 450.058760519 602.006150444 444.241791015 609.764035295 c 2
 387.992868436 684.762598554 l 2
 370.202058232 708.483118097 342.196395067 722.5 312.5 722.5 c 2
 109.375 722.5 l 2
 57.2435401979 722.5 15 680.256459802 15 628.125 c 2
578.225722035 23.9258461791 m 0
 562.704813758 23.9258461791 547.5 36.2219066873 547.5 54.5810546875 c 2
 547.5 160 l 1
 296.875 160 l 2
 262.712356541 160 235 187.712356541 235 221.875 c 0
 235 256.038675959 262.712633608 283.75 296.875 283.75 c 2
 547.5 283.75 l 1
 547.5 389.168945312 l 2
 547.5 407.527022201 562.703211146 419.825019364 578.225296155 419.825019364 c 0
 585.497987662 419.825019364 593.00331862 417.141810111 598.958515023 411.611860223 c 2
 779.122290062 244.318321126 l 2
 785.651591826 238.253619032 788.911132812 230.043012035 788.911132812 221.876586914 c 0
 788.911132812 213.710171147 785.650852481 205.498642623 779.12078323 199.434185704 c 2
 598.957961053 32.136718778 l 2
 593.002503941 26.6082303632 585.497715557 23.9258461791 578.225722035 23.9258461791 c 0
EndSplineSet
EndChar

StartChar: uniF018
Encoding: 61464 61464 19
Width: 1000
Flags: H
LayerCount: 2
Fore
SplineSet
671.25 487.5 m 0
 671.25 442.056793148 653.235350055 398.556674513 621.0900515 366.410304629 c 0
 588.944246693 334.263428472 545.442884541 316.25 500 316.25 c 0
 454.557040303 316.25 411.056688721 334.263564402 378.910126563 366.410126563 c 0
 346.763564403 398.556688721 328.75 442.057040303 328.75 487.5 c 0
 328.75 532.942884541 346.763250405 576.444068629 378.910126563 608.589873437 c 0
 411.056688721 640.736435597 454.557040303 658.75 500 658.75 c 0
 545.442884541 658.75 588.944068629 640.736749595 621.089873437 608.589873437 c 0
 653.235485982 576.444260893 671.25 532.943131699 671.25 487.5 c 0
140.42335406 -27.0897939351 m 0
 140.42335406 -44.5905631664 154.833127924 -58.9638030664 172.311082869 -58.9638030664 c 0
 189.317204957 -58.9638030664 202.917702022 -45.3460324145 204.087995221 -29.4138608646 c 0
 207.72016693 46.5857400206 240.429021411 118.240685643 295.519690019 170.791144838 c 0
 350.651227781 223.384705224 423.819665526 252.68359375 500 252.68359375 c 0
 576.180334474 252.68359375 649.349199686 223.384297451 704.480737448 170.790737066 c 0
 759.615116933 118.19858274 792.332857094 46.4718721309 795.920623321 -29.5953549387 c 2
 795.928527643 -29.7629410603 l 1
 795.928527643 -29.9308899292 l 2
 796.296020866 -44.6168378328 805.598704687 -54.962593956 816.820628681 -59.0831003152 c 0
 820.351040787 -60.3775259433 824.080137207 -61.0333425643 827.783666155 -61.0333425643 c 0
 843.231928197 -61.0333425643 853.936791431 -51.2211274231 857.952996509 -39.4754754339 c 0
 859.092965171 -36.1496044891 859.67443772 -32.6358736322 859.67443772 -29.1703088568 c 0
 859.67443772 -28.4455052614 859.649370891 -27.717456342 859.598814396 -26.9883905087 c 0
 859.590803759 -26.882033944 859.584398395 -26.7740721071 859.579833694 -26.6642696072 c 0
 856.460348261 38.5927785727 835.636808065 101.828179907 799.370792236 156.170022431 c 0
 763.099153679 210.507645998 712.755392174 253.945419677 653.667240228 281.867276732 c 2
 632.413154743 291.910805209 l 1
 650.465911393 306.962737324 l 2
 687.532100379 337.867588657 714.195499876 379.451824549 726.8187383 426.1011257 c 0
 732.262654391 446.228355626 734.969894559 466.864721012 734.969894559 487.441588075 c 0
 734.969894559 514.548477905 730.269336501 541.66283656 720.916951405 567.486446184 c 0
 704.463126466 612.914947997 674.442506966 652.121393423 634.925735556 679.840483884 c 0
 595.400844024 707.561777588 548.222241693 722.453125 499.96875 722.453125 c 0
 451.715232989 722.453125 404.535980263 707.561221076 365.013256673 679.840160601 c 0
 325.493780304 652.12110371 295.473343956 612.914641267 279.020515783 567.486355587 c 0
 269.668697236 541.665751748 264.969058947 514.554351294 264.969058947 487.45012785 c 0
 264.969058947 466.870585656 267.677432547 446.229623216 273.12213841 426.099473348 c 0
 285.739429795 379.451780848 312.404105258 337.867902943 349.471447466 306.962855003 c 2
 367.520842583 291.914098114 l 1
 346.27282979 281.868491482 l 2
 287.195786033 253.938126965 236.861618531 210.495226705 200.605490975 156.158372025 c 0
 164.382119306 101.869202454 143.571758167 38.7112294839 140.429380241 -26.4720779566 c 0
 140.425356465 -26.6783827013 140.42335406 -26.8843015164 140.42335406 -27.0897939351 c 0
EndSplineSet
EndChar

StartChar: uniF01F
Encoding: 61471 61471 20
Width: 1000
Flags: H
LayerCount: 2
Fore
SplineSet
671.25 315.625 m 0
 671.25 270.181868301 653.235664046 226.680917174 621.0900515 194.535304629 c 0
 588.944246693 162.388428472 545.442884541 144.375 500 144.375 c 0
 454.557115459 144.375 411.056109437 162.388072342 378.910304629 194.5349485 c 0
 346.763428472 226.680753307 328.75 270.182115459 328.75 315.625 c 0
 328.75 361.067959697 346.763564403 404.568311279 378.910126563 436.714873437 c 0
 411.055739107 468.860485982 454.556868301 486.875 500 486.875 c 0
 545.443131699 486.875 588.944438955 468.860307917 621.0900515 436.714695371 c 0
 653.235350054 404.568325487 671.25 361.068206852 671.25 315.625 c 0
15 315.625 m 0
 15 298.257978238 29.5048870112 283.75 46.875 283.75 c 2
 266.784237784 283.75 l 1
 269.108784628 271.575565563 l 2
 279.373493453 217.815829581 308.055038015 169.359524619 350.172685645 134.51866159 c 0
 392.295598875 99.6798652868 445.338417646 80.587890625 500 80.587890625 c 0
 554.661553165 80.587890625 607.705518652 99.6806919708 649.830569297 134.519738365 c 0
 691.946426335 169.360637959 720.626505182 217.815822434 730.891215372 271.575565563 c 2
 733.215762216 283.75 l 1
 953.125 283.75 l 2
 970.493352377 283.75 985 298.25572615 985 315.625 c 0
 985 332.988691045 970.497678604 347.5 953.125 347.5 c 2
 733.215762216 347.5 l 1
 730.891215372 359.674434437 l 2
 720.626480658 413.434306007 691.94474606 461.891432576 649.829770724 496.727015882 c 0
 607.704587154 531.56800725 554.661195041 550.662109375 500 550.662109375 c 0
 445.338775771 550.662109375 392.29497971 531.567551321 350.171933548 496.726810046 c 0
 308.055167621 461.891263269 279.373517978 413.434298865 269.108784628 359.674434437 c 2
 266.784237784 347.5 l 1
 46.875 347.5 l 2
 29.5096081369 347.5 15 332.995455824 15 315.625 c 0
EndSplineSet
EndChar

StartChar: uniF020
Encoding: 61472 61472 21
Width: 1000
Flags: H
LayerCount: 2
Fore
SplineSet
734.375 658.75 m 0
 768.537643459 658.75 796.25 631.037643459 796.25 596.875 c 0
 796.25 562.712356541 768.537643459 535 734.375 535 c 0
 700.212356541 535 672.5 562.712356541 672.5 596.875 c 0
 672.5 631.037643459 700.212356541 658.75 734.375 658.75 c 0
608.75 596.875 m 0
 608.75 542.165774071 643.705261041 495.643164623 692.494060817 478.399163301 c 2
 702.5 474.862646122 l 1
 702.5 458.241764082 702.5 441.620882041 702.5 425 c 0
 702.5 382.207792093 667.793434224 347.5 625 347.5 c 2
 375 347.5 l 2
 354.906885264 347.5 335.795844229 343.305733303 318.494061664 335.74641068 c 2
 297.5 326.573894224 l 1
 297.5 474.86258289 l 1
 307.505860356 478.399135439 l 2
 356.293818433 495.643147585 391.25 542.165924437 391.25 596.875 c 0
 391.25 666.265238334 335.015238334 722.5 265.625 722.5 c 0
 196.234761666 722.5 140 666.265238334 140 596.875 c 0
 140 542.165924437 174.956181567 495.643147585 223.744139644 478.399135439 c 2
 233.75 474.86258289 l 1
 233.75 125.139728033 l 1
 223.74458569 121.602975348 l 2
 174.955858301 104.356946624 140 57.8369273169 140 3.125 c 0
 140 -66.2623645846 196.23503873 -122.5 265.625 -122.5 c 0
 335.01496127 -122.5 391.25 -66.2623645846 391.25 3.125 c 0
 391.25 57.8369273169 356.294141699 104.356946624 307.50541431 121.602975348 c 2
 297.5 125.139728033 l 1
 297.5 206.25 l 2
 297.5 249.042415708 332.207584292 283.75 375 283.75 c 2
 625 283.75 l 2
 703.019107729 283.75 766.25 346.980892271 766.25 425 c 0
 766.25 441.620882041 766.25 458.241764082 766.25 474.862646122 c 1
 776.255939183 478.399163301 l 2
 825.044738959 495.643164623 860 542.165774071 860 596.875 c 0
 860 666.26496127 803.762364585 722.5 734.375 722.5 c 0
 664.987635415 722.5 608.75 666.26496127 608.75 596.875 c 0
265.625 65 m 0
 299.787643459 65 327.5 37.2876434593 327.5 3.125 c 0
 327.5 -31.0376434593 299.787643459 -58.75 265.625 -58.75 c 0
 231.462356541 -58.75 203.75 -31.0376434593 203.75 3.125 c 0
 203.75 37.2876434593 231.462356541 65 265.625 65 c 0
203.75 596.875 m 0
 203.75 631.037643459 231.462356541 658.75 265.625 658.75 c 0
 299.787643459 658.75 327.5 631.037643459 327.5 596.875 c 0
 327.5 562.712356541 299.787643459 535 265.625 535 c 0
 231.462356541 535 203.75 562.712356541 203.75 596.875 c 0
EndSplineSet
EndChar

StartChar: uniF023
Encoding: 61475 61475 22
Width: 1000
Flags: H
LayerCount: 2
Fore
SplineSet
265.624396879 534.843685992 m 0
 249.139841924 534.843685992 233.471236031 541.35303997 221.838717994 553.004980065 c 0
 210.225984813 564.637100113 203.75 580.302444442 203.75 596.71875 c 0
 203.75 613.135941853 210.225678764 628.800093295 221.838123826 640.431924742 c 0
 233.471259031 652.085777908 249.140696732 658.593814008 265.624396879 658.593814008 c 0
 282.004871354 658.593814008 297.639071842 652.146630022 309.26524867 640.578493793 c 0
 320.915573052 628.986330559 327.445783608 613.290949081 327.5 596.875 c 2
 327.5 596.625 l 2
 327.499942568 596.587332824 327.499916609 596.549665647 327.499916609 596.511998471 c 0
 327.445698899 580.09694137 320.915863961 564.451458898 309.26524867 552.859006207 c 0
 297.639071842 541.290869978 282.004871354 534.843685992 265.624396879 534.843685992 c 0
391.251736224 596.832138511 m 0
 391.251736224 610.845926642 388.897541745 624.91018662 384.184508197 638.365998013 c 0
 368.451481932 683.281415269 324.444767821 722.456741898 265.628018226 722.456741898 c 0
 260.993722792 722.456741898 256.338187572 722.19956131 251.684903801 721.679369265 c 0
 223.406147375 718.518078258 197.033992976 705.844721231 176.924915357 685.794019185 c 0
 156.81496247 665.743313159 144.06489822 639.409624476 140.820555841 611.139493626 c 0
 140.272625624 606.365010192 140.00177238 601.587238466 140.00177238 596.831587849 c 0
 140.00177238 538.063952665 178.99951374 494.218269404 223.745863195 478.396573009 c 2
 233.75 474.859247236 l 1
 233.75 125.138154972 l 1
 223.742624682 121.602282317 l 2
 178.970905476 105.783239599 139.937108716 62.2776791513 139.937108716 3.09902880909 c 0
 139.937108716 -3.96458552466 140.534492622 -11.0696797697 141.745762292 -18.1323623503 c 0
 146.763277976 -47.3875186469 161.960467456 -73.9015551277 184.598778671 -92.982591686 c 0
 207.245451198 -112.076639912 236.007178641 -122.587890625 265.625 -122.587890625 c 0
 295.242747604 -122.587890625 324.001727025 -112.078283921 346.649663144 -92.9839052051 c 0
 369.287777754 -73.9030343582 384.485829203 -47.3876310889 389.504325611 -18.1318498573 c 0
 390.715595281 -11.0691672768 391.312891284 -3.96458552466 391.312891284 3.09902880909 c 0
 391.312891284 62.2354183489 352.25095068 105.79318357 307.507375318 121.602282317 c 2
 297.5 125.138154972 l 1
 297.5 393.60446784 l 1
 323.600129343 364.897280379 l 2
 379.996402757 302.867764292 467.608185261 252.499989503 577.70503868 252.499989503 c 2
 674.861845028 252.499989503 l 1
 678.397717683 242.492624682 l 2
 694.215848722 197.723485748 737.717380999 158.686679378 796.896082615 158.686679378 c 0
 803.960950829 158.686679378 811.067254659 159.284420595 818.13108196 160.496519208 c 0
 847.383167254 165.510014463 873.901034214 180.712463259 892.98314532 203.349435481 c 0
 912.077524036 225.9973716 922.587890625 254.757252396 922.587890625 284.375 c 0
 922.587890625 313.992821359 912.078138002 342.752771701 892.984089776 365.399444228 c 0
 873.903053218 388.037755443 847.387433045 403.236736705 818.132276749 408.254252389 c 0
 811.069594169 409.465522059 803.964585525 410.062891284 796.900971191 410.062891284 c 0
 737.764581651 410.062891284 694.20681643 371.00095068 678.397717683 326.257375318 c 2
 674.861845028 316.25 l 1
 578.125 316.25 l 2
 525.996275319 316.25 475.009591019 330.725517308 430.699741801 358.080409205 c 0
 386.382328735 385.441639526 350.533103686 424.618019452 327.205773899 471.169524653 c 2
 321.121692391 483.310783622 l 1
 332.641202062 490.573201274 l 2
 356.680406359 505.728598216 374.859696883 528.569930671 384.23607417 555.445793026 c 0
 388.915069959 568.857810203 391.251736224 582.870403406 391.251736224 596.832138511 c 0
796.875 222.5 m 0
 780.441476836 222.5 764.762516471 228.984206338 753.129297539 240.622596738 c 0
 741.488576297 252.258147199 735 267.941840603 735 284.375 c 0
 735 300.808159397 741.483827829 316.487104333 753.124549071 328.122654793 c 0
 764.757768002 339.761045193 780.441476836 346.25 796.875 346.25 c 0
 813.308523164 346.25 828.987483529 339.765793662 840.620702461 328.127403262 c 0
 852.261423703 316.491852801 858.75 300.808159397 858.75 284.375 c 0
 858.75 267.941840603 852.266172171 252.262895667 840.625450929 240.627345207 c 0
 828.992231998 228.988954807 813.308523164 222.5 796.875 222.5 c 0
265.625 -58.75 m 0
 249.191840603 -58.75 233.512895668 -52.2661721719 221.877345207 -40.6254509291 c 0
 210.238954806 -28.9922319982 203.75 -13.3085231637 203.75 3.125 c 0
 203.75 19.5585231637 210.234206337 35.2374835291 221.872596738 46.87070246 c 0
 233.508147199 58.5114237028 249.191840603 65 265.625 65 c 0
 282.058159397 65 297.737104332 58.5161721719 309.372654793 46.8754509291 c 0
 321.011045194 35.2422319982 327.5 19.5585231637 327.5 3.125 c 0
 327.5 -13.3085231637 321.015793663 -28.9874835291 309.377403262 -40.62070246 c 0
 297.741852801 -52.2614237028 282.058159397 -58.75 265.625 -58.75 c 0
EndSplineSet
EndChar

StartChar: uniF024
Encoding: 61476 61476 23
Width: 1000
Flags: H
LayerCount: 2
Fore
SplineSet
531.875 690.625 m 2
 531.875 708.237747165 517.612747165 722.5 500 722.5 c 0
 482.387252835 722.5 468.125 708.237747165 468.125 690.625 c 2
 468.125 659.375 l 2
 468.125 641.762252835 482.387252835 627.5 500 627.5 c 0
 517.612747165 627.5 531.875 641.762252835 531.875 659.375 c 2
 531.875 690.625 l 2
500 535 m 0
 482.387252835 535 468.125 520.737747165 468.125 503.125 c 2
 468.125 471.875 l 2
 468.125 454.262252835 482.387252835 440 500 440 c 0
 517.612747165 440 531.875 454.262252835 531.875 471.875 c 2
 531.875 503.125 l 2
 531.875 520.737747165 517.612747165 535 500 535 c 0
531.875 315.625 m 2
 531.875 333.237747165 517.612747165 347.5 500 347.5 c 0
 482.387252835 347.5 468.125 333.237747165 468.125 315.625 c 2
 468.125 284.375 l 2
 468.125 266.762252835 482.387252835 252.5 500 252.5 c 0
 517.612747165 252.5 531.875 266.762252835 531.875 284.375 c 2
 531.875 315.625 l 2
500 160 m 0
 482.387252835 160 468.125 145.737747165 468.125 128.125 c 2
 468.125 96.875 l 2
 468.125 79.2622528343 482.387252835 65 500 65 c 0
 517.612747165 65 531.875 79.2622528343 531.875 96.875 c 2
 531.875 128.125 l 2
 531.875 145.737747165 517.612747165 160 500 160 c 0
500 -27.5 m 0
 482.387252835 -27.5 468.125 -41.7622528343 468.125 -59.375 c 2
 468.125 -90.625 l 2
 468.125 -108.237747165 482.387252835 -122.5 500 -122.5 c 0
 517.612747165 -122.5 531.875 -108.237747165 531.875 -90.625 c 2
 531.875 -59.375 l 2
 531.875 -41.7622528343 517.612747165 -27.5 500 -27.5 c 0
985 565.624023438 m 2
 985 581.981076182 972.131259315 597.500001549 953.135716811 597.500001549 c 0
 945.164930454 597.500001549 937.241199376 594.471728116 931.232512674 588.796833384 c 2
 649.982489522 323.171811519 l 2
 643.642823076 317.184128636 640 308.748050782 640 299.999023438 c 0
 640 291.250087127 643.642915684 282.813514639 649.983295874 276.824497184 c 2
 931.232509683 11.1992631911 l 2
 937.240893886 5.52465415312 945.164687609 2.49668797815 953.136656249 2.49668797815 c 0
 972.126632445 2.49668797815 985 18.0215524111 985 34.375 c 2
 985 565.624023438 l 2
921.25 491.671944538 m 1
 921.25 108.323851786 l 1
 718.301781765 299.999091323 l 1
 921.25 491.671944538 l 1
46.8647860298 597.502497803 m 0
 27.8794657287 597.502497803 15 581.975977474 15 565.625976562 c 2
 15 34.375 l 2
 15 18.0194548436 27.8754703117 2.49856056863 46.8684213633 2.49856056863 c 0
 54.8353633002 2.49856056863 62.7547936157 5.52569734095 68.7630346249 11.2027584826 c 2
 350.015597675 276.828226563 l 2
 356.356317665 282.81628074 360 291.252781278 360 300.000976562 c 0
 360 308.749080828 356.356755891 317.18557462 350.015322174 323.174963323 c 2
 68.7655573526 588.799741206 l 2
 62.7566053656 594.474886486 54.8342824492 597.502497803 46.8647860298 597.502497803 c 0
78.75 108.330306011 m 1
 78.75 491.673897664 l 1
 281.698361993 300.000908676 l 1
 78.75 108.330306011 l 1
EndSplineSet
EndChar

StartChar: uniF026
Encoding: 61478 61478 24
Width: 1000
Flags: H
LayerCount: 2
Fore
SplineSet
500 721.25 m 0
 611.746658977 721.25 718.835771975 676.897685837 797.867148701 597.86630911 c 0
 876.898665115 518.835805712 921.25 411.74655184 921.25 300 c 0
 921.25 188.253437969 876.8986522 81.164217825 797.867217187 2.1327828125 c 0
 718.835782174 -76.8986522 611.746562031 -121.25 500 -121.25 c 0
 388.25344816 -121.25 281.164262773 -76.8987336015 202.133759375 2.1327828125 c 0
 123.102382648 81.1641595391 78.75 188.253341023 78.75 300 c 0
 78.75 411.746648786 123.102232762 518.835727027 202.13369089 597.866172139 c 0
 281.164136002 676.897630267 388.253351214 721.25 500 721.25 c 0
15 300 m 0
 15 171.396121019 66.1271970572 47.9734186368 157.051843144 -42.9521743942 c 0
 247.975759188 -133.870408759 371.394390448 -185 500 -185 c 0
 628.603653397 -185 752.026739719 -133.869922225 842.952563928 -42.9516735904 c 0
 933.870812563 47.9741506184 985 171.396346603 985 300 c 0
 985 428.605609552 933.87001924 552.024630341 842.951784875 642.948546385 c 0
 752.026191844 733.873192472 628.603878981 785 500 785 c 0
 371.394164866 785 247.975528015 733.872899959 157.051843144 642.948268145 c 0
 66.1272113302 552.024583275 15 428.605835134 15 300 c 0
547.5 112.5 m 0
 547.5 125.072830348 542.46589546 137.214235128 533.590704512 146.087947126 c 0
 524.711117809 154.965314486 512.571566604 160 500 160 c 0
 487.428433396 160 475.288436994 154.964869382 466.408850291 146.087502021 c 0
 457.533659342 137.213790024 452.5 125.072830348 452.5 112.5 c 0
 452.5 99.9271696514 457.53410454 87.7857648719 466.409295488 78.9120528745 c 0
 475.288882191 70.0346855137 487.428433396 65 500 65 c 0
 512.571566604 65 524.711563006 70.0351306184 533.591149709 78.9124979791 c 0
 542.466340658 87.7862099766 547.5 99.9271696514 547.5 112.5 c 0
500 252.5 m 0
 517.366369499 252.5 531.875 267.003834029 531.875 284.375 c 2
 531.875 503.125 l 2
 531.875 520.491369499 517.371165971 535 500 535 c 0
 482.633630501 535 468.125 520.496165971 468.125 503.125 c 2
 468.125 284.375 l 2
 468.125 267.008630501 482.628834029 252.5 500 252.5 c 0
EndSplineSet
EndChar

StartChar: uniF027
Encoding: 61479 61479 25
Width: 1000
Flags: H
LayerCount: 2
Fore
SplineSet
500 252.5 m 0
 517.366369499 252.5 531.875 267.003834029 531.875 284.375 c 2
 531.875 503.125 l 2
 531.875 520.491369499 517.371165971 535 500 535 c 0
 482.633630501 535 468.125 520.496165971 468.125 503.125 c 2
 468.125 284.375 l 2
 468.125 267.008630501 482.628834029 252.5 500 252.5 c 0
547.5 112.5 m 0
 547.5 125.072830348 542.46589546 137.214235128 533.590704512 146.087947126 c 0
 524.711117809 154.965314486 512.571566604 160 500 160 c 0
 487.428433396 160 475.288436994 154.964869382 466.408850291 146.087502021 c 0
 457.533659342 137.213790024 452.5 125.072830348 452.5 112.5 c 0
 452.5 99.9271696514 457.53410454 87.7857648719 466.409295488 78.9120528745 c 0
 475.288882191 70.0346855137 487.428433396 65 500 65 c 0
 512.571566604 65 524.711563006 70.0351306184 533.591149709 78.9124979791 c 0
 542.466340658 87.7862099766 547.5 99.9271696514 547.5 112.5 c 0
756.5 160 m 2
 756.138013621 160 755.846858026 159.751350301 755.846858026 159.385909856 c 0
 755.846858026 159.187300087 755.949251669 159.009563344 756.027720087 158.931304547 c 2
 849.91307603 65.0459697453 l 1
 842.515334096 54.7170957212 l 2
 792.730751706 -14.7931283928 722.9645904 -67.5056256267 642.558994644 -96.426171393 c 0
 596.581726978 -112.95937249 548.358789571 -121.274591172 499.996084896 -121.274591172 c 0
 463.774905682 -121.274591172 427.537869346 -116.609687967 392.164511291 -107.246381504 c 0
 309.567423374 -85.3756289565 235.532131906 -38.8871315988 179.926804554 26.0657740077 c 0
 124.325117334 91.0228715464 89.8257527824 171.299363268 80.956546344 256.303012234 c 0
 79.3900488736 271.655172427 66.2221723406 284.99077415 49.2447742021 284.99077415 c 0
 33.3278373057 284.99077415 22.4298747674 274.678806633 18.7152931454 262.240617534 c 0
 17.8257025662 259.263493801 17.3783514519 256.173891075 17.3783514519 253.116297716 c 0
 17.3783514519 252.037204609 17.4336908575 250.950821083 17.5455856809 249.863917032 c 0
 27.6048954167 153.233721598 66.4580630079 61.8509149243 129.02433019 -12.4262846593 c 0
 191.588645802 -86.6954853989 275.020593055 -140.489232255 368.556272458 -166.821815859 c 0
 411.581809598 -178.934557874 455.823766981 -184.973183329 499.994577461 -184.973183329 c 0
 551.842881353 -184.973183329 603.691740014 -176.65212884 653.463090726 -160.053662987 c 0
 745.641378994 -129.313985255 826.413562115 -71.6293591765 885.387962296 5.53399157402 c 2
 895.800746025 19.1582977253 l 1
 983.917021875 -68.957978125 l 2
 983.999245298 -69.0404217888 984.179369892 -69.1531419737 984.385909856 -69.1531419737 c 0
 984.734422861 -69.1531419737 985.000028054 -68.8635026349 985.000028054 -68.5296246682 c 2
 985.000028054 159.375 l 2
 985.000028054 159.724472358 984.724269565 160 984.375 160 c 2
 756.5 160 l 2
243.5 440 m 2
 243.812383386 440.091430928 244.152814192 440.180974081 244.152814192 440.626646598 c 0
 244.152814192 440.818391703 244.050388959 440.99076 243.969908263 441.071061291 c 2
 150.093018446 534.947936395 l 1
 157.478797995 545.274705591 l 2
 196.449241003 599.763033964 247.878511415 644.167502676 307.449865021 674.77032121 c 0
 366.918707662 705.320997404 432.771299791 721.250135248 499.668691769 721.250135248 c 0
 499.783287743 721.250135248 499.897886147 721.249994903 500.012486957 721.249994903 c 0
 604.21835107 721.249994903 704.628829376 682.679916507 782.041527427 612.915093025 c 0
 859.459841126 543.146121627 908.242593825 447.223126381 919.059681295 343.470228579 c 0
 920.360326842 329.5230685 929.747107427 319.464785004 941.611538567 315.893538483 c 0
 944.60613234 314.992300844 947.717567902 314.538993769 950.796257064 314.538993769 c 0
 966.799997041 314.538993769 977.754459622 324.942402978 981.403218587 337.529175125 c 0
 982.246965624 340.428276622 982.674318368 343.44142671 982.674318368 346.408153717 c 0
 982.674318368 347.592160759 982.607287458 348.784623908 982.455672343 350.123911642 c 0
 972.426725069 446.768819841 933.588911703 538.194751069 871.022494272 612.488051013 c 0
 808.463457119 686.779334293 725.021705779 740.587103275 631.475832717 766.923412533 c 0
 588.45287859 779.034962201 544.215091533 785.073032761 500.048837983 785.073032761 c 0
 448.182485501 785.073032761 396.31646758 776.745132895 346.530469791 760.132571776 c 0
 254.344526277 729.372022846 173.569854309 671.659908631 114.615027569 594.469921753 c 2
 104.203250521 580.837705729 l 1
 16.082978125 668.957978125 l 2
 16.0007717626 669.040368148 15.8222431959 669.152814192 15.6266465978 669.152814192 c 0
 15.2675817959 669.152814192 14.9999720055 668.86605603 14.9999720055 668.529571408 c 2
 14.9999720055 440.625 l 2
 14.9999720055 440.284076367 15.2828093042 440 15.625 440 c 2
 243.5 440 l 2
EndSplineSet
EndChar

StartChar: uniF028
Encoding: 61480 61480 26
Width: 1000
Flags: H
LayerCount: 2
Fore
SplineSet
788.616349345 617.446320399 m 0
 806.200529849 617.446320399 820.494019242 631.638988368 820.494019242 649.316242013 c 0
 820.494019242 659.298462685 816.342638773 667.425839358 809.610150276 673.312383327 c 0
 729.174281502 739.981571445 629.28355422 778.921191163 524.921240219 784.270895089 c 0
 516.635493347 784.695637515 508.35768661 784.906879074 500.095828516 784.906879074 c 0
 404.241949518 784.906879074 310.229402136 756.453625223 230.249431259 702.90111346 c 0
 143.379585457 644.735954499 77.6375351433 560.070309523 42.800425345 461.449811648 c 0
 24.3487327529 409.215351413 15.1028820607 354.555218633 15.1028820607 299.904840402 c 0
 15.1028820607 251.378680917 22.3920833629 202.776502135 37.0074093548 155.806117204 c 0
 68.0850432425 55.9307112397 130.578430762 -31.1676164556 215.177130131 -92.5778870492 c 0
 298.035543186 -152.725809837 397.836777824 -185.094287286 500.094753113 -185.094287286 c 0
 608.870632332 -185.094287286 710.855925691 -149.715679939 795.385996889 -84.8492197575 c 0
 878.317965834 -21.2041516436 938.46700523 67.534655329 966.874102505 168.201796962 c 0
 967.678539285 171.054335369 968.072078113 173.971434435 968.072078113 176.844452945 c 0
 968.072078113 192.654338978 957.210667334 204.041063574 944.83432329 207.528979071 c 0
 941.981284478 208.333025746 939.06098509 208.727079955 936.187375192 208.727079955 c 0
 920.369775415 208.727079955 908.991884464 197.864766302 905.501574732 185.488103755 c 0
 877.942896713 87.5508418826 815.824835654 2.84860249682 730.641868927 -52.8981662117 c 0
 661.724667279 -97.9916217483 581.550941196 -121.647264282 499.992172312 -121.647264282 c 0
 480.744040526 -121.647264282 461.434382666 -120.32886462 442.190151986 -117.664350202 c 0
 341.404303011 -103.702814385 249.056394385 -53.728364159 182.216295026 23.0859341107 c 0
 115.471907102 99.7853314552 78.7507832733 197.937894328 78.7507832733 299.603510027 c 0
 78.7507832733 299.740638263 78.7509838316 299.877772123 78.7509838316 300.014911565 c 0
 78.7509838316 380.039415939 101.505251408 458.299881741 144.387772326 525.826307409 c 0
 187.272193824 593.355725886 248.51914489 647.295033625 320.903941647 681.299506502 c 0
 377.131762227 707.713070636 438.268047654 721.26621874 500.003403165 721.26621874 c 0
 517.744933089 721.26621874 535.520871264 720.14618106 553.230653609 717.890984161 c 0
 632.511926049 707.794661832 707.265670013 675.362544504 768.821693881 624.337102768 c 0
 774.456997162 619.875270436 781.498694208 617.446322491 788.616349345 617.446320399 c 0
500.000976562 65 m 0
 512.572543167 65 524.712539568 70.0351306181 533.592126271 78.9124979791 c 0
 542.46731722 87.7862099761 547.500976562 99.9271696508 547.500976562 112.5 c 0
 547.500976562 125.072830349 542.466872023 137.214235128 533.591681074 146.087947125 c 0
 524.712094371 154.965314486 512.572543167 160 500.000976562 160 c 0
 487.429222139 160 475.288333977 154.964529621 466.410272051 146.087947125 c 0
 457.535081102 137.214235128 452.500976562 125.072830348 452.500976562 112.5 c 0
 452.500976562 99.9271696514 457.535081102 87.7857648723 466.410272051 78.9120528749 c 0
 475.288333977 70.0354703791 487.429222139 65 500.000976562 65 c 0
531.875976562 503.125 m 2
 531.875976562 520.491737539 517.371356764 535 500.000976562 535 c 0
 482.635509577 535 468.125976562 520.496669468 468.125976562 503.125 c 2
 468.125976562 284.375 l 2
 468.125976562 267.008262463 482.630596361 252.5 500.000976562 252.5 c 0
 517.366443549 252.5 531.875976562 267.00333053 531.875976562 284.375 c 2
 531.875976562 503.125 l 2
983.832345129 501.962805838 m 0
 983.832345129 519.397846075 969.402746881 533.831431715 951.958384744 533.831431715 c 0
 944.007590809 533.831431715 936.257303222 530.814399132 930.397059798 525.438016048 c 2
 765.625 360.66595625 l 1
 741.758901786 384.541067163 717.874742688 408.398117191 694.020027053 432.284610682 c 0
 688.812482926 437.878865375 680.786594028 442.419437278 670.702631736 442.419437278 c 0
 655.891005505 442.419437278 645.511939448 433.278282353 641.160481052 422.495252986 c 0
 639.622318754 418.688380911 638.831656544 414.598739022 638.831656544 410.540335291 c 0
 638.831656544 400.301585618 643.500703906 392.320461312 649.165171516 387.043872234 c 2
 743.104521875 293.104521875 l 2
 749.045980353 287.169006177 757.205253912 283.791015625 765.625 283.791015625 c 0
 774.051146458 283.791015625 782.207637081 287.172622666 788.150826241 293.109867316 c 2
 975.438664024 480.397707771 l 2
 980.814591973 486.255929297 983.832345129 494.008897552 983.832345129 501.962805838 c 0
EndSplineSet
EndChar

StartChar: uniF02A
Encoding: 61482 61482 27
Width: 1000
Flags: H
LayerCount: 2
Fore
SplineSet
499.968608109 769.37501051 m 0
 486.524232586 769.37501051 476.11146348 761.174462186 471.396182099 751.623848147 c 2
 350.210658459 506.099274022 l 1
 79.2944819747 466.781035582 l 2
 66.8325453518 464.986516708 57.0681431078 456.075461765 53.4957982514 445.082540585 c 0
 52.4526497089 441.873692237 51.9309441447 438.529572083 51.9309441447 435.228508184 c 0
 51.9309441447 425.151372657 55.9130947237 417.88872444 61.5801875363 412.376797828 c 2
 257.745001628 221.296314047 l 1
 211.408428642 -48.614223598 l 2
 211.104998682 -50.3960418446 210.959131704 -52.166345506 210.959131704 -53.9365847576 c 0
 210.959131704 -72.1841566835 224.858838198 -85.8098122136 242.833484447 -85.8098122136 c 0
 247.946852524 -85.8098122136 253.082518186 -84.5546234259 257.667951115 -82.1473290059 c 2
 499.999999941 45.2603896567 l 1
 742.340036642 -82.1515255496 l 2
 746.92917642 -84.5624153748 752.060722655 -85.8159463994 757.178971477 -85.8159463994 c 0
 771.643103371 -85.8159463994 782.335703175 -76.698368871 786.703744898 -65.9498523275 c 0
 788.26311069 -62.1122313854 789.053107914 -58.0087598358 789.053107914 -53.9467682475 c 0
 789.053107914 -52.1592636922 788.901011751 -50.3520687185 788.592074058 -48.5546500777 c 2
 742.319347177 221.230144209 l 1
 938.34381287 412.363651468 l 2
 943.990230357 417.876092142 947.950198438 425.117334019 947.950198438 435.173839027 c 0
 947.950198438 452.422814384 935.673138155 464.536251639 920.642098538 466.718669057 c 2
 649.723856274 506.101558207 l 1
 528.601694836 751.62815007 l 2
 523.868423094 761.215202867 513.500738513 769.37501051 499.968608109 769.37501051 c 0
EndSplineSet
EndChar

StartChar: uniF02B
Encoding: 61483 61483 28
Width: 1000
Flags: H
LayerCount: 2
Fore
SplineSet
141.25 628.125 m 2
 141.25 644.807097106 155.188049853 658.75 171.875 658.75 c 2
 828.125 658.75 l 2
 844.810425849 658.75 858.75 644.805683346 858.75 628.125 c 2
 858.75 159.375 l 2
 858.75 142.695137558 844.808233659 128.75 828.125 128.75 c 2
 546.890623147 128.75 l 2
 538.459799046 128.741387654 530.294040528 125.3429223 524.354521875 119.395478125 c 2
 328.75 -76.20904375 l 1
 328.75 96.875 l 2
 328.75 114.242181254 314.244976834 128.75 296.875 128.75 c 2
 171.875 128.75 l 2
 154.972177196 128.75 141.25 142.472177196 141.25 159.375 c 2
 141.25 628.125 l 2
77.5 628.125 m 2
 77.5 159.375 l 2
 77.5 134.372019668 87.4716533199 110.310497236 105.139932492 92.6413768767 c 0
 122.808150714 74.9731586551 146.870463139 65 171.875 65 c 2
 265 65 l 1
 265 -46.4375 l 2
 265.010992327 -80.2169216396 286.759325805 -106.244441379 311.946320402 -116.671132656 c 0
 321.232704696 -120.515973773 331.160131791 -122.467165685 341.066024453 -122.467165685 c 0
 346.001873039 -122.467165685 350.968892343 -121.983991274 355.88141443 -121.00686553 c 0
 370.665998544 -118.066136209 384.220263402 -110.817437412 394.834617308 -100.206339193 c 2
 560.040956247 65 l 1
 828.125 65 l 2
 853.127260162 65 877.189069764 74.9731734658 894.858623123 92.6418856172 c 0
 912.527335275 110.311438976 922.5 134.372739838 922.5 159.375 c 2
 922.5 628.125 l 2
 922.5 680.222177196 880.222177196 722.5 828.125 722.5 c 2
 171.875 722.5 l 2
 119.777822804 722.5 77.5 680.222177196 77.5 628.125 c 2
EndSplineSet
EndChar

StartChar: uniF02C
Encoding: 61484 61484 29
Width: 1000
Flags: H
LayerCount: 2
Fore
SplineSet
500 721.25 m 0
 732.64397851 721.25 921.25 532.639918565 921.25 300 c 0
 921.25 67.3561493666 732.643850633 -121.25 500 -121.25 c 0
 267.360081435 -121.25 78.75 67.3560214896 78.75 300 c 0
 78.75 532.640046443 267.359953557 721.25 500 721.25 c 0
15 300 m 0
 15 32.1312466776 232.132192021 -185 500 -185 c 0
 767.868779298 -185 985 32.1312207026 985 300 c 0
 985 567.867807979 767.868753323 785 500 785 c 0
 232.132217996 785 15 567.867782004 15 300 c 0
547.5 112.5 m 0
 547.5 138.743882952 526.243882952 160 500 160 c 0
 473.757051657 160 452.5 138.743675152 452.5 112.5 c 0
 452.5 86.2563248486 473.757051657 65 500 65 c 0
 526.243882952 65 547.5 86.2561170486 547.5 112.5 c 0
358.739772353 440.660710036 m 0
 358.739772353 424.706761337 371.602243409 408.739947906 390.588673127 408.739947906 c 0
 402.316429581 408.739947906 413.556602328 415.217222445 419.125513464 426.355514468 c 0
 425.02809224 438.16067202 433.496107532 449.125426548 445.430606822 457.080927591 c 0
 457.043793123 464.82221616 474.455399914 471.25 500 471.25 c 0
 539.418537356 471.25 577.5 449.734873798 577.5 409.375 c 0
 577.5 395.991349852 573.927486333 386.813894528 570.165910934 381.172339677 c 0
 565.673245824 374.430245755 559.041397748 368.556359965 548.708964209 361.667718705 c 0
 520.732790102 343.018843391 493.520399827 332.11986011 473.486582337 302.06301481 c 0
 469.845172967 296.600405459 468.119726104 290.455591306 468.119726104 284.411151612 c 0
 468.119726104 268.181288104 481.574342779 252.488573807 499.956521041 252.488573807 c 0
 510.298251438 252.488573807 520.394451072 257.494031179 526.513852403 266.673965522 c 0
 531.006190392 273.414793725 537.638860351 279.292002191 547.971699853 286.180914107 c 0
 575.793846233 304.730909006 603.196225867 315.785629562 623.191837891 345.779810962 c 0
 634.835214021 363.241469666 641.25 383.989820883 641.25 409.375 c 0
 641.25 451.83968998 621.433542432 484.12203615 593.356228478 505.180458494 c 0
 566.296066319 525.475799381 531.713491665 535 500 535 c 0
 463.129535701 535 433.482257434 525.736632934 410.037770451 510.106974945 c 0
 386.851528596 494.648895639 371.837557806 474.322419154 362.124620295 454.894753068 c 0
 359.813778219 450.273458735 358.739772353 445.406181118 358.739772353 440.660710036 c 0
EndSplineSet
EndChar

StartChar: uniF02E
Encoding: 61486 61486 30
Width: 1000
Flags: H
LayerCount: 2
Fore
SplineSet
733.75 362.5 m 0
 733.75 273.014106956 695.14586189 201.197626745 646.978123245 153.019079678 c 0
 598.738463707 104.79204549 527.08511264 66.25 437.499023438 66.25 c 0
 348.006202089 66.25 276.198807402 104.850331419 228.021254913 153.020677903 c 0
 179.788248773 201.255487549 141.249023438 272.920560439 141.249023438 362.5 c 0
 141.249023438 441.095357543 172.432441558 516.389532182 228.021355764 571.978446389 c 0
 283.609490557 627.5676104 358.904782207 658.75 437.499023438 658.75 c 0
 516.093308826 658.75 591.388751091 627.56725767 646.979620798 571.978446389 c 0
 702.567567357 516.389470614 733.75 441.095214786 733.75 362.5 c 0
77.5357504302 362.453843656 m 0
 77.5357504302 163.954403534 238.754540691 2.46406959103 437.555849181 2.46406959103 c 0
 517.13679076 2.46406959103 594.939920445 28.9044438848 658.312936495 78.1047698758 c 2
 668.750758185 86.2082855647 l 1
 735.32267529 19.6277359634 801.911903886 -46.9355021457 868.472878293 -113.526994444 c 0
 873.697010596 -119.131322866 881.695455094 -123.669657172 891.807578389 -123.669657172 c 0
 906.603563484 -123.669657172 916.992047876 -114.520204025 921.339195261 -103.746055159 c 0
 922.87896346 -99.9320499688 923.669657172 -95.8494664481 923.669657172 -91.8075783887 c 0
 923.669657172 -81.5574036399 919.00370605 -73.5780512709 913.333009292 -68.2920530419 c 2
 713.791714435 131.249241815 l 1
 721.895230124 141.687063505 l 2
 771.095556115 205.060079555 797.535930409 282.86320924 797.535930409 362.444150818 c 0
 797.535930409 561.306367323 636.064392893 722.463273007 437.545295375 722.463273007 c 0
 433.793307213 722.463273007 430.035485397 722.404598796 426.273149199 722.286760866 c 0
 334.746882653 719.42009089 247.70194332 681.748798437 182.975538272 617.023330461 c 0
 118.250274445 552.298066633 80.579872983 465.252236598 77.7122575501 373.725713945 c 0
 77.5944197259 369.963419648 77.5357504302 366.205793388 77.5357504302 362.453843656 c 0
EndSplineSet
EndChar

StartChar: uniF02F
Encoding: 61487 61487 31
Width: 1000
Flags: H
LayerCount: 2
Fore
SplineSet
203.751953125 300 m 0
 203.751953125 308.854863395 204.583064535 317.459527546 204.583064535 326.230998531 c 0
 204.583064535 351.843658881 195.809419029 378.59776909 175.625684761 398.541631359 c 2
 124.695723643 448.86515558 l 2
 118.745812995 454.743450142 116.002836115 462.015000514 116.002836115 468.448827245 c 0
 116.002836115 471.835898175 116.584522341 474.787750597 117.986930422 477.791437653 c 0
 128.482226571 500.301032672 140.917146972 521.740530761 155.076889493 541.890037784 c 0
 159.069322324 547.56796238 166.135485687 551.711030251 175.294196763 551.711030251 c 0
 178.004227226 551.711030251 180.765142581 551.32700787 183.521811317 550.570802616 c 2
 252.458273457 531.655780372 l 2
 260.850938319 529.353010844 269.19037787 528.303911277 277.358473992 528.303911277 c 0
 298.592252724 528.303911277 319.135155091 535.493796572 335.740044125 546.581159471 c 0
 346.27884399 553.618341499 357.289578051 559.995065903 368.713911351 565.653222872 c 0
 393.54603828 577.953256452 415.290249092 600.150948303 423.171175689 630.285286481 c 2
 441.239458055 699.367023279 l 2
 444.525472091 711.931722146 454.197639186 718.883311007 462.986400304 719.649232975 c 0
 475.172185774 720.708338217 487.51747297 721.25 500 721.25 c 0
 512.48252703 721.25 524.831880802 720.707984223 537.017666272 719.648878981 c 0
 545.806141677 718.882644661 555.473184822 711.930000183 558.760538504 699.367036439 c 2
 576.82687928 630.287208656 l 2
 584.708716553 600.151760276 606.452497618 577.955450036 631.286953077 565.654254977 c 0
 642.709057988 559.996692206 653.723138833 553.619932813 664.264743457 546.58122306 c 0
 680.868152266 535.494639644 701.409567638 528.30486688 722.643772002 528.30486688 c 0
 730.812144997 528.30486688 739.151768051 529.353851275 747.5455012 531.656720827 c 2
 816.475638647 550.570370788 l 2
 819.233017869 551.327275143 821.993964551 551.711429305 824.704883001 551.711429305 c 0
 833.865880234 551.711429305 840.934232252 547.55721215 844.924253745 541.88702228 c 0
 859.085577431 521.736706296 871.523520727 500.284187447 882.021885349 477.776698169 c 0
 883.413214341 474.78416672 883.996532161 471.833368549 883.996532161 468.452434441 c 0
 883.996532161 462.021653223 881.256468485 454.74764776 875.303227328 448.86604887 c 2
 824.378549844 398.545862064 l 2
 804.192996649 378.599445132 795.41978519 351.839112984 795.41978519 326.220720979 c 0
 795.41978519 317.451040814 796.25 308.84928341 796.25 300 c 0
 796.25 291.151705166 795.41978519 282.547935836 795.41978519 273.779279021 c 0
 795.41978519 248.160887016 804.192556536 221.40098975 824.378109731 201.454572817 c 2
 875.306557249 151.133589405 l 2
 881.256169803 145.250956185 883.996532161 137.977449913 883.996532161 131.546638064 c 0
 883.996532161 128.165861088 883.401030637 125.19111559 882.013981135 122.203399258 c 0
 871.515440189 99.6965445486 859.084303608 78.2624578589 844.923389583 58.1127247874 c 0
 840.926825232 52.4271723195 833.855852054 48.2883190191 824.699491122 48.2883190191 c 0
 821.994276992 48.2883190191 819.228257284 48.67347137 816.476196798 49.426546323 c 2
 747.545566848 68.3452142845 l 2
 739.153235302 70.6479338395 730.81456562 71.696936836 722.647443738 71.696936836 c 0
 701.412703602 71.696936836 680.869371342 64.5048440345 664.264555468 53.4166982913 c 0
 653.720682557 46.3764739856 642.702348228 40.0021439721 631.285568526 34.3431061951 c 0
 606.452653534 22.0461376206 584.708945968 -0.149339593407 576.826957781 -30.2878850653 c 2
 558.759643555 -99.3724098971 l 2
 555.471622346 -111.932543291 545.799370282 -118.883233002 537.009887426 -119.649555157 c 0
 524.829046211 -120.705194325 512.48501244 -121.25 500 -121.25 c 0
 487.51498756 -121.25 475.163746341 -120.704567955 462.982905126 -119.648928788 c 0
 454.193137014 -118.882919063 444.526151543 -111.930891166 441.239469929 -99.3690218061 c 2
 423.171146439 -30.2822449584 l 2
 415.290260931 -0.149743895828 393.54266069 22.0485138412 368.710629681 34.3454734421 c 0
 357.29162219 40.0051057906 346.281835533 46.376678854 335.740248189 53.4167511438 c 0
 319.133907467 64.5050833602 298.589345499 71.696936836 277.355046564 71.696936836 c 0
 269.188110716 71.696936836 260.850425989 70.6480597036 252.459090729 68.3454204575 c 2
 183.511371435 49.4234072501 l 2
 180.759271334 48.6704295036 178.004212222 48.2883190191 175.299014988 48.2883190191 c 0
 166.143375408 48.2883190191 159.072126645 52.4229561307 155.074478484 58.1143686636 c 0
 140.915145623 78.2632927324 128.482148024 99.6972188145 117.986675559 122.206179301 c 0
 116.588795143 125.204574058 116.002836115 128.16301741 116.002836115 131.550016743 c 0
 116.002836115 137.98415953 118.750388903 145.258229691 124.69533359 151.137388736 c 2
 175.625560469 201.458245827 l 2
 195.809294737 221.402108096 204.583064535 248.156341119 204.583064535 273.769001469 c 0
 204.583064535 282.542315778 203.751953125 291.143364332 203.751953125 300 c 0
860 300 m 0
 860 308.882437852 859.163350553 317.638989468 859.163350553 326.41560523 c 0
 859.163350553 337.85225395 863.04211257 347.127713182 869.198902415 353.202386429 c 2
 920.115717984 403.514810506 l 2
 937.249371766 420.443183028 947.829237232 444.279507257 947.829237232 468.671772038 c 0
 947.829237232 480.634769022 945.324523351 492.855230882 939.772578211 504.760242609 c 0
 927.678275619 530.700286194 913.358177187 555.384924327 897.068214124 578.568069991 c 0
 879.673746824 603.319853877 852.276435041 615.390583418 824.540276068 615.390583418 c 0
 816.135736669 615.390583418 807.705900896 614.263893141 799.616330555 612.044374874 c 2
 730.685995976 593.130402778 l 2
 728.120945543 592.427402308 725.446763703 592.08573265 722.630687566 592.08573265 c 0
 715.400546164 592.08573265 707.46090351 594.395225625 699.692811937 599.580860942 c 0
 686.896822499 608.126830886 673.508889001 615.880694435 659.611796308 622.765019582 c 0
 647.997495731 628.513498003 640.865113857 637.378977866 638.501064878 646.400357628 c 2
 620.430027597 715.487910749 l 2
 611.2676948 750.528581619 581.918760053 779.734491856 542.504854206 783.160346098 c 0
 528.488264401 784.378603363 514.311142564 785 500 785 c 0
 485.688857633 785 471.511667397 784.378599976 457.494013925 783.1603326 c 0
 418.079859751 779.733627664 388.7322311 750.529783143 379.567104561 715.488147197 c 2
 361.498759213 646.405193019 l 2
 359.137367497 637.369751476 351.995045118 628.509974123 340.389293585 622.761662302 c 0
 326.492192248 615.878734751 313.109792916 608.127741682 300.309553458 599.580811613 c 0
 292.541846333 594.394774143 284.601998996 592.084756087 277.372340493 592.084756087 c 0
 274.556347965 592.084756087 271.886399953 592.425255837 269.32063429 593.128946842 c 2
 200.382485558 612.044431759 l 2
 192.294042421 614.263802476 183.8648073 615.390460992 175.460620674 615.390460992 c 0
 147.724387987 615.390460992 120.324259246 603.318189016 102.931445363 578.567585409 c 0
 86.6409473703 555.385026514 72.3223309965 530.700736269 60.2256756354 504.759709875 c 0
 54.6747625434 492.855730211 52.1705657026 480.636336064 52.1705657026 468.674174464 c 0
 52.1705657026 444.280698724 62.7504251825 420.443526498 79.8830540122 403.515058957 c 2
 130.81279056 353.191768306 l 2
 136.95433686 347.122475491 140.840269183 337.85096176 140.840269183 326.407730683 c 0
 140.840269183 317.633507817 140.001953125 308.875751934 140.001953125 300 c 0
 140.001953125 291.124290027 140.840269183 282.366941997 140.840269183 273.592269317 c 0
 140.840269183 262.14903824 136.955113466 252.878291924 130.813567167 246.808999109 c 2
 79.8831030596 196.484989506 l 2
 62.7504198949 179.556468278 52.1705657026 155.719776624 52.1705657026 131.325670788 c 0
 52.1705657026 119.363177375 54.6748120874 107.143036537 60.2258761923 95.2379068924 c 0
 72.3222929797 69.2973921138 86.640580241 44.6174783726 102.931382736 21.4354333991 c 0
 120.32465984 -3.31773494421 147.725619444 -15.3912654172 175.461956991 -15.3912654172 c 0
 183.865690881 -15.3912654172 192.294402539 -14.2646802265 200.382426134 -12.0454246269 c 2
 269.319386996 6.86778132734 l 2
 271.887525347 7.57272507091 274.558621164 7.91350593515 277.378423358 7.91350593515 c 0
 284.605177585 7.91350593515 292.543019966 5.60606748797 300.308533054 0.42182279145 c 0
 313.108029255 -8.12742324341 326.49223992 -15.8806723525 340.388346234 -22.762169685 c 0
 351.998033274 -28.5083370714 359.138771374 -37.3730086414 361.499671813 -46.4086840048 c 2
 379.567092532 -115.48614808 l 2
 388.732308848 -150.53236298 418.080187358 -179.734927591 457.495108991 -183.163357499 c 0
 471.510747192 -184.381449729 485.686830417 -185 500 -185 c 0
 514.313169754 -185 528.490347608 -184.381351988 542.504922039 -183.163269889 c 0
 581.92007919 -179.734819496 611.267229408 -150.532643732 620.429598887 -115.487597008 c 2
 638.499363534 -46.4049029369 l 2
 640.864369289 -37.3777604345 648.005998264 -28.5127904087 659.611372255 -22.763276532 c 0
 673.507443306 -15.881332419 686.893430666 -8.12897812237 699.688253329 0.419024419245 c 0
 707.45410939 5.60218089073 715.397475854 7.91350593515 722.624768134 7.91350593515 c 0
 725.444638738 7.91350593515 728.117529503 7.57218250564 730.684802397 6.86797155262 c 2
 799.616471026 -12.0453899781 l 2
 807.70562592 -14.2647942599 816.134921153 -15.3913524225 824.53914002 -15.3913524225 c 0
 852.275733757 -15.3913524225 879.674672986 -3.31926629083 897.069270103 21.4295263861 c 0
 913.360401909 44.6200192969 927.677872454 69.2978726797 939.771992706 95.2375251784 c 0
 945.324101251 107.143713503 947.829237232 119.365638352 947.829237232 131.3288016 c 0
 947.829237232 155.721340397 937.25010539 179.556092105 920.116321111 196.484593559 c 2
 869.190913296 246.805501994 l 2
 863.034123451 252.88017524 859.163350553 262.14774605 859.163350553 273.58439477 c 0
 859.163350553 282.360995514 860 291.117045157 860 300 c 0
608.75 300 m 0
 608.75 239.947929232 560.052070768 191.25 500 191.25 c 0
 439.947929232 191.25 391.25 239.947929232 391.25 300 c 0
 391.25 360.052070768 439.947929232 408.75 500 408.75 c 0
 560.052070768 408.75 608.75 360.052070768 608.75 300 c 0
672.5 300 m 0
 672.5 395.277896792 595.277896792 472.5 500 472.5 c 0
 404.722103208 472.5 327.5 395.277896792 327.5 300 c 0
 327.5 204.722103208 404.722103208 127.5 500 127.5 c 0
 595.277896792 127.5 672.5 204.722103208 672.5 300 c 0
EndSplineSet
EndChar

StartChar: uniF031
Encoding: 61489 61489 32
Width: 1000
Flags: H
LayerCount: 2
Fore
SplineSet
316.815166771 -121.925810034 m 0
 316.815166771 -139.142972487 330.567799686 -153.76338462 348.737029888 -153.76338462 c 0
 365.60856283 -153.76338462 379.69314808 -140.517825865 380.527881236 -123.438695223 c 0
 383.929033777 -53.8124944584 387.343056731 15.800835893 390.736089831 85.4351560984 c 0
 390.781485767 86.6425670111 390.804086068 87.8481339836 390.804086068 89.0389289874 c 0
 390.804086068 125.91464751 369.144412934 157.080724926 341.360566601 174.735734178 c 0
 258.536530319 227.37189718 203.75 319.808613411 203.75 424.98046875 c 0
 203.75 525.504587649 253.78887656 614.375044671 330.539313539 668.009726758 c 0
 333.537193602 670.10084062 336.855563953 671.932777253 339.988827767 673.853164751 c 1
 347.998138707 668.36790566 l 2
 353.745908864 664.431486067 358.75 656.754887318 358.75 646.0546875 c 2
 358.75 469.864257812 l 2
 358.75 438.600314502 374.266087006 409.336921938 400.088910682 391.800652305 c 2
 446.9641269 359.966521093 l 2
 462.965946501 349.099371669 481.517384562 343.65600586 500 343.65600586 c 0
 518.482615438 343.65600586 537.034099442 349.09940287 553.035919043 359.966552294 c 2
 599.9108731 391.800505468 l 2
 625.732354393 409.337006007 641.25 438.600863371 641.25 469.864257812 c 2
 641.25 646.0546875 l 2
 641.25 656.762891646 646.265017048 664.431302643 651.990567308 668.360163307 c 2
 659.880325672 673.774099064 l 1
 663.053683898 671.889917617 666.538777533 670.072173634 669.520021699 667.966669952 c 0
 746.275815164 614.331838851 796.25 525.504281902 796.25 424.98046875 c 0
 796.25 319.809030786 741.468309865 227.372424474 658.641934551 174.736082433 c 0
 630.855771059 157.08066675 609.192992666 125.91367596 609.192992666 89.0384837024 c 0
 609.192992666 87.8748785067 609.214346515 86.7032869952 609.257683689 85.5238131559 c 2
 619.472113443 -123.438586366 l 2
 620.306874634 -140.518290618 634.388446235 -153.76338462 651.264501406 -153.76338462 c 0
 669.431482381 -153.76338462 683.182329905 -139.143393148 683.182329905 -121.934210518 c 0
 683.182329905 -121.409652718 683.169480076 -120.879936539 683.143253831 -120.345377435 c 2
 672.96528962 87.9954808464 l 1
 672.96528962 88.1773621828 l 2
 672.959584872 88.406744145 672.952244581 88.6360444011 672.952244581 88.8653509379 c 0
 672.952244581 100.052490765 679.448040033 112.420194702 692.860947759 120.948548582 c 0
 793.225047335 184.727643785 860 297.037548252 860 424.98046875 c 0
 860 547.249637747 799.005646234 655.258004465 706.003343951 720.247971679 c 0
 691.301677938 730.523073237 675.676512233 734.981613329 660.593369484 734.981613329 c 0
 645.550294784 734.981613329 630.745001604 730.469905189 618.088961464 722.365526544 c 0
 593.6630717 706.722313429 577.5 678.288734749 577.5 646.0546875 c 2
 577.5 469.864257812 l 2
 577.5 459.713358822 572.503076758 450.250895237 564.065761029 444.520832239 c 2
 517.190511947 412.687655271 l 2
 511.996288307 409.159106001 506.033545013 407.405761719 500 407.405761719 c 0
 493.966454987 407.405761719 488.001858329 409.160364829 482.80763469 412.688914099 c 2
 435.934488053 444.520663083 l 2
 427.496272831 450.251336957 422.5 459.714213992 422.5 469.864257812 c 2
 422.5 646.0546875 l 2
 422.5 678.288734749 406.33621784 706.722768405 381.910328077 722.36598152 c 0
 369.256113519 730.469982135 354.451740885 734.981613329 339.408097819 734.981613329 c 0
 324.324382879 734.981613329 308.698220584 730.523587879 293.99379527 720.248019833 c 0
 200.993433421 655.258098484 140 547.249732041 140 424.98046875 c 0
 140 297.0374729 206.770807071 184.729683085 307.13579577 120.950618563 c 0
 320.564277831 112.414054779 327.050415982 100.031573348 327.050415982 88.8545834471 c 0
 327.050415982 88.6335601032 327.058010698 88.4121187739 327.047214075 88.1912413685 c 2
 316.853950157 -120.342647743 l 2
 316.827917116 -120.875319168 316.815166771 -121.403063506 316.815166771 -121.925810034 c 0
344.239154108 641.871572356 m 1
 355.174804688 656.313476562 l 1
 340.175016095 671.313406934 l 1
 325.188693577 656.317165798 l 1
 340.188662725 641.317174663 l 1
 344.239154108 641.871572356 l 1
EndSplineSet
EndChar

StartChar: uniF014
Encoding: 61460 61460 33
Width: 1000
Flags: H
LayerCount: 2
Fore
SplineSet
506.20904375 690 m 1
 702.5 493.70904375 l 1
 702.5 203.290376405 l 1
 683.907607778 213.591335905 664.653439451 224.720496169 643.387138564 231.807553382 c 0
 629.216872317 235.171514143 614.779563203 237.283913548 600.25239073 238.12165794 c 0
 574.06829116 237.909202632 547.522442308 235.937354642 521.83733481 232.774900365 c 1
 494.772263535 243.275680461 470.023726605 256.74451425 450.417333856 277.738045345 c 0
 409.456938568 321.596359476 382.22438963 374.821257228 365.260398218 432.838486189 c 1
 372.220725826 474.323136229 376.7308228 516.909476969 378.133344275 559.254571174 c 0
 378.292841429 566.889925586 379.026611328 574.528299924 379.026611328 582.1875 c 0
 379.026611328 590.356833079 378.61364109 598.698008184 377.995402315 606.721552179 c 0
 378.914596879 610.818089036 379.717683633 615.56424248 379.717683633 619.991007213 c 0
 379.717683633 630.886043416 376.157710471 641.6818872 369.472448844 650.529432494 c 0
 362.804321308 656.638971602 354.005004154 660.059617741 344.97231376 660.05961941 c 0
 344.395196597 660.05961941 343.815364256 660.04573003 343.233470359 660.017655497 c 1
 343.021362162 668.688082277 l 1
 316.908533288 660.659392264 l 2
 303.611482834 656.571060942 296.534104212 642.880018641 293.333267 629.602152147 c 0
 288.72163017 610.471938991 286.405689078 590.897846836 286.405689078 571.317622846 c 0
 286.405689078 561.869013702 286.944739629 552.405014605 288.026655894 542.975345407 c 0
 288.036349263 542.894142183 288.045124594 542.812020921 288.052875952 542.728875686 c 0
 291.849532413 504.00715302 299.622837597 465.320183773 310.085280764 428.330042677 c 1
 289.842570828 369.058940297 266.223848006 311.697835561 238.425154997 255.806369325 c 0
 224.193297357 227.342654045 212.560476061 203.296748552 203.442292398 184.448553883 c 0
 190.714110731 158.138133443 185.502656013 147.170686903 178.222083872 135.2570234 c 1
 162.098833396 129.232504314 146.677319875 122.799481488 131.443478629 115.200049099 c 0
 110.001578234 105.44018542 90.1062663607 92.7480609474 72.2863029811 77.3856092438 c 2
 47.5 56.0175304019 l 1
 47.5 690 l 1
 342.5 690 l 1
 412.33708609 690 l 1
 343.021362162 668.688082277 l 1
 342.5 690 l 1
 412.33708609 690 l 1
 506.20904375 690 l 1
687.5 -90 m 1
 94.5634233197 -90 l 2
 92.5304780287 -90.2038574636 90.4867652069 -90.3061523438 88.4375 -90.3061523438 c 0
 86.0771443093 -90.3061523438 83.7241547277 -90.1704421496 81.3865002643 -89.9001407483 c 2
 17.0513645028 -82.4611126022 l 1
 78.1268046412 -60.8542518298 l 2
 93.0570636707 -55.5723246359 106.747344797 -47.3380602487 118.388057038 -36.6544991329 c 0
 162.871376652 7.53020553726 199.431260701 57.6862762439 229.317079538 113.038096755 c 1
 260.62696571 126.168049021 282.759634508 134.471655955 312.420032515 143.704445378 c 0
 341.258346853 152.681333806 372.524494637 158.429376127 403.921683559 164.708813912 c 0
 437.472887139 171.419054628 469.948425179 175.100509549 502.215878804 177.789464017 c 1
 550.14348082 154.615972825 601.814664133 136.424957549 663.902620205 130 c 0
 676.560080137 130 689.217540068 130 701.875 130 c 1
 701.875 -75 l 1
 687.5 -60.625 l 1
 687.5 -90 l 1
233.787832085 135.628768389 m 0
 231.41674674 135.628768389 227.955229773 135.86748461 224.065762531 138.355020853 c 0
 218.558394303 141.877297098 216.424186726 148.348886924 216.424186726 152.473820466 c 0
 216.424186726 156.620915935 217.479399505 159.036573202 218.346139619 161.043897628 c 0
 219.447292142 163.594108837 220.706118808 165.705725064 222.130031379 167.932846529 c 0
 225.297710672 172.887368801 229.431619777 178.362869141 234.19750033 184.733006185 c 0
 245.231488766 199.481176581 259.597562643 218.887298674 269.039344618 238.497153545 c 0
 291.516500583 284.05796902 310.239738432 331.379888918 325.020940291 379.98953949 c 1
 349.571634958 365.265110788 l 1
 353.097268299 379.386811166 l 1
 367.135142732 333.479971037 390.775659077 291.109069085 422.430645045 255.080288843 c 0
 437.933542855 241.885736547 455.881286942 231.837423072 475.27309392 225.514731484 c 2
 536.901237849 205.420900805 l 1
 472.729062623 196.396688664 l 2
 433.182780472 190.835492736 396.768193215 184.04855895 360.91112992 176.014720653 c 0
 323.094921975 166.868987822 286.048981732 154.789539884 250.110658962 139.887374495 c 0
 244.356061937 137.501176383 240.231800027 135.628768389 233.787832085 135.628768389 c 0
62.5 722.5 m 2
 36.2572594575 722.5 15 701.242740542 15 675 c 2
 15 -75 l 2
 15 -101.242740542 36.2572594575 -122.5 62.5 -122.5 c 2
 687.5 -122.5 l 2
 713.742740542 -122.5 735 -101.242740542 735 -75 c 2
 735 512.54095625 l 1
 525.04095625 722.5 l 1
 62.5 722.5 l 2
EndSplineSet
EndChar

StartChar: uniF032
Encoding: 61490 61490 34
Width: 1000
Flags: H
LayerCount: 2
Fore
SplineSet
140 628.125 m 2
 140 -28.125 l 2
 140 -80.2564598021 182.243540198 -122.5 234.375 -122.5 c 2
 390.625 -122.5 l 2
 408.237747165 -122.5 422.5 -108.237747165 422.5 -90.625 c 0
 422.5 -73.0122528343 408.237747165 -58.75 390.625 -58.75 c 2
 234.375 -58.75 l 2
 217.472586927 -58.75 203.75 -45.0313642745 203.75 -28.125 c 2
 203.75 628.125 l 2
 203.75 645.029075525 217.470924475 658.75 234.375 658.75 c 2
 390.625 658.75 l 2
 408.237747165 658.75 422.5 673.012252835 422.5 690.625 c 0
 422.5 708.237747165 408.237747165 722.5 390.625 722.5 c 2
 234.375 722.5 l 2
 182.243540198 722.5 140 680.256459802 140 628.125 c 2
813.664082868 331.875000002 m 1
 421.875976562 331.875 l 2
 404.263229397 331.875 390.000976562 317.612747165 390.000976562 300 c 0
 390.000976562 282.386332209 404.26295233 268.125 421.875976562 268.125 c 2
 813.663676661 268.125 l 1
 664.961263876 119.41432951 l 2
 658.744731055 113.198128308 655.626464844 105.043270653 655.626464844 96.8750000001 c 0
 655.626464844 88.7067293475 658.744149338 80.5524534096 664.960682159 74.3362522074 c 0
 671.176883362 68.1197193859 679.331729348 65.0014648438 687.5 65.0014648438 c 0
 695.668270652 65.0014648438 703.82254659 68.1191493383 710.038747793 74.3356821599 c 2
 913.164084188 277.459065437 l 2
 919.380234549 283.6748842 922.498535156 291.83033938 922.498535156 300 c 0
 922.498535156 308.16966062 919.380468202 316.324882154 913.164317841 322.540700917 c 2
 710.039032813 525.665985937 l 2
 703.822901589 531.882117161 695.668497232 534.999755859 687.5 534.999755859 c 0
 679.331502768 534.999755859 671.177098411 531.882117161 664.960967187 525.665985937 c 0
 658.744816826 519.450167174 655.626464844 511.29466062 655.626464844 503.125 c 0
 655.626464844 494.95533938 658.744531798 486.800117846 664.960682159 480.584299083 c 2
 813.664082868 331.875000002 l 1
EndSplineSet
EndChar

StartChar: uniF033
Encoding: 61491 61491 35
Width: 1000
Flags: H
LayerCount: 2
Fore
SplineSet
879 785 m 2
 737.965368058 785 602.627260585 728.924890304 502.916350563 629.208283384 c 2
 474.21688593 600.57133145 l 2
 453.22063748 579.575083 433.313906108 557.6126705 414.046305208 535 c 1
 206.874023438 535 l 2
 170.132321888 534.988472589 141.46728344 514.366875381 126.534428462 490.09372153 c 2
 19.6523621365 316.707246855 l 2
 16.6125110213 311.768774853 14.9158359445 306.630038738 14.9158359445 299.988834326 c 0
 14.9158359445 284.196361013 25.175774031 273.293883976 37.4128367716 269.526483252 c 2
 236.067393018 208.431562399 l 1
 238.966626712 204.435321339 241.722475882 200.610591306 245.228545313 197.104521875 c 2
 397.038844997 45.3567217379 l 2
 400.772142301 41.6234244341 404.267768017 39.1056099435 408.368085822 36.1308695754 c 1
 469.464303631 -162.527901539 l 2
 473.241859543 -174.790510024 484.176169796 -185.020222337 499.931353818 -185.020222337 c 0
 506.585997574 -185.020222337 511.709061733 -183.320899886 516.653536624 -180.278146107 c 2
 690.029802524 -73.5904680573 l 2
 714.330109569 -58.6384986803 734.925961925 -30.0213682113 734.937500753 6.75479895407 c 2
 734.937500753 214.10978177 l 1
 757.551214301 233.378274168 779.522940542 253.294484292 800.520478125 274.292021875 c 2
 829.13383145 302.967862492 l 2
 928.858079203 402.653181423 984.963915223 537.980749273 985.000000501 679.003913756 c 2
 985.000000501 690.625 l 2
 985.000000501 715.629536861 975.026586972 739.692103653 957.35836875 757.360321875 c 0
 939.689248391 775.028601047 915.627980332 785 890.625 785 c 2
 879 785 l 2
671.25 164.318202744 m 1
 671.25 6.8125 l 2
 671.25 -5.14716462709 664.553359908 -14.4251411819 656.660868854 -19.2825798821 c 2
 518.35335821 -104.437881176 l 1
 475.077445312 36.3667666272 l 1
 631.550830277 137.640775772 l 2
 645.072064723 146.300442777 658.070328972 155.332063407 671.25 164.318202744 c 1
236.302136906 275.082990073 m 1
 95.5617250704 318.284452071 l 1
 180.715612514 456.659518933 l 2
 185.577516514 464.557992426 194.825667343 471.250001045 206.805812299 471.250001045 c 2
 364.11396711 471.250001045 l 1
 320.770599803 406.602263862 278.721916959 340.580022349 236.302136906 275.082990073 c 1
890.5625 721.25 m 2
 907.247925849 721.25 921.1875 707.305683346 921.1875 690.625 c 2
 921.1875 678.955365215 l 2
 921.1875 617.459742645 909.090458989 556.632142808 885.578658183 499.855908744 c 0
 862.067384063 443.067340682 827.572552128 391.433085212 784.092862492 347.94633145 c 2
 755.417021875 319.332978125 l 2
 707.167065458 271.083021708 654.031281097 228.102684498 596.760176442 191.086636118 c 2
 441.78351106 90.7564686284 l 1
 290.69299195 241.846987697 l 1
 391.018979135 396.817192021 l 2
 428.055795377 454.090987351 471.046940898 507.298628159 519.269501563 555.542021875 c 0
 530.276327605 566.548847917 541.283153646 577.555673958 552.289979688 588.5625 c 1
 552.474701366 588.5625 l 1
 639.822618335 673.597175341 756.88557792 721.232141792 878.9375 721.25 c 2
 890.5625 721.25 l 2
735 487.5 m 0
 735 500.071566604 729.964869382 512.211563006 721.087502021 521.091149709 c 0
 712.213790024 529.966340658 700.072830348 535 687.5 535 c 0
 674.927169652 535 662.785764872 529.96589546 653.912052874 521.090704512 c 0
 645.032493516 512.21410328 639.999023438 500.075261554 639.999023438 487.5 c 0
 639.999023438 474.924738446 645.029822764 462.78856725 653.909382122 453.911966019 c 0
 662.783094119 445.03677507 674.927169652 440 687.5 440 c 0
 700.072830348 440 712.214235128 445.03410454 721.087947126 453.909295488 c 0
 729.965314486 462.788882191 735 474.928433396 735 487.5 c 0
237.337903394 -41.4046665396 m 0
 237.337903394 -17.5891466541 227.080571997 1.46453015062 214.272040733 14.2786816558 c 0
 201.442555313 27.105352358 182.415643312 37.339383654 158.567425446 37.339383654 c 0
 133.471117124 37.339383654 113.745301596 25.9877973213 100.778515422 12.0694151649 c 0
 83.0094749428 -5.60279130594 68.2742019145 -34.6504227083 57.4321248051 -65.680275352 c 0
 44.106357403 -103.818410202 36.5865857016 -143.953272651 33.0507880177 -166.82323552 c 1
 55.9210871196 -163.287395292 96.0591774963 -155.767692625 134.224256485 -142.460164539 c 0
 165.261902481 -131.637853763 194.359792105 -116.930187583 212.08359012 -99.2063895684 c 0
 226.01674731 -86.2260405182 237.337903394 -66.5400111548 237.337903394 -41.4046665396 c 0
EndSplineSet
EndChar

StartChar: uniF034
Encoding: 61492 61492 36
Width: 1000
Flags: H
LayerCount: 2
Fore
SplineSet
171.829164752 658.474035234 m 0
 154.739921572 658.474035234 139.99851154 644.880430712 139.99851154 626.549430532 c 0
 139.99851154 609.919135041 152.907372766 595.902266391 169.793317709 594.791516951 c 0
 504.78952061 572.741450073 772.730688605 304.799895973 794.779759159 -30.1953467639 c 0
 795.891184042 -47.0818550962 809.906197447 -59.9906368614 826.543444459 -59.9906368614 c 0
 844.876228186 -59.9906368614 858.465246302 -45.2469475196 858.465246302 -28.1619287504 c 0
 858.465246302 -27.4616228333 858.442256205 -26.7524205606 858.395043823 -26.0350960757 c 0
 834.238039099 340.925319523 540.915192825 634.250681429 173.956078666 658.403835268 c 0
 173.238704892 658.451049109 172.529524387 658.474035234 171.829164752 658.474035234 c 0
140 -12.4873046875 m 0
 140 -38.7253721738 161.258298422 -59.9873046875 187.5 -59.9873046875 c 0
 213.741701578 -59.9873046875 235 -38.7253721738 235 -12.4873046875 c 0
 235 13.7563704639 213.742948343 35.0126953125 187.5 35.0126953125 c 0
 161.257051657 35.0126953125 140 13.7563704639 140 -12.4873046875 c 0
512.782646752 -59.9867213194 m 0
 531.555315924 -59.9867213194 544.721843181 -44.8961321608 544.721843181 -28.1664746956 c 0
 544.721843181 -26.9148995959 544.647580694 -25.6379672329 544.492431242 -24.3405194697 c 0
 521.421674546 168.56748663 368.550600532 321.438318134 175.644607791 344.509059628 c 0
 174.346509172 344.664312637 173.068908265 344.738629634 171.816781593 344.738629634 c 0
 155.083312803 344.738629634 139.995745366 331.565599345 139.995745366 312.799980445 c 0
 139.995745366 296.911717588 151.873971458 283.150039953 168.106368793 281.208713807 c 0
 331.739418698 261.639361685 461.622783494 131.751790723 481.192113357 -31.8780155118 c 0
 483.133376753 -48.1105048314 496.893751843 -59.9867213194 512.782646752 -59.9867213194 c 0
EndSplineSet
EndChar

StartChar: uniF035
Encoding: 61493 61493 37
Width: 1000
Flags: H
LayerCount: 2
Fore
SplineSet
359.375 722.5 m 2
 341.762252835 722.5 327.5 708.237747165 327.5 690.625 c 2
 327.5 503.125 l 2
 327.5 485.512252835 341.762252835 471.25 359.375 471.25 c 2
 640.625 471.25 l 2
 658.237747165 471.25 672.5 485.512252835 672.5 503.125 c 2
 672.5 690.625 l 2
 672.5 708.237747165 658.237747165 722.5 640.625 722.5 c 2
 359.375 722.5 l 2
391.25 535 m 1
 391.25 658.75 l 1
 608.75 658.75 l 1
 608.75 535 l 1
 391.25 535 l 1
796.9177757 651.645446435 m 0
 780.863123738 651.645446435 764.99278796 638.55308763 764.99278796 619.806984213 c 0
 764.99278796 608.759452487 770.721001111 598.069152888 780.900277892 592.181583389 c 0
 790.208383446 586.792680174 796.25 576.797570908 796.25 565.624023438 c 2
 796.25 -28.125 l 2
 796.25 -45.0297018787 782.529701879 -58.75 765.625 -58.75 c 2
 234.375 -58.75 l 2
 217.472586927 -58.75 203.75 -45.0313642745 203.75 -28.125 c 2
 203.75 565.624023438 l 2
 203.75 576.792911148 209.78287078 586.792516967 219.10409323 592.18241699 c 0
 229.281512057 598.069681448 235.007751123 608.758865316 235.007751123 619.80635293 c 0
 235.007751123 638.533457895 219.136257 651.645446435 203.081342382 651.645446435 c 0
 197.704615342 651.645446435 192.212521163 650.273824459 187.148083608 647.344232612 c 0
 159.062882844 631.097410078 140 600.613249859 140 565.624023438 c 2
 140 -28.125 l 2
 140 -80.2564598021 182.243540198 -122.5 234.375 -122.5 c 2
 765.625 -122.5 l 2
 817.756459802 -122.5 860 -80.2564598021 860 -28.125 c 2
 860 565.624023438 l 2
 860 600.613917366 840.939784695 631.097095076 812.849804282 647.343759708 c 0
 807.786632419 650.273002355 802.293935059 651.645446435 796.9177757 651.645446435 c 0
EndSplineSet
EndChar

StartChar: uniF036
Encoding: 61494 61494 38
Width: 1000
Flags: H
LayerCount: 2
Fore
SplineSet
140 628.125 m 2
 140 -28.125 l 2
 140 -80.2564598021 182.243540198 -122.5 234.375 -122.5 c 2
 390.625 -122.5 l 2
 408.237747165 -122.5 422.5 -108.237747165 422.5 -90.625 c 0
 422.5 -73.0122528343 408.237747165 -58.75 390.625 -58.75 c 2
 234.375 -58.75 l 2
 217.472586927 -58.75 203.75 -45.0313642745 203.75 -28.125 c 2
 203.75 628.125 l 2
 203.75 645.029075525 217.470924475 658.75 234.375 658.75 c 2
 390.625 658.75 l 2
 408.237747165 658.75 422.5 673.012252835 422.5 690.625 c 0
 422.5 708.237747165 408.237747165 722.5 390.625 722.5 c 2
 234.375 722.5 l 2
 182.243540198 722.5 140 680.256459802 140 628.125 c 2
498.832378105 331.875 m 1
 647.538948044 480.583929293 l 2
 653.755098405 486.799748056 656.873535156 494.95533938 656.873535156 503.125 c 0
 656.873535156 511.29466062 653.755468202 519.449882154 647.539317841 525.665700917 c 0
 641.32337784 531.881640918 633.168215649 534.999755859 624.999023438 534.999755859 c 0
 616.829831227 534.999755859 608.674954063 531.881925938 602.459014063 525.665985937 c 2
 399.334014063 322.540985937 l 2
 393.118265278 316.325237152 390.000244141 308.169887176 390.000244141 300 c 0
 390.000244141 291.830112824 393.118265278 283.674762848 399.334014063 277.459014063 c 2
 602.458962688 74.3360185618 l 2
 608.674972667 68.1196769744 616.830057795 65.0014648438 624.999023438 65.0014648438 c 0
 633.16798908 65.0014648438 641.322737814 68.1193405722 647.538747793 74.3356821599 c 0
 653.755280614 80.551883362 656.873535156 88.7067293475 656.873535156 96.8750000001 c 0
 656.873535156 105.043270653 653.755850661 113.197546591 647.53931784 119.413747793 c 2
 498.832784319 268.125 l 1
 890.625 268.125 l 2
 908.237747165 268.125 922.5 282.387252835 922.5 300 c 0
 922.5 317.613667791 908.238024232 331.875 890.625 331.875 c 2
 498.832378105 331.875 l 1
EndSplineSet
EndChar

StartChar: uniF037
Encoding: 61495 61495 39
Width: 1000
Flags: H
LayerCount: 2
Fore
SplineSet
78.75 -90.625 m 2
 78.75 690.625 l 2
 78.75 707.529075525 92.4709244751 721.25 109.375 721.25 c 2
 640.625 721.25 l 2
 657.531364274 721.25 671.25 707.527413073 671.25 690.625 c 2
 671.25 -90.625 l 2
 671.25 -107.529701879 657.529701879 -121.25 640.625 -121.25 c 2
 485 -121.25 l 1
 485 -28.125 l 2
 485 -10.5122528343 470.737747165 3.75 453.125 3.75 c 2
 296.875 3.75 l 2
 279.262252835 3.75 265 -10.5122528343 265 -28.125 c 2
 265 -121.25 l 1
 109.375 -121.25 l 2
 92.4725869268 -121.25 78.75 -107.531364274 78.75 -90.625 c 2
859.417778962 409.999878189 m 0
 843.183610845 409.999878189 827.495317421 396.540331301 827.495317421 378.160644335 c 0
 827.495317421 367.820951338 832.499240715 357.72707594 841.679824968 351.607241299 c 2
 907.599208327 307.661636783 l 2
 916.154631471 301.952892203 921.25 292.415393747 921.25 282.170898438 c 2
 921.25 -90.630859375 l 2
 921.25 -107.536705675 907.528870618 -121.255859375 890.625 -121.255859375 c 2
 731.589744498 -121.255859375 l 1
 733.00455939 -111.380489201 735 -101.601626747 735 -90.625 c 2
 735 690.625 l 2
 735 742.756459802 692.756459802 785 640.625 785 c 2
 109.375 785 l 2
 57.2435401979 785 15 742.756459802 15 690.625 c 2
 15 -90.625 l 2
 15 -142.756459802 57.2435401979 -185 109.375 -185 c 2
 296.875 -185 l 2
 314.487747165 -185 328.75 -170.737747165 328.75 -153.125 c 2
 328.75 -60 l 1
 421.25 -60 l 1
 421.25 -153.125 l 2
 421.25 -170.737747165 435.512252835 -185 453.125 -185 c 2
 640.625 -185 l 2
 647.399647854 -185 654.141065166 -184.085197487 660.260193351 -183.015249784 c 1
 663.752422916 -183.964206353 667.677691353 -185.005859375 671.875 -185.005859375 c 2
 890.625 -185.005859375 l 2
 942.756459802 -185.005859375 985 -142.762319177 985 -90.630859375 c 2
 985 282.170898438 l 2
 985 313.722633974 969.20212001 343.21291797 942.989430826 360.685520487 c 2
 877.069608644 404.632394089 l 2
 871.60827582 408.273860453 865.463003068 409.999878189 859.417778962 409.999878189 c 0
202.5 565.625 m 0
 202.5 548.012252835 216.762252835 533.75 234.375 533.75 c 2
 265.625 533.75 l 2
 283.237747165 533.75 297.5 548.012252835 297.5 565.625 c 0
 297.5 583.237747165 283.237747165 597.5 265.625 597.5 c 2
 234.375 597.5 l 2
 216.762252835 597.5 202.5 583.237747165 202.5 565.625 c 0
234.375 410 m 2
 216.762252835 410 202.5 395.737747165 202.5 378.125 c 0
 202.5 360.512252835 216.762252835 346.25 234.375 346.25 c 2
 265.625 346.25 l 2
 283.237747165 346.25 297.5 360.512252835 297.5 378.125 c 0
 297.5 395.737747165 283.237747165 410 265.625 410 c 2
 234.375 410 l 2
202.5 190.625 m 0
 202.5 173.012252835 216.762252835 158.75 234.375 158.75 c 2
 265.625 158.75 l 2
 283.237747165 158.75 297.5 173.012252835 297.5 190.625 c 0
 297.5 208.237747165 283.237747165 222.5 265.625 222.5 c 2
 234.375 222.5 l 2
 216.762252835 222.5 202.5 208.237747165 202.5 190.625 c 0
484.375 222.5 m 2
 466.762252835 222.5 452.5 208.237747165 452.5 190.625 c 0
 452.5 173.012252835 466.762252835 158.75 484.375 158.75 c 2
 515.625 158.75 l 2
 533.237747165 158.75 547.5 173.012252835 547.5 190.625 c 0
 547.5 208.237747165 533.237747165 222.5 515.625 222.5 c 2
 484.375 222.5 l 2
452.5 378.125 m 0
 452.5 360.512252835 466.762252835 346.25 484.375 346.25 c 2
 515.625 346.25 l 2
 533.237747165 346.25 547.5 360.512252835 547.5 378.125 c 0
 547.5 395.737747165 533.237747165 410 515.625 410 c 2
 484.375 410 l 2
 466.762252835 410 452.5 395.737747165 452.5 378.125 c 0
484.375 597.5 m 2
 466.762252835 597.5 452.5 583.237747165 452.5 565.625 c 0
 452.5 548.012252835 466.762252835 533.75 484.375 533.75 c 2
 515.625 533.75 l 2
 533.237747165 533.75 547.5 548.012252835 547.5 565.625 c 0
 547.5 583.237747165 533.237747165 597.5 515.625 597.5 c 2
 484.375 597.5 l 2
EndSplineSet
EndChar

StartChar: uniF038
Encoding: 61496 61496 40
Width: 1000
Flags: H
LayerCount: 2
Fore
SplineSet
234.375 785 m 2
 182.243540198 785 140 742.756459802 140 690.625 c 2
 140 -90.625 l 2
 140 -142.756459802 182.243540198 -185 234.375 -185 c 2
 765.625 -185 l 2
 817.756459802 -185 860 -142.756459802 860 -90.625 c 2
 860 690.625 l 2
 860 742.756459802 817.756459802 785 765.625 785 c 2
 234.375 785 l 2
203.75 690.625 m 2
 203.75 707.529075525 217.470924475 721.25 234.375 721.25 c 2
 765.625 721.25 l 2
 782.531364274 721.25 796.25 707.527413073 796.25 690.625 c 2
 796.25 -90.625 l 2
 796.25 -107.529701879 782.529701879 -121.25 765.625 -121.25 c 2
 234.375 -121.25 l 2
 217.472586927 -121.25 203.75 -107.531364274 203.75 -90.625 c 2
 203.75 690.625 l 2
500 2.5 m 0
 526.242948343 2.5 547.5 23.7563248486 547.5 50 c 0
 547.5 76.2436751514 526.242948343 97.5 500 97.5 c 0
 473.757051657 97.5 452.5 76.2436751514 452.5 50 c 0
 452.5 23.7563248486 473.757051657 2.5 500 2.5 c 0
EndSplineSet
EndChar

StartChar: uniF039
Encoding: 61497 61497 41
Width: 1000
Flags: H
LayerCount: 2
Fore
SplineSet
499.999511719 778.526367187 m 0
 499.826912247 778.526367187 499.669141133 778.45912082 499.55569375 778.345673437 c 2
 318.527373437 597.317353125 l 1
 318.527373437 597.317353125 318.315222373 597.056581216 318.315222373 596.986443754 c 0
 318.315222373 596.37649347 318.569403261 596.249023438 318.971679688 596.249023438 c 2
 468.125 596.249023438 l 1
 468.125 471.875 l 2
 468.125 454.262252835 482.387252835 440 500 440 c 0
 517.612747165 440 531.875 454.262252835 531.875 471.875 c 2
 531.875 596.249023438 l 1
 681.025390625 596.249023438 l 2
 681.432388742 596.249023438 681.683847139 596.377493454 681.683847139 596.985276277 c 0
 681.683847139 597.055124721 681.471203527 597.316823061 681.471203527 597.316823061 c 1
 500.443300864 778.34570226 l 2
 500.329853482 778.459149642 500.17211119 778.526367187 499.999511719 778.526367187 c 0
531.875 159.375 m 2
 531.875 176.987747165 517.612747165 191.25 500 191.25 c 0
 482.387252835 191.25 468.125 176.987747165 468.125 159.375 c 2
 468.125 35 l 1
 318.97265625 35 l 2
 318.571167392 35 318.316198936 34.872920012 318.316198936 34.2615409305 c 0
 318.316198936 34.1908144167 318.528880065 33.9291870965 318.528880065 33.9291870965 c 1
 499.556583844 -147.095586969 l 2
 499.669611553 -147.208578497 499.82652957 -147.274902344 500.000488281 -147.274902344 c 0
 500.174446993 -147.274902344 500.332989232 -147.206954548 500.446016941 -147.09396302 c 2
 681.47070226 33.9297460104 l 1
 681.47070226 33.9297460104 681.684045365 34.1924631024 681.684045365 34.2635096317 c 0
 681.684045365 34.8756253955 681.429486775 35 681.03125 35 c 2
 531.875 35 l 1
 531.875 159.375 l 2
171.875 347.5 m 2
 154.262252835 347.5 140 333.237747165 140 315.625 c 0
 140 298.012252835 154.262252835 283.75 171.875 283.75 c 2
 828.125 283.75 l 2
 845.737747165 283.75 860 298.012252835 860 315.625 c 0
 860 333.237747165 845.737747165 347.5 828.125 347.5 c 2
 171.875 347.5 l 2
EndSplineSet
EndChar

StartChar: uniF03A
Encoding: 61498 61498 42
Width: 1000
Flags: H
LayerCount: 2
Fore
SplineSet
859.956054688 503.125 m 0
 859.956054688 520.480922544 845.49107447 534.958984375 828.125 534.958984375 c 0
 819.698853542 534.958984375 811.542362919 531.577377334 805.599173759 525.640132684 c 2
 375.000000034 95.0409562162 l 1
 194.602629989 275.438326261 l 2
 188.74434758 280.813573974 180.993036844 283.831495106 173.044084463 283.831495106 c 0
 155.59720055 283.831495106 141.168568285 269.406266249 141.168568285 251.960270193 c 0
 141.168568285 243.504548484 144.58295577 236.620316278 149.725094696 230.220627338 c 0
 217.309903756 162.635818278 284.894712815 95.0510092188 352.479521875 27.479521875 c 0
 358.425672064 21.542621253 366.577505755 18.1689453125 375 18.1689453125 c 0
 383.422494245 18.1689453125 391.582648844 21.550935687 397.528799033 27.487836309 c 2
 850.645478125 480.604521875 l 2
 856.582378747 486.550672064 859.956054688 494.702505756 859.956054688 503.125 c 0
EndSplineSet
EndChar

StartChar: uniF03B
Encoding: 61499 61499 43
Width: 1000
Flags: H
LayerCount: 2
Fore
SplineSet
109.375 660 m 2
 57.2435401979 660 15 617.756459802 15 565.625 c 2
 15 519.375551881 l 2
 14.996634387 519.181019452 14.9926757812 518.987076649 14.9926757812 518.793701172 c 0
 14.9926757812 518.600325676 14.9977011423 518.407206598 14.9977011423 518.214230361 c 2
 14.9977011423 34.375 l 2
 14.9977011423 -17.7564598021 57.2435401979 -60 109.375 -60 c 2
 890.625 -60 l 2
 942.756459802 -60 985 -17.7564598021 985 34.375 c 2
 985 518.307500602 l 2
 985.003691784 518.469087191 985.009521483 518.631367944 985.009521483 518.793579102 c 0
 985.009521483 518.955790351 985.007669379 519.118518641 985.003963671 519.280999701 c 2
 985.003963671 565.625 l 2
 985.003963671 617.756459802 942.756459802 660 890.625 660 c 2
 109.375 660 l 2
78.75 545.606445312 m 1
 78.75 565.625 l 2
 78.75 582.529075525 92.4709244751 596.25 109.375 596.25 c 2
 890.625 596.25 l 2
 907.531364274 596.25 921.25 582.527413073 921.25 565.625 c 2
 921.25 545.606445312 l 1
 921.25 537.012099109 l 1
 500 290.073526393 l 1
 78.75 537.012099109 l 1
 78.75 545.606445312 l 1
500 221.250732422 m 0
 505.539568895 221.250732422 511.15373897 222.715975023 516.136351294 225.636541662 c 2
 921.25 463.117063405 l 1
 921.25 34.375 l 2
 921.25 17.4702981213 907.529701879 3.75 890.625 3.75 c 2
 109.375 3.75 l 2
 92.4725869268 3.75 78.75 17.4686357255 78.75 34.375 c 2
 78.7500000004 463.117063406 l 1
 483.863114514 225.636854794 l 2
 488.845726838 222.716288155 494.460431105 221.250732422 500 221.250732422 c 0
EndSplineSet
EndChar

StartChar: uniF03D
Encoding: 61501 61501 44
Width: 1000
Flags: H
LayerCount: 2
Fore
SplineSet
250 315.000244141 m 0
 258.169887176 315.000244141 266.325237152 318.118265278 272.540985937 324.334014063 c 2
 483.75 535.543028125 l 1
 483.75 34.375 l 2
 483.75 16.7622528343 498.012252835 2.5 515.625 2.5 c 0
 533.237747165 2.5 547.5 16.7622528343 547.5 34.375 c 2
 547.5 535.542758691 l 1
 758.710910963 324.334070286 l 2
 764.927042187 318.117939062 773.081502768 315.000244141 781.25 315.000244141 c 0
 789.418497232 315.000244141 797.572901589 318.117882839 803.789032813 324.334014063 c 0
 810.005183174 330.549832826 813.123535156 338.70533938 813.123535156 346.875 c 0
 813.123535156 355.04466062 810.005468202 363.199882154 803.789317841 369.415700917 c 2
 538.165946651 635.041025223 l 2
 531.950197866 641.256774008 523.794887176 644.374755859 515.625 644.374755859 c 0
 507.455112824 644.374755859 499.299762848 641.256734722 493.084014063 635.040985937 c 2
 227.459014063 369.415985937 l 2
 221.243265278 363.200237152 218.125244141 355.044887176 218.125244141 346.875 c 0
 218.125244141 338.705112824 221.243265278 330.549762848 227.459014063 324.334014063 c 0
 233.674762848 318.118265278 241.830112824 315.000244141 250 315.000244141 c 0
EndSplineSet
EndChar

StartChar: uniF03E
Encoding: 61502 61502 45
Width: 1000
Flags: H
LayerCount: 2
Fore
SplineSet
515.000244141 581.25 m 0
 515.000244141 573.080112824 518.118265278 564.924762848 524.334014063 558.709014063 c 2
 735.539694282 347.5 l 1
 234.375 347.5 l 2
 216.762252835 347.5 202.5 333.237747165 202.5 315.625 c 0
 202.5 298.012252835 216.762252835 283.75 234.375 283.75 c 2
 735.539424853 283.75 l 1
 524.334154622 72.5391733732 l 2
 518.118023398 66.3230421497 515.000244141 58.1684972318 515.000244141 50 c 0
 515.000244141 41.8315027682 518.117882839 33.6770984112 524.334014063 27.4609671877 c 0
 530.549832825 21.2448168262 538.70533938 18.1264648438 546.875 18.1264648438 c 0
 555.04466062 18.1264648438 563.199882154 21.244531798 569.415700917 27.4606821596 c 2
 835.039032813 293.084014063 l 2
 841.255183174 299.299832826 844.373535156 307.45533938 844.373535156 315.625 c 0
 844.373535156 323.79466062 841.255468202 331.949882154 835.039317841 338.165700917 c 2
 569.415946651 603.791025223 l 2
 563.200197866 610.006774008 555.044887176 613.124755859 546.875 613.124755859 c 0
 538.705112824 613.124755859 530.549762848 610.006734722 524.334014063 603.790985937 c 0
 518.118265278 597.575237152 515.000244141 589.419887176 515.000244141 581.25 c 0
EndSplineSet
EndChar

StartChar: uniF03F
Encoding: 61503 61503 46
Width: 1000
Flags: H
LayerCount: 2
Fore
SplineSet
781.25 284.999755859 m 0
 773.081502768 284.999755859 764.927098411 281.882117161 758.710967187 275.665985937 c 2
 547.5 64.4605751469 l 1
 547.5 565.625 l 2
 547.5 583.237747165 533.237747165 597.5 515.625 597.5 c 0
 498.012252835 597.5 483.75 583.237747165 483.75 565.625 c 2
 483.75 64.4603057178 l 1
 272.541070274 275.665901601 l 2
 266.325321489 281.881650386 258.169887176 284.999755859 250 284.999755859 c 0
 241.830112824 284.999755859 233.674762848 281.881734722 227.459014063 275.665985937 c 0
 221.243265278 269.450237152 218.125244141 261.294887176 218.125244141 253.125 c 0
 218.125244141 244.955112824 221.243265278 236.799762848 227.459014063 230.584014063 c 2
 493.083974777 -35.0389935263 l 2
 499.299793539 -41.2551438878 507.45533938 -44.3735351562 515.625 -44.3735351562 c 0
 523.79466062 -44.3735351562 531.949882154 -41.255468202 538.165700917 -35.0393178404 c 2
 803.789032813 230.584014063 l 2
 810.005183174 236.799832826 813.123535156 244.95533938 813.123535156 253.125 c 0
 813.123535156 261.29466062 810.005468202 269.449882154 803.789317841 275.665700917 c 0
 797.573186617 281.881832141 789.418497232 284.999755859 781.25 284.999755859 c 0
EndSplineSet
EndChar

StartChar: uniF040
Encoding: 61504 61504 47
Width: 1000
Flags: H
LayerCount: 2
Fore
SplineSet
484.999755859 50 m 0
 484.999755859 58.1684972318 481.882117161 66.3229015888 475.665985937 72.5390328123 c 2
 264.45724131 283.75 l 1
 765.625 283.75 l 2
 783.237747165 283.75 797.5 298.012252835 797.5 315.625 c 0
 797.5 333.237747165 783.237747165 347.5 765.625 347.5 c 2
 264.456971875 347.5 l 1
 475.665985937 558.709014063 l 2
 481.881734722 564.924762848 484.999755859 573.080112824 484.999755859 581.25 c 0
 484.999755859 589.419887176 481.881734722 597.575237152 475.665985937 603.790985937 c 0
 469.450237152 610.006734722 461.294887176 613.124755859 453.125 613.124755859 c 0
 444.955112824 613.124755859 436.799762848 610.006734722 430.584014063 603.790985937 c 2
 164.959014063 338.165985937 l 2
 158.743265278 331.950237152 155.625244141 323.794887176 155.625244141 315.625 c 0
 155.625244141 307.455112824 158.743265278 299.299762848 164.959014063 293.084014063 c 2
 430.583974777 27.4610064737 l 2
 436.799793539 21.2448561122 444.95533938 18.1264648438 453.125 18.1264648438 c 0
 461.29466062 18.1264648438 469.449882154 21.244531798 475.665700917 27.4606821596 c 0
 481.88183214 33.6768133831 484.999755859 41.8315027682 484.999755859 50 c 0
EndSplineSet
EndChar

StartChar: uniF041
Encoding: 61505 61505 48
Width: 1000
Flags: H
LayerCount: 2
Fore
SplineSet
28.8017865468 444.425852378 m 0
 28.8017865468 409.274439439 48.1083563974 374.903773107 83.6382789571 358.505231423 c 2
 166.60224123 320.213195349 l 2
 188.829822583 309.95487824 209.081399428 295.835575467 226.40790802 278.510120096 c 0
 253.591067266 251.326960848 272.675608232 217.157879342 281.566629095 179.816222806 c 2
 318.087138167 26.4324284571 l 2
 328.989027806 -19.3571195428 368.961621439 -46.1714233993 410.364728183 -46.1714233993 c 0
 433.851930477 -46.1714233993 457.56752082 -37.5157353022 476.630743452 -18.4522049856 c 2
 624.999919262 129.914867359 l 1
 868.085810079 -113.163875708 l 2
 874.302011282 -119.380408529 882.456729347 -122.498535156 890.625 -122.498535156 c 0
 898.793270653 -122.498535156 906.947546591 -119.380850661 913.163747793 -113.16431784 c 0
 919.380280614 -106.948116638 922.498535156 -98.7932706526 922.498535156 -90.6250000001 c 0
 922.498535156 -82.4567293475 919.380850662 -74.3024534096 913.164317841 -68.0862522074 c 2
 670.085170225 175.000043153 l 1
 818.452005128 323.370033252 l 2
 837.5154495 342.432862257 846.171423399 366.148591116 846.171423399 389.635770075 c 0
 846.171423399 431.038872124 819.357260911 471.011475705 773.567897009 481.912784344 c 2
 620.184738269 518.433374593 l 2
 582.842100727 527.324378595 548.673370899 546.408600978 521.490204687 573.591767187 c 0
 504.164751493 590.918273602 490.045022881 611.170467334 479.786725161 633.396954434 c 2
 441.494784443 716.361686665 l 2
 425.09624276 751.891609225 390.725560561 771.198213453 355.574147622 771.198213453 c 0
 331.809374016 771.198213453 307.891085405 762.34771587 289.079034283 743.536006159 c 2
 56.463896875 510.92086875 l 2
 37.6521871635 492.108817628 28.8017865468 468.190625984 28.8017865468 444.425852378 c 0
782.356371156 390.038310936 m 0
 782.356371156 382.390339341 779.431827228 374.510869415 773.373076563 368.45211875 c 2
 431.54788125 26.6269234378 l 2
 425.489286638 20.5683288255 417.609982458 17.6436288438 409.961982097 17.6436288438 c 0
 396.799925555 17.6436288438 383.621306509 26.3962273444 380.102305065 41.1799177794 c 2
 343.581851204 194.565433383 l 2
 331.943545148 243.442800194 306.978342362 288.10368117 271.4913997 323.591548741 c 0
 248.866993277 346.215030173 222.414621722 364.662205935 193.34307127 378.079773401 c 2
 110.379590736 416.371587136 l 2
 98.8621415425 421.687069969 92.5713584844 432.990204122 92.5713584844 444.220331125 c 0
 92.5713584844 451.921448426 95.5013400584 459.794159596 101.546845313 465.838896875 c 2
 334.16042438 698.452475898 l 2
 340.205161659 704.497981153 348.078551574 707.428641516 355.779668875 707.428641516 c 0
 367.009795878 707.428641516 378.312779597 701.138184403 383.628262431 689.62073521 c 2
 421.920224144 606.655957487 l 2
 435.337860712 577.585182985 453.783931254 551.134096871 476.408232813 528.509795313 c 0
 511.89496554 493.023062586 556.557908926 468.056506479 605.434252782 456.418223521 c 2
 758.819216564 419.898877578 l 2
 773.603488771 416.379737656 782.356371156 403.200128874 782.356371156 390.038310936 c 0
EndSplineSet
EndChar

StartChar: uniF042
Encoding: 61506 61506 49
Width: 1000
Flags: H
LayerCount: 2
Fore
SplineSet
296.875 721.25 m 0
 333.462481954 721.25 368.323554196 706.072143112 397.677628213 671.825901181 c 0
 420.518624626 645.17771804 440.609641861 606.722656958 455.599047225 554.112940948 c 2
 461.044650078 535 l 1
 296.875 535 l 2
 245.452767818 535 203.75 576.702767818 203.75 628.125 c 0
 203.75 679.547232182 245.452767818 721.25 296.875 721.25 c 0
140 628.125 m 0
 140 602.443018119 146.170077078 578.205198203 157.105393627 556.81230002 c 2
 168.255094025 535 l 1
 148.628396017 535 129.001698008 535 109.375 535 c 0
 57.2435401979 535 15 492.756459802 15 440.625 c 2
 15 315.625 l 2
 15 277.966339029 37.0442136325 245.476136668 68.9227418443 230.332593113 c 2
 77.5 226.258061139 l 1
 77.5 -90.625 l 2
 77.5 -142.756459802 119.743540198 -185 171.875 -185 c 2
 828.125 -185 l 2
 880.256459802 -185 922.5 -142.756459802 922.5 -90.625 c 2
 922.5 226.25784577 l 1
 931.076981767 230.332461814 l 2
 962.954015492 245.476095854 985 277.966781051 985 315.625 c 2
 985 440.625 l 2
 985 492.756459802 942.756459802 535 890.625 535 c 0
 870.994879295 535 851.36475859 535 831.734637886 535 c 1
 842.892274346 556.815378814 l 2
 853.832483122 578.205643643 860 602.441903457 860 628.125 c 0
 860 714.77409626 789.774982003 785 703.125 785 c 0
 646.128952169 785 594.799520665 761.015295448 553.927672881 713.330400932 c 0
 538.844552442 695.734041271 525.308902128 675.029091098 513.427477162 651.245585984 c 2
 500 624.367288754 l 1
 486.572522838 651.245585984 l 2
 474.691097872 675.029091098 461.155726211 695.733716178 446.072605772 713.330075839 c 0
 405.200814477 761.01490445 353.870055922 785 296.875 785 c 0
 210.225979304 785 140 714.774020696 140 628.125 c 0
703.125 721.25 m 0
 754.550262561 721.25 796.25 679.546733454 796.25 628.125 c 0
 796.25 576.703266546 754.550262561 535 703.125 535 c 2
 538.955349922 535 l 1
 544.400952775 554.112940948 l 2
 559.390358139 606.722656958 579.481641503 645.178028519 602.322637916 671.826211661 c 0
 631.677574168 706.072215259 666.538370446 721.25 703.125 721.25 c 0
468.125 471.25 m 1
 468.125 285 l 1
 109.375 285 l 2
 92.4709244751 285 78.75 298.720924475 78.75 315.625 c 2
 78.75 440.625 l 2
 78.75 457.529075525 92.4709244751 471.25 109.375 471.25 c 2
 468.125 471.25 l 1
531.875 471.25 m 1
 890.625 471.25 l 2
 907.531364274 471.25 921.25 457.527413073 921.25 440.625 c 2
 921.25 315.625 l 2
 921.25 298.722586927 907.531364274 285 890.625 285 c 2
 531.875 285 l 1
 531.875 471.25 l 1
531.875 221.25 m 1
 858.75 221.25 l 1
 858.75 -90.625 l 2
 858.75 -107.529701879 845.029701879 -121.25 828.125 -121.25 c 2
 531.875 -121.25 l 1
 531.875 221.25 l 1
468.125 221.25 m 1
 468.125 -121.25 l 1
 171.875 -121.25 l 2
 154.972586927 -121.25 141.25 -107.531364274 141.25 -90.625 c 2
 141.25 221.25 l 1
 468.125 221.25 l 1
EndSplineSet
EndChar

StartChar: uniF043
Encoding: 61507 61507 50
Width: 1000
Flags: H
LayerCount: 2
Fore
SplineSet
78.75 690.625 m 2
 78.75 708.237747165 64.4877471657 722.5 46.875 722.5 c 0
 29.2613322087 722.5 15 708.238024232 15 690.625 c 2
 15 -90.625 l 2
 15 -108.238024232 29.2613322087 -122.5 46.875 -122.5 c 2
 953.125 -122.5 l 2
 970.737747165 -122.5 985 -108.237747165 985 -90.625 c 0
 985 -73.0122528343 970.737747165 -58.75 953.125 -58.75 c 2
 78.75 -58.75 l 1
 78.75 690.625 l 2
984.998535155 565.625 m 0
 984.998535155 573.79466062 981.8804682 581.949882155 975.66431784 588.165700918 c 0
 969.448186616 594.381832141 961.293497232 597.499755859 953.125 597.499755859 c 0
 944.956502768 597.499755859 936.802098411 594.382117161 930.585967187 588.165985937 c 2
 624.999964893 282.582006982 l 1
 460.040985937 447.540985937 l 2
 453.825237152 453.756734722 445.669887176 456.874755859 437.5 456.874755859 c 0
 429.330112824 456.874755859 421.174762848 453.756734722 414.959014063 447.540985937 c 2
 211.834014063 244.415985937 l 2
 205.618265278 238.200237152 202.500244141 230.044887176 202.500244141 221.875 c 0
 202.500244141 213.705112824 205.618265278 205.549762848 211.834014063 199.334014063 c 0
 218.04969288 193.118666837 226.204886271 190.000976563 234.375 190.000976563 c 0
 242.545113729 190.000976563 250.700592163 193.118951872 256.91627098 199.334299098 c 2
 437.5 379.918028125 l 1
 602.459014063 214.959014063 l 2
 608.404453166 209.012914428 616.570669421 205.625 625 205.625 c 0
 633.429758086 205.625 641.595658626 209.012998317 647.536658447 214.956639169 c 2
 975.664032813 543.084014063 l 2
 981.880183173 549.299832825 984.998535155 557.45533938 984.998535155 565.625 c 0
EndSplineSet
EndChar

StartChar: uniF045
Encoding: 61509 61509 51
Width: 1000
Flags: H
LayerCount: 2
Fore
SplineSet
671.875 222.5 m 2
 654.262252835 222.5 640 208.237747165 640 190.625 c 0
 640 173.012252835 654.262252835 158.75 671.875 158.75 c 2
 765.625 158.75 l 2
 783.237747165 158.75 797.5 173.012252835 797.5 190.625 c 0
 797.5 208.237747165 783.237747165 222.5 765.625 222.5 c 2
 671.875 222.5 l 2
15 565.625 m 2
 15 34.375 l 2
 15 -17.7564598021 57.2435401979 -60 109.375 -60 c 2
 890.625 -60 l 2
 942.756459802 -60 985 -17.7564598021 985 34.375 c 2
 985 565.625 l 2
 985 617.756459802 942.756459802 660 890.625 660 c 2
 109.375 660 l 2
 57.2435401979 660 15 617.756459802 15 565.625 c 2
921.25 565.625 m 2
 921.25 472.5 l 1
 78.75 472.5 l 1
 78.75 565.625 l 2
 78.75 582.529075525 92.4709244751 596.25 109.375 596.25 c 2
 890.625 596.25 l 2
 907.531364274 596.25 921.25 582.527413073 921.25 565.625 c 2
921.25 408.75 m 1
 921.25 34.375 l 2
 921.25 17.4702981213 907.529701879 3.75 890.625 3.75 c 2
 109.375 3.75 l 2
 92.4725869268 3.75 78.75 17.4686357255 78.75 34.375 c 2
 78.75 408.75 l 1
 921.25 408.75 l 1
EndSplineSet
EndChar

StartChar: uniF046
Encoding: 61510 61510 52
Width: 1000
Flags: H
LayerCount: 2
Fore
SplineSet
78.75 300 m 0
 78.75 411.746648786 123.102232762 518.835727027 202.13369089 597.866172139 c 0
 281.164136002 676.897630267 388.253351214 721.25 500 721.25 c 0
 611.746658977 721.25 718.835771975 676.897685837 797.867148701 597.86630911 c 0
 876.898665115 518.835805712 921.25 411.74655184 921.25 300 c 0
 921.25 188.253437969 876.8986522 81.164217825 797.867217187 2.1327828125 c 0
 718.835782174 -76.8986522 611.746562031 -121.25 500 -121.25 c 0
 388.25344816 -121.25 281.164262773 -76.8987336015 202.133759375 2.1327828125 c 0
 123.102382648 81.1641595391 78.75 188.253341023 78.75 300 c 0
500 785 m 0
 371.394164866 785 247.975528015 733.872899959 157.051843144 642.948268145 c 0
 66.1272113302 552.024583275 15 428.605835134 15 300 c 0
 15 171.396121019 66.1271970572 47.9734186368 157.051843144 -42.9521743942 c 0
 247.975759188 -133.870408759 371.394390448 -185 500 -185 c 0
 628.603653397 -185 752.026739719 -133.869922225 842.952563928 -42.9516735904 c 0
 933.870812563 47.9741506184 985 171.396346603 985 300 c 0
 985 428.605609552 933.87001924 552.024630341 842.951784875 642.948546385 c 0
 752.026191844 733.873192472 628.603878981 785 500 785 c 0
484.375 535 m 0
 467.008630501 535 452.5 520.496165971 452.5 503.125 c 2
 452.5 284.375 l 2
 452.502976879 270.106820981 461.765989506 259.109968328 472.508743686 254.804656864 c 2
 628.521079946 192.399725835 l 2
 632.01013897 191.149986809 635.663875227 190.530381078 639.263232535 190.530381078 c 0
 654.068910601 190.530381078 664.524195142 199.726983725 668.853393298 210.552315182 c 0
 670.379485924 214.367217422 671.140845206 218.417052862 671.140845206 222.405413209 c 0
 671.140845206 236.819764905 662.524610111 246.957998528 652.20391635 251.535367002 c 2
 516.25 305.970564278 l 1
 516.25 503.125 l 2
 516.25 520.491369499 501.746165971 535 484.375 535 c 0
EndSplineSet
EndChar

StartChar: uniF048
Encoding: 61512 61512 53
Width: 1000
Flags: H
LayerCount: 2
Fore
SplineSet
171.881991053 706.875051595 m 0
 163.447878896 706.875051595 155.049445628 703.553361944 148.797261751 696.990022073 c 0
 65.941106057 610.019237738 15 492.159299173 15 362.499023438 c 0
 15 247.209811646 55.2805854091 141.224894452 122.475531047 58.0059428029 c 1
 146.479822087 78.6409675731 l 1
 166.020177913 55.8844230519 l 1
 142.027425072 35.2593169667 l 1
 144.260090817 32.8174008472 146.517400426 30.3982372033 148.79898784 28.0023062597 c 0
 155.050951422 21.4398814832 163.447190901 18.1206864681 171.881736152 18.1206864681 c 0
 179.787820649 18.1206864681 187.699088012 21.0425242637 193.865713965 26.9171077565 c 0
 200.42777895 33.1680609804 203.750162403 41.5675637781 203.750162403 50.0033501954 c 0
 203.750162403 57.910606195 200.82787097 65.8225015113 194.953565312 71.9881773554 c 0
 189.970548423 77.2164433985 185.12495306 82.5735095292 180.418748518 88.0468760168 c 0
 117.019197792 161.793612555 78.75 257.627644689 78.75 362.499023438 c 0
 78.75 475.138168056 122.90611599 577.382730929 194.95314687 653.009430305 c 0
 200.828050499 659.176055059 203.750051595 667.087199629 203.750051595 674.992874874 c 0
 203.750051595 683.427155235 200.428354558 691.825561407 193.865022073 698.077738249 c 0
 187.698965435 703.952406706 179.787510336 706.875051595 171.881991053 706.875051595 c 0
796.251656652 674.991948158 m 0
 796.251656652 667.085930156 799.17346094 659.174854282 805.047967132 653.008309472 c 0
 877.096147306 577.381466649 921.25 475.137027309 921.25 362.499023438 c 0
 921.25 249.860099768 877.095996263 147.614432473 805.04768683 71.988466612 c 0
 799.173234363 65.8222994694 796.251656652 57.9120600731 796.251656652 50.0070055087 c 0
 796.251656652 41.5733644126 799.573103596 33.1752821139 806.136239159 26.9229671315 c 0
 812.301604297 21.0473513481 820.211619639 18.1243918171 828.115307188 18.1243918171 c 0
 836.548847245 18.1243918171 844.948548246 21.4468758097 851.202032868 28.0112391593 c 0
 934.057833935 114.976915285 985 232.838758814 985 362.499023438 c 0
 985 492.159205539 934.058532751 610.017615218 851.202295576 696.988485081 c 0
 844.949899564 703.551705701 836.551359847 706.873477424 828.117483619 706.873477424 c 0
 820.212431547 706.873477424 812.302242423 703.951984509 806.136225006 698.077995948 c 0
 799.57304295 691.825294735 796.251656652 683.426621808 796.251656652 674.991948158 c 0
531.875 273.133061139 m 1
 540.452258156 277.207593113 l 2
 572.330786368 292.351136668 594.375 324.841339029 594.375 362.5 c 0
 594.375 414.631459802 552.131459802 456.875 500 456.875 c 0
 447.868540198 456.875 405.625 414.631459802 405.625 362.5 c 0
 405.625 324.841339029 427.669213632 292.351136668 459.547741844 277.207593113 c 2
 468.125 273.133061139 l 1
 468.125 -90.625 l 2
 468.125 -108.237747165 482.387252835 -122.5 500 -122.5 c 0
 517.612747165 -122.5 531.875 -108.237747165 531.875 -90.625 c 2
 531.875 273.133061139 l 1
329.346022078 534.350847178 m 0
 329.346022078 543.410183595 325.515134545 552.377099885 318.114568018 558.663771995 c 0
 312.113679495 563.761438285 304.78100082 566.250318953 297.492902821 566.250318953 c 0
 288.433566404 566.250318953 279.466650115 562.419431421 273.179978005 555.018864894 c 0
 229.127302989 503.158668934 202.5 435.877413194 202.5 362.499023438 c 0
 202.5 289.492582802 228.858782775 222.517741579 272.515616402 170.762399848 c 0
 278.800460184 163.312361545 287.798500679 159.451119376 296.894508259 159.451119376 c 0
 304.14651088 159.451119376 311.446069511 161.915882421 317.436257061 166.969244015 c 0
 324.886160695 173.251825731 328.750864794 182.252108594 328.750864794 191.349104624 c 0
 328.750864794 198.600246428 326.286601418 205.898808669 321.234576865 211.887761662 c 0
 286.899738777 252.590140157 266.25 305.084224258 266.25 362.499023438 c 0
 266.25 420.203963981 287.109572693 472.94028314 321.75952168 513.729236791 c 0
 326.85718797 519.730125314 329.346022078 527.062749179 329.346022078 534.350847178 c 0
703.100826146 565.547332398 m 0
 695.849443675 565.547332398 688.55179368 563.083245296 682.563690902 558.031688649 c 0
 675.111035054 551.744946981 671.247193193 542.743038181 671.247193193 533.645952766 c 0
 671.247193193 526.395776792 673.710882839 519.099204458 678.762908649 513.110950641 c 0
 713.096303577 472.40904592 733.75 419.914409156 733.75 362.499023438 c 0
 733.75 305.08363772 713.097003383 252.589830507 678.763608455 211.887925786 c 0
 673.711705952 205.899818129 671.247193193 198.601941047 671.247193193 191.351708306 c 0
 671.247193193 182.254468305 675.110802199 173.254387249 682.56174622 166.970928164 c 0
 688.551225977 161.917914298 695.853043151 159.451119376 703.10558327 159.451119376 c 0
 712.202289156 159.451119376 721.201790413 163.313150037 727.487047467 170.763242375 c 0
 771.142909181 222.518533919 797.5 289.492445003 797.5 362.499023438 c 0
 797.5 435.505636427 771.142041568 502.480400495 727.486493086 554.232531974 c 0
 721.199952906 561.684513 712.198564159 565.547332398 703.100826146 565.547332398 c 0
EndSplineSet
EndChar

StartChar: uniF049
Encoding: 61513 61513 54
Width: 1000
Flags: H
LayerCount: 2
Fore
SplineSet
391.25 456.25 m 0
 391.25 602.596085183 509.903914817 721.25 656.25 721.25 c 0
 802.593124031 721.25 921.25 602.596241032 921.25 456.25 c 0
 921.25 309.903758968 802.593124031 191.25 656.25 191.25 c 0
 626.798756303 191.25 598.55965234 196.036907642 572.214112855 204.839458716 c 0
 568.884813749 205.95179771 565.465949284 206.48725037 562.117532572 206.48725037 c 0
 553.816595007 206.48725037 545.615100809 203.197072685 539.570342187 197.152314063 c 2
 471.168028125 128.75 l 1
 390.625 128.75 l 2
 373.012252835 128.75 358.75 114.487747165 358.75 96.875 c 2
 358.75 16.3382967823 l 1
 346.17142391 3.75 l 1
 265.625 3.75 l 2
 248.012252835 3.75 233.75 -10.5122528343 233.75 -28.125 c 2
 233.75 -108.661703219 l 1
 221.17142391 -121.25 l 1
 109.375 -121.25 l 2
 92.4725869268 -121.25 78.75 -107.531364274 78.75 -90.625 c 2
 78.75 21.1650574279 l 1
 397.152314063 339.570342187 l 2
 403.197239559 345.615267683 406.48725037 353.816166384 406.48725037 362.11710461 c 0
 406.48725037 365.465554458 405.951937625 368.884202015 404.839514543 372.213945764 c 0
 396.03686234 398.559787925 391.25 426.801544696 391.25 456.25 c 0
656.25 785 m 0
 474.677151179 785 327.5 637.822848821 327.5 456.25 c 0
 327.5 429.788178007 330.635381449 404.0072415 336.57005294 379.283179646 c 2
 338.531153276 371.113162807 l 1
 24.3340479155 56.9140666656 l 2
 18.3904070648 50.9730668461 15 42.8047580859 15 34.375 c 2
 15 -90.625 l 2
 15 -142.756459802 57.2435401979 -185 109.375 -185 c 2
 234.375 -185 l 2
 242.805121853 -185 250.969084699 -181.613576297 256.913612362 -175.666406915 c 2
 288.165985937 -144.414032813 l 2
 294.109626789 -138.473032992 297.5 -130.304758086 297.5 -121.875 c 0
 297.5 -101.25 297.5 -80.625 297.5 -60 c 1
 318.125 -60 338.75 -60 359.375 -60 c 0
 367.805121853 -60 375.969084699 -56.6135762972 381.913612362 -50.666406915 c 2
 413.165985937 -19.4140328125 l 2
 419.109626788 -13.4730329934 422.5 -5.30475808631 422.5 3.125 c 0
 422.5 23.75 422.5 44.375 422.5 65 c 1
 443.125 65 463.75 65 484.375 65 c 0
 492.805121853 65 500.969084699 68.3864237028 506.913612362 74.333593085 c 2
 571.112209298 138.527885916 l 1
 579.280594459 136.568720108 l 2
 604.007280125 130.638089332 629.790287837 127.5 656.25 127.5 c 0
 837.82478669 127.5 985 274.677075615 985 456.25 c 0
 985 637.822924385 837.82478669 785 656.25 785 c 0
687.5 440 m 0
 713.743675152 440 735 461.257051657 735 487.5 c 0
 735 513.742948343 713.743675152 535 687.5 535 c 0
 661.256324848 535 640 513.742948343 640 487.5 c 0
 640 461.257051657 661.256324848 440 687.5 440 c 0
EndSplineSet
EndChar

StartChar: uniF04D
Encoding: 61517 61517 55
Width: 1000
Flags: H
LayerCount: 2
Fore
SplineSet
531.875976562 690.625 m 2
 531.875976562 708.237747166 517.613723728 722.5 500.000976562 722.5 c 0
 482.387010541 722.5 468.125 708.237603876 468.125 690.625 c 2
 468.125 472.505859375 l 1
 250.000976562 472.505859375 l 2
 232.387031706 472.505859375 218.125976562 458.244804231 218.125976562 440.630859375 c 0
 218.125976562 423.016914519 232.387031706 408.755859375 250.000976562 408.755859375 c 2
 468.125 408.755859375 l 1
 468.125 190.625 l 2
 468.125 173.012396124 482.387010541 158.75 500.000976562 158.75 c 0
 517.613723728 158.75 531.875976562 173.012252834 531.875976562 190.625 c 2
 531.875976562 408.755859375 l 1
 750 408.755859375 l 2
 767.613024232 408.755859375 781.875 423.017191584 781.875 440.630859375 c 0
 781.875 458.244527166 767.613024232 472.505859375 750 472.505859375 c 2
 531.875976562 472.505859375 l 1
 531.875976562 690.625 l 2
250 -27.494140625 m 2
 232.387252835 -27.494140625 218.125 -41.7563934593 218.125 -59.369140625 c 0
 218.125 -76.9874115233 232.385590364 -91.244140625 250 -91.244140625 c 2
 750 -91.244140625 l 2
 767.614409636 -91.244140625 781.875 -76.9874115233 781.875 -59.369140625 c 0
 781.875 -41.7563934593 767.612747165 -27.494140625 750 -27.494140625 c 2
 250 -27.494140625 l 2
EndSplineSet
EndChar

StartChar: uniF04E
Encoding: 61518 61518 56
Width: 1000
Flags: H
LayerCount: 2
Fore
SplineSet
500.000976562 596.25 m 0
 597.238761881 596.25 684.828846296 547.50893207 756.978702425 485.453297078 c 0
 828.837300013 423.653884349 881.309935365 352.074138734 907.578083719 312.557023517 c 0
 909.959609956 308.972458255 911.425048828 304.620514379 911.425048828 300 c 0
 911.425048828 295.379485621 909.957619057 291.024545913 907.576092821 287.439980651 c 0
 881.307942594 247.922862616 828.838155049 176.346806499 756.979407431 114.5492624 c 0
 684.829465382 52.4915597827 597.238775139 3.75 500.000976562 3.75 c 0
 402.762136917 3.75 315.175805057 52.4913137054 243.021480536 114.548498701 c 0
 171.162629626 176.34613163 118.696168917 247.919589173 92.4290087431 287.43671426 c 0
 90.0447346646 291.021525258 88.5764160153 295.375909538 88.5764160153 300 c 0
 88.5764160153 304.624090462 90.0424174484 308.974989702 92.4266915269 312.559800701 c 0
 118.693849829 352.076922972 171.162464514 423.653681838 243.021165393 485.453183399 c 0
 315.175403984 547.508300782 402.762150179 596.25 500.000976562 596.25 c 0
500.000976562 660 m 0
 381.34975695 660 278.900438076 600.400384911 201.436825433 533.779223868 c 0
 123.684145621 466.909852053 67.058723092 389.562213043 39.3536846693 347.880783582 c 0
 29.6607266774 333.299232306 24.8266601562 316.607066102 24.8266601562 300 c 0
 24.8266601562 283.392933898 29.6604045754 266.701252267 39.3533625674 252.119700991 c 0
 67.0583070487 210.438412861 123.684063948 133.092112713 201.43703491 66.2196194095 c 0
 278.900910143 -0.398891479079 381.349900099 -60 500.000976562 -60 c 0
 618.651997308 -60 721.098472873 -0.398628398745 798.565582171 66.22019042 c 0
 876.315900594 133.092871699 932.944577521 210.438345003 960.649245018 252.119216418 c 0
 970.341387354 266.700795212 975.174804688 283.392672154 975.174804688 300 c 0
 975.174804688 316.607327846 970.341379245 333.299216988 960.649236909 347.880795782 c 0
 932.944475471 389.561808528 876.3149795 466.909815003 798.564952222 533.779374781 c 0
 721.098105525 600.400843767 618.652140452 660 500.000976562 660 c 0
500 190 m 0
 560.760318667 190 610 239.239681333 610 300 c 0
 610 360.760318667 560.760318667 410 500 410 c 0
 439.239681333 410 390 360.760318667 390 300 c 0
 390 239.239681333 439.239681333 190 500 190 c 0
EndSplineSet
EndChar

StartChar: uniF04F
Encoding: 61519 61519 57
Width: 1000
Flags: H
LayerCount: 2
Fore
SplineSet
109.375 253.75 m 2
 92.6929028942 253.75 78.75 267.688049853 78.75 284.375 c 2
 78.75 628.125 l 2
 78.75 644.807097106 92.6880498534 658.75 109.375 658.75 c 2
 640.625 658.75 l 2
 657.310425849 658.75 671.25 644.805683346 671.25 628.125 c 2
 671.25 284.375 l 2
 671.25 267.698467991 657.314500755 253.75 640.625 253.75 c 2
 421.888219819 253.75 l 2
 413.461656588 253.742716313 405.29575057 250.343973974 399.354521875 244.395478125 c 2
 203.75 48.79095625 l 1
 203.75 221.875 l 2
 203.75 239.241096488 189.246428749 253.75 171.875 253.75 c 2
 109.375 253.75 l 2
109.375 722.5 m 2
 84.3697429845 722.5 60.3074633633 712.528107113 42.639678125 694.860321875 c 0
 24.9718928867 677.192536637 15 653.130257015 15 628.125 c 2
 15 284.375 l 2
 15 232.277822804 57.2778228041 190 109.375 190 c 0
 119.583333333 190 129.791666667 190 140 190 c 1
 140 78.5625 l 2
 140.010992327 44.7830783603 161.759325805 18.7555586207 186.946320402 8.32886734424 c 0
 196.232704696 4.48402622735 206.160131792 2.53283431527 216.066024454 2.53283431527 c 0
 221.001873039 2.53283431527 225.968892343 3.0160087261 230.881414429 3.99313446948 c 0
 245.665998544 6.93386379163 259.220263403 14.1825625878 269.834617308 24.7936608064 c 2
 435.105164155 190 l 1
 640.625 190 l 2
 665.627980332 190 689.689502764 199.97165332 707.358623123 217.639932492 c 0
 725.026841345 235.308150714 735 259.370463139 735 284.375 c 2
 735 628.125 l 2
 735 653.129536861 725.026586972 677.192103653 707.35836875 694.860321875 c 0
 689.689248391 712.528601047 665.627980332 722.5 640.625 722.5 c 2
 109.375 722.5 l 2
890.625 533.75 m 2
 907.310425987 533.75 921.25 519.805683213 921.25 503.125 c 2
 921.25 159.375 l 2
 921.25 142.695961591 907.30902731 128.75 890.625 128.75 c 2
 828.125 128.75 l 2
 810.758139515 128.75 796.25 114.245016442 796.25 96.875 c 2
 796.25 -76.20904375 l 1
 741.344499039 -21.2949058825 686.421679258 33.6019131659 631.527121707 88.5269944435 c 0
 626.303607533 94.1306597511 618.300749064 98.6696571717 608.193392559 98.6696571717 c 0
 593.390346381 98.6696571717 583.010945308 89.5235249704 578.657247088 78.7420800817 c 0
 577.119070146 74.9335947535 576.330562722 70.8514286824 576.330562722 66.7973682642 c 0
 576.330562722 56.560446962 580.999683314 48.5759738074 586.66755585 43.2914878996 c 2
 730.167021875 -100.207978125 l 2
 740.784848906 -110.820920776 754.332250345 -118.066081507 769.119098088 -121.006773237 c 0
 774.032605055 -121.983986803 778.999710228 -122.467165685 783.935135142 -122.467165685 c 0
 813.228641815 -122.467165685 834.70323759 -107.333422786 847.16415017 -88.6919170275 c 0
 855.516770674 -76.1976292265 859.995118601 -61.435549024 860.00000081 -46.4325227639 c 2
 860.00000081 65 l 1
 870.208333873 65 880.416666937 65 890.625 65 c 0
 915.627260162 65 939.689069764 74.9731734658 957.358623123 92.6418856172 c 0
 975.027335275 110.311438976 985 134.372739838 985 159.375 c 2
 985 503.125 l 2
 985 555.222177196 942.722177196 597.5 890.625 597.5 c 2
 859.375 597.5 l 2
 842.006727106 597.5 827.5 582.993926212 827.5 565.625 c 0
 827.5 548.260042759 842.002744322 533.75 859.375 533.75 c 2
 890.625 533.75 l 2
EndSplineSet
EndChar

StartChar: uniF051
Encoding: 61521 61521 58
Width: 1000
Flags: H
LayerCount: 2
Fore
SplineSet
390.625 675.624755859 m 0
 382.455112824 675.624755859 374.299762848 672.506734722 368.084014063 666.290985937 c 2
 102.459014062 400.665985937 l 2
 96.2432652776 394.450237152 93.1252441406 386.294887176 93.1252441406 378.125 c 0
 93.1252441406 369.955112824 96.2432652775 361.799762848 102.459014062 355.584014063 c 2
 368.083974777 89.9610064737 l 2
 374.299793539 83.7448561122 382.45533938 80.6264648438 390.625 80.6264648438 c 0
 398.79466062 80.6264648438 406.949882154 83.744531798 413.165700917 89.9606821596 c 0
 419.38183214 96.1768133831 422.499755859 104.331502768 422.499755859 112.5 c 0
 422.499755859 120.668497232 419.382117161 128.822901589 413.165985937 135.039032813 c 2
 201.957241309 346.25 l 1
 640.625 346.25 l 2
 761.081375845 346.25 858.75 248.583482665 858.75 128.125 c 2
 858.75 -28.125 l 2
 858.75 -45.7377471657 873.012252835 -60 890.625 -60 c 0
 908.237747165 -60 922.5 -45.7377471657 922.5 -28.125 c 2
 922.5 128.125 l 2
 922.5 283.810968469 796.306348555 410 640.625 410 c 2
 201.956971875 410 l 1
 413.165985937 621.209014063 l 2
 419.381734722 627.424762848 422.499755859 635.580112824 422.499755859 643.75 c 0
 422.499755859 651.919887176 419.381734722 660.075237152 413.165985937 666.290985937 c 0
 406.950237152 672.506734722 398.794887176 675.624755859 390.625 675.624755859 c 0
EndSplineSet
EndChar

StartChar: uniF052
Encoding: 61522 61522 59
Width: 1000
Flags: H
LayerCount: 2
Fore
SplineSet
500 2.5 m 0
 664.313053042 2.5 797.5 135.686946958 797.5 300 c 0
 797.5 464.314021215 664.313094602 597.5 500 597.5 c 0
 335.685937225 597.5 202.5 464.314062775 202.5 300 c 0
 202.5 135.686905398 335.685978785 2.5 500 2.5 c 0
EndSplineSet
EndChar

StartChar: uniF056
Encoding: 61526 61526 60
Width: 1000
Flags: H
LayerCount: 2
Fore
SplineSet
937.5 597.5 m 2
 422.5 597.5 l 1
 422.5 612.5 l 2
 422.5 638.575949578 401.075949578 660 375 660 c 2
 125 660 l 2
 98.9240504217 660 77.5 638.575949578 77.5 612.5 c 2
 77.5 597.5 l 1
 62.5 597.5 l 2
 36.4240504217 597.5 15 576.075949578 15 550 c 2
 15 -12.5 l 2
 15 -38.5759495783 36.4240504217 -60 62.5 -60 c 2
 937.5 -60 l 2
 963.575949578 -60 985 -38.5759495783 985 -12.5 c 2
 985 550 l 2
 985 576.075949578 963.575949578 597.5 937.5 597.5 c 2
390 472.5 m 1
 110 472.5 l 1
 110 565 l 1
 390 565 l 1
 390 472.5 l 1
656.25 35 m 0
 526.746438705 35 422.5 139.246438705 422.5 268.75 c 0
 422.5 398.253561295 526.746438705 502.5 656.25 502.5 c 0
 785.753561295 502.5 890 398.253561295 890 268.75 c 0
 890 139.246438705 785.753561295 35 656.25 35 c 0
797.5 268.75 m 0
 797.5 346.054722997 733.554722997 410 656.25 410 c 0
 578.945277003 410 515 346.054722997 515 268.75 c 0
 515 191.445277003 578.945277003 127.5 656.25 127.5 c 0
 733.607883457 127.5 797.5 190.830926089 797.5 268.75 c 0
EndSplineSet
EndChar

StartChar: uniF057
Encoding: 61527 61527 61
Width: 1000
Flags: H
LayerCount: 2
Fore
SplineSet
953.12626211 2.50125264029 m 0
 971.749961217 2.50125264029 985 17.9193641605 985 34.375 c 2
 985 565.625 l 2
 985 582.08580235 971.768339584 597.500195344 953.12499931 597.500195344 c 0
 947.475183436 597.500195344 941.752718223 595.975540781 936.706969123 592.948227426 c 2
 672.5 434.422122902 l 1
 672.5 460.915039062 l 1
 672.5 503.125 l 2
 672.5 555.256459802 630.256459802 597.5 578.125 597.5 c 2
 109.375 597.5 l 2
 57.2435401979 597.5 15 555.256459802 15 503.125 c 2
 15 96.875 l 2
 15 44.7435401979 57.2435401979 2.5 109.375 2.5 c 2
 578.125 2.5 l 2
 630.256459802 2.5 672.5 44.7435401979 672.5 96.875 c 2
 672.5 139.087890625 l 1
 672.5 165.580898581 l 1
 936.707331466 7.05350829621 l 2
 941.754356832 4.02576956399 947.476856192 2.50125264029 953.12626211 2.50125264029 c 0
672.5 239.922385884 m 1
 672.5 360.077711864 l 1
 921.25 509.327711864 l 1
 921.25 90.6690544118 l 1
 672.5 239.922385884 l 1
608.75 503.125 m 2
 608.75 96.875 l 2
 608.75 79.9686357255 595.027413073 66.25 578.125 66.25 c 2
 109.375 66.25 l 2
 92.4725869268 66.25 78.75 79.9686357255 78.75 96.875 c 2
 78.75 503.125 l 2
 78.75 520.029075525 92.4709244751 533.75 109.375 533.75 c 2
 578.125 533.75 l 2
 595.029075525 533.75 608.75 520.029075525 608.75 503.125 c 2
EndSplineSet
EndChar

StartChar: uniF058
Encoding: 61528 61528 62
Width: 1000
Flags: H
LayerCount: 2
Fore
SplineSet
77.4980527643 -90.6233609944 m 0
 77.4980527643 -107.902835209 92.0890607943 -122.500434628 109.373722677 -122.500434628 c 0
 112.267400547 -122.500434628 115.2192501 -122.100266572 118.124635604 -121.269314531 c 2
 321.306264801 -63.2183964821 l 2
 336.754264144 -58.8045617974 350.793544383 -50.5382922564 362.116760858 -39.2142344697 c 2
 900.220673437 498.889678125 l 2
 918.639693154 517.309540104 927.859130859 541.459878843 927.859130859 565.625 c 0
 927.859130859 589.790121157 918.639448842 613.940704213 900.220429125 632.360566192 c 2
 832.358445637 700.221573113 l 2
 813.93896646 718.641473422 789.789080676 727.861572265 765.625 727.861572265 c 0
 741.460919324 727.861572265 717.311232582 718.641672465 698.891753405 700.221772157 c 2
 160.785137455 162.120039018 l 2
 149.462124479 150.797026042 141.191955523 136.750905716 136.778390165 121.307225211 c 2
 78.7278951741 -81.8734136204 l 2
 77.8977984159 -84.7788389413 77.4980527643 -87.7303201678 77.4980527643 -90.6233609944 c 0
864.112548828 565.624511719 m 0
 864.112548828 557.800232235 861.128865568 549.959842759 855.141499007 543.971517759 c 2
 765.625098995 454.457333335 l 1
 654.452638504 565.624966642 l 1
 743.96896302 655.137967434 l 2
 749.956744955 661.127666685 757.797413991 664.111328125 765.622436524 664.111328125 c 0
 773.44753334 664.111328125 781.290179372 661.124036296 787.279326563 655.139678125 c 2
 855.142486425 587.276518193 l 2
 861.129852986 581.288193193 864.112548828 573.448791202 864.112548828 565.624511719 c 0
720.539983406 409.374884793 m 1
 317.043511477 5.87841953209 l 2
 313.346048428 2.17518820808 308.799843058 -0.505417936974 303.798683923 -1.92502776059 c 2
 155.780233973 -44.2204124621 l 1
 198.070953704 103.798290944 l 2
 199.493491698 108.777173921 202.164380565 113.3372383 205.867157813 117.0361625 c 2
 609.374138559 520.543143246 l 1
 720.539983406 409.374884793 l 1
EndSplineSet
EndChar

StartChar: uniF059
Encoding: 61529 61529 63
Width: 1000
Flags: H
LayerCount: 2
Fore
SplineSet
500 721.25 m 0
 732.64397851 721.25 921.25 532.639918565 921.25 300 c 0
 921.25 67.3561493666 732.643850633 -121.25 500 -121.25 c 0
 267.360081435 -121.25 78.75 67.3560214896 78.75 300 c 0
 78.75 532.640046443 267.359953557 721.25 500 721.25 c 0
15 300 m 0
 15 32.1312466776 232.132192021 -185 500 -185 c 0
 767.868779298 -185 985 32.1312207026 985 300 c 0
 985 567.867807979 767.868753323 785 500 785 c 0
 232.132217996 785 15 567.867782004 15 300 c 0
421.25 315.625 m 0
 421.25 298.012252835 435.512252835 283.75 453.125 283.75 c 0
 463.333333333 283.75 473.541666667 283.75 483.75 283.75 c 1
 483.75 128.75 l 1
 473.541666667 128.75 463.333333333 128.75 453.125 128.75 c 0
 435.512252835 128.75 421.25 114.487747165 421.25 96.875 c 0
 421.25 79.2622528343 435.512252835 65 453.125 65 c 2
 578.125 65 l 2
 595.737747165 65 610 79.2622528343 610 96.875 c 0
 610 114.487747165 595.737747165 128.75 578.125 128.75 c 0
 567.916666667 128.75 557.708333333 128.75 547.5 128.75 c 1
 547.5 315.625 l 2
 547.5 333.237747165 533.237747165 347.5 515.625 347.5 c 2
 453.125 347.5 l 2
 435.512252835 347.5 421.25 333.237747165 421.25 315.625 c 0
500 440 m 0
 526.243675152 440 547.5 461.257051657 547.5 487.5 c 0
 547.5 513.742948343 526.243675152 535 500 535 c 0
 473.757259458 535 452.5 513.742740542 452.5 487.5 c 0
 452.5 461.257259458 473.757259458 440 500 440 c 0
EndSplineSet
EndChar

StartChar: uniF05C
Encoding: 61532 61532 64
Width: 1000
Flags: H
LayerCount: 2
Fore
SplineSet
442.105609387 271.643995106 m 1
 424.65744161 271.643995106 410.231004894 257.217247876 410.231004894 239.769390613 c 0
 410.231004894 231.821721801 413.248114002 224.07072244 418.621176215 218.213136552 c 0
 451.740801657 185.183766317 501.071029427 158.737304688 562.5 158.737304688 c 0
 623.991363726 158.737304688 673.484908215 185.31417826 706.582207595 218.41625129 c 2
 862.832978125 374.667021875 l 2
 901.014839651 412.849792277 922.512695312 464.734373026 922.512695312 518.75 c 0
 922.512695312 572.766676505 901.014677142 624.651279108 862.832978125 662.832978125 c 0
 824.651586426 701.015278689 772.766037216 722.51171875 718.75 722.51171875 c 0
 664.73398171 722.51171875 612.848497043 701.015429856 574.666045313 662.832978125 c 2
 496.748891433 584.914850269 l 2
 491.374436879 579.058176139 488.356004894 571.305939634 488.356004894 563.356585938 c 0
 488.356004894 545.907359392 502.781959191 531.481979969 520.230777071 531.481979969 c 0
 528.180672586 531.481979969 535.932711112 534.49975624 541.790137538 539.874181288 c 2
 619.707978125 617.792021875 l 2
 642.522957613 640.608920038 676.377151252 658.8203125 718.75 658.8203125 c 0
 761.080310425 658.8203125 795.004912083 640.581048017 817.792471171 617.79157256 c 0
 840.608225251 594.97389974 858.818359375 561.127298895 858.818359375 518.75 c 0
 858.818359375 476.415268037 840.580776439 442.500565553 817.79292041 419.708876736 c 2
 661.542021875 263.457978125 l 2
 638.733009992 240.6297845 604.879594671 222.40234375 562.5 222.40234375 c 0
 520.297086824 222.40234375 486.427505454 240.561023904 463.667755989 263.248418367 c 0
 457.809476896 268.624863384 444.793676587 270.59735189 442.105609387 271.643995106 c 1
511.643020031 36.6422742548 m 0
 511.643020031 54.0898124836 497.212417945 68.519845129 479.775304388 68.519845129 c 0
 471.821009222 68.519845129 464.06712825 65.5015917135 458.210518955 60.1264752051 c 0
 432.239849634 34.1558058837 406.26266563 8.19188688341 380.292021875 -17.792021875 c 0
 357.485157677 -40.6180708509 323.62527452 -58.849609375 281.25 -58.849609375 c 0
 238.913881388 -58.849609375 204.982996402 -40.5881179993 182.203037323 -17.7870787873 c 0
 159.376036856 5.02074093877 141.151367188 38.8729555605 141.151367188 81.25 c 0
 141.151367188 123.588063514 159.406114555 157.520818528 182.215168523 180.299207438 c 2
 338.457978125 336.542021875 l 2
 361.263934437 359.374838065 395.121144187 377.598632812 437.5 377.598632812 c 0
 479.704252432 377.598632812 513.571795737 359.438047073 536.332359533 336.751450376 c 0
 542.188816711 331.375911796 549.941883766 328.356979969 557.893246378 328.356979969 c 0
 575.343300769 328.356979969 589.768020031 342.781744045 589.768020031 360.231753622 c 0
 589.768020031 368.18036085 586.751178226 375.93081096 581.379134495 381.786553396 c 0
 548.262188515 414.813369163 498.92328858 441.266601562 437.5 441.266601562 c 0
 376.012647615 441.266601562 326.513593321 414.682731758 293.417535556 381.58349183 c 2
 137.166988482 225.333921294 l 2
 98.9845367515 187.151469564 77.48828125 135.26601829 77.48828125 81.25 c 0
 77.48828125 27.2339627851 98.9845941304 -24.6514592463 137.166894694 -62.8328509452 c 0
 175.348593711 -101.014549962 227.233323495 -122.512695312 281.25 -122.512695312 c 0
 335.265626974 -122.512695312 387.150334905 -101.014712471 425.333105306 -62.8328509452 c 2
 503.250516261 15.0845600111 l 2
 508.62636663 20.9442216776 511.643020031 28.6931579158 511.643020031 36.6422742548 c 0
EndSplineSet
EndChar

StartChar: uniF05D
Encoding: 61533 61533 65
Width: 1000
Flags: H
LayerCount: 2
Fore
SplineSet
500 660 m 0
 482.387252835 660 468.125 645.737747165 468.125 628.125 c 2
 468.125 331.875 l 1
 171.875 331.875 l 2
 154.262252835 331.875 140 317.612747165 140 300 c 0
 140 282.387252835 154.262252835 268.125 171.875 268.125 c 2
 468.125 268.125 l 1
 468.125 -28.125 l 2
 468.125 -45.7377471657 482.387252835 -60 500 -60 c 0
 517.612747165 -60 531.875 -45.7377471657 531.875 -28.125 c 2
 531.875 268.125 l 1
 828.125 268.125 l 2
 845.737747165 268.125 860 282.387252835 860 300 c 0
 860 317.612747165 845.737747165 331.875 828.125 331.875 c 2
 531.875 331.875 l 1
 531.875 628.125 l 2
 531.875 645.737747165 517.612747165 660 500 660 c 0
EndSplineSet
EndChar

StartChar: uniF05E
Encoding: 61534 61534 66
Width: 1000
Flags: H
LayerCount: 2
Fore
SplineSet
109.375 660 m 2
 92.0086305014 660 77.5 645.496165972 77.5 628.125 c 0
 77.5 610.758630501 92.0038340287 596.25 109.375 596.25 c 2
 890.625 596.25 l 2
 907.993272894 596.25 922.5 610.756073788 922.5 628.125 c 0
 922.5 645.489957241 907.997255678 660 890.625 660 c 2
 109.375 660 l 2
109.375 347.5 m 2
 92.0086305014 347.5 77.5 332.996165972 77.5 315.625 c 0
 77.5 298.258630501 92.0038340287 283.75 109.375 283.75 c 2
 890.625 283.75 l 2
 907.993272894 283.75 922.5 298.256073788 922.5 315.625 c 0
 922.5 332.989957241 907.997255678 347.5 890.625 347.5 c 2
 109.375 347.5 l 2
922.5 3.125 m 0
 922.5 20.4918604861 907.995016441 35 890.625 35 c 2
 109.375 35 l 2
 92.0100427597 35 77.5 20.497255679 77.5 3.125 c 0
 77.5 -14.2432728952 92.0060737892 -28.75 109.375 -28.75 c 2
 890.625 -28.75 l 2
 907.991860485 -28.75 922.5 -14.2450164427 922.5 3.125 c 0
EndSplineSet
EndChar

StartChar: uniF05F
Encoding: 61535 61535 67
Width: 1000
Flags: H
LayerCount: 2
Fore
SplineSet
30.6252441406 300 m 0
 30.6252441406 291.830112824 33.7432652775 283.674762848 39.9590140623 277.459014063 c 2
 305.583974777 11.8360064737 l 2
 311.799793539 5.61985611221 319.95533938 2.50146484375 328.125 2.50146484375 c 0
 336.29466062 2.50146484375 344.449882154 5.61953179804 350.665700917 11.8356821596 c 0
 356.88183214 18.0518133831 359.999755859 26.2065027682 359.999755859 34.375 c 0
 359.999755859 42.5434972318 356.882117161 50.6979015888 350.665985937 56.9140328123 c 2
 107.582016421 300.000044545 l 1
 350.665985937 543.084014063 l 2
 356.881734722 549.299762848 359.999755859 557.455112824 359.999755859 565.625 c 0
 359.999755859 573.794887176 356.881734722 581.950237152 350.665985937 588.165985937 c 0
 344.450237152 594.381734722 336.294887176 597.499755859 328.125 597.499755859 c 0
 319.955112824 597.499755859 311.799762848 594.381734722 305.584014063 588.165985937 c 2
 39.9590140625 322.540985937 l 2
 33.7432652776 316.325237152 30.6252441406 308.169887176 30.6252441406 300 c 0
671.875 597.499755859 m 0
 663.706502768 597.499755859 655.552098411 594.382117161 649.335967187 588.165985937 c 0
 643.119415232 581.950097187 640.000732422 573.794434059 640.000732422 565.625 c 0
 640.000732422 557.455565941 643.118845184 549.300472831 649.335397139 543.084584081 c 2
 892.414831167 300.000044546 l 1
 649.336124292 56.9141899203 l 2
 643.119189856 50.6979187293 640.000732422 42.5430440689 640.000732422 34.375 c 0
 640.000732422 26.2069559311 643.118462703 18.0528083959 649.335397139 11.8365372049 c 0
 655.551598342 5.62000438338 663.706729348 2.50146484375 671.875 2.50146484375 c 0
 680.043270652 2.50146484375 688.19754659 5.61914933831 694.413747793 11.8356821599 c 2
 960.039072099 277.459053349 l 2
 966.25522246 283.674872112 969.373535156 291.83033938 969.373535156 300 c 0
 969.373535156 308.16966062 966.255468202 316.324882154 960.039317841 322.540700917 c 2
 694.414032813 588.165985937 l 2
 688.197901589 594.382117161 680.043497232 597.499755859 671.875 597.499755859 c 0
EndSplineSet
EndChar

StartChar: uniF060
Encoding: 61536 61536 68
Width: 1000
Flags: H
LayerCount: 2
Fore
SplineSet
736 589.624097872 m 1
 786.88513807 536.763934333 827.556640625 458.735194139 827.556640625 362.499023438 c 0
 827.556640625 263.555622291 784.87228057 184.150691566 731.601498581 130.892455686 c 2
 499.998500174 -100.57954555 l 1
 268.396017527 130.95743875 l 2
 215.068620921 184.279452014 172.458984375 263.527676819 172.458984375 362.561523438 c 0
 172.458984375 461.497494859 215.135118492 540.905685678 268.395478125 594.166045313 c 0
 321.721651593 647.492218779 400.963057066 690.103515625 500 690.103515625 c 0
 598.938680901 690.103515625 678.339713925 647.425476988 731.603982545 594.166584616 c 2
 736 589.771010874 l 1
 736 589.624097872 l 1
891.250344135 362.515869043 m 0
 891.250344135 413.615044275 881.225468673 464.54070948 861.465946436 512.25177747 c 0
 831.843304143 583.7645689 781.715278417 644.840576296 717.387254703 687.825913939 c 0
 653.049269986 730.813196992 577.345753268 753.7734375 500 753.7734375 c 0
 422.654190517 753.7734375 346.948107615 730.812653116 282.61440317 687.82571665 c 0
 218.285296305 644.840283574 168.15538713 583.763507589 138.535814558 512.251313573 c 0
 118.775123024 464.541968563 108.750091373 413.618256093 108.750091373 362.520864684 c 0
 108.750091373 337.031072325 111.243635265 311.461698327 116.270375785 286.194295827 c 0
 131.376082697 210.268713101 168.654893539 140.548509358 223.353970846 85.8550728758 c 2
 444.293532988 -135.146989452 l 2
 457.089819068 -147.953323091 476.221111449 -158.231445312 500 -158.231445312 c 0
 523.752823272 -158.231445312 542.923687885 -147.93980486 555.703785371 -135.149672525 c 2
 776.643967012 85.8530105485 l 2
 831.343037412 140.546440125 868.624039971 210.268970908 883.731681373 286.19481871 c 0
 888.75748495 311.460659181 891.250344135 337.027588802 891.250344135 362.515869043 c 0
500 252.499023438 m 0
 529.149692027 252.499023438 557.18552575 264.11722575 577.78415 284.71585 c 0
 598.382212182 305.313054108 610 333.349993532 610 362.499023438 c 0
 610 391.650040859 598.382692896 419.684630542 577.78415 440.283173437 c 0
 557.18571518 460.881608257 529.150007101 472.499023438 500 472.499023438 c 0
 470.849959776 472.499023438 442.814361321 460.881566279 422.217049141 440.283396019 c 0
 401.618316813 419.684663693 390 391.649725786 390 362.499023438 c 0
 390 333.350308612 401.618352366 305.31346611 422.216603981 284.716072578 c 0
 442.814105588 264.117712884 470.850274854 252.499023438 500 252.499023438 c 0
EndSplineSet
EndChar

StartChar: uniF061
Encoding: 61537 61537 69
Width: 1000
Flags: H
LayerCount: 2
Fore
SplineSet
125 565 m 0
 151.242740542 565 172.5 586.257259458 172.5 612.5 c 0
 172.5 638.742740542 151.242740542 660 125 660 c 0
 98.7572594575 660 77.5 638.742740542 77.5 612.5 c 0
 77.5 586.257259458 98.7572594575 565 125 565 c 0
359.375 628.75 m 2
 341.762252835 628.75 327.5 614.487747165 327.5 596.875 c 0
 327.5 579.262252835 341.762252835 565 359.375 565 c 2
 890.625 565 l 2
 908.237747165 565 922.5 579.262252835 922.5 596.875 c 0
 922.5 614.487747165 908.237747165 628.75 890.625 628.75 c 2
 359.375 628.75 l 2
359.375 316.25 m 2
 341.762252835 316.25 327.5 301.987747165 327.5 284.375 c 0
 327.5 266.762252835 341.762252835 252.5 359.375 252.5 c 2
 890.625 252.5 l 2
 908.237747165 252.5 922.5 266.762252835 922.5 284.375 c 0
 922.5 301.987747165 908.237747165 316.25 890.625 316.25 c 2
 359.375 316.25 l 2
359.375 3.75 m 2
 341.762252835 3.75 327.5 -10.5122528343 327.5 -28.125 c 0
 327.5 -45.7377471657 341.762252835 -60 359.375 -60 c 2
 890.625 -60 l 2
 908.237747165 -60 922.5 -45.7377471657 922.5 -28.125 c 0
 922.5 -10.5122528343 908.237747165 3.75 890.625 3.75 c 2
 359.375 3.75 l 2
172.5 300 m 0
 172.5 326.242740542 151.242740542 347.5 125 347.5 c 0
 98.7572594575 347.5 77.5 326.242740542 77.5 300 c 0
 77.5 273.757259458 98.7572594575 252.5 125 252.5 c 0
 151.242740542 252.5 172.5 273.757259458 172.5 300 c 0
125 -60 m 0
 151.242948343 -60 172.5 -38.7436751514 172.5 -12.5 c 0
 172.5 13.7436751514 151.242948343 35 125 35 c 0
 98.7570516567 35 77.5 13.7436751514 77.5 -12.5 c 0
 77.5 -38.7436751514 98.7570516567 -60 125 -60 c 0
EndSplineSet
EndChar

StartChar: uniF062
Encoding: 61538 61538 70
Width: 1000
Flags: H
LayerCount: 2
Fore
SplineSet
327.5 -28.125 m 0
 327.5 -45.7377471657 341.762252835 -60 359.375 -60 c 2
 890.625 -60 l 2
 908.237747165 -60 922.5 -45.7377471657 922.5 -28.125 c 0
 922.5 -10.5122528343 908.237747165 3.75 890.625 3.75 c 2
 359.375 3.75 l 2
 341.762252835 3.75 327.5 -10.5122528343 327.5 -28.125 c 0
327.5 284.375 m 0
 327.5 266.762252835 341.762252835 252.5 359.375 252.5 c 2
 890.625 252.5 l 2
 908.237747165 252.5 922.5 266.762252835 922.5 284.375 c 0
 922.5 301.987747165 908.237747165 316.25 890.625 316.25 c 2
 359.375 316.25 l 2
 341.762252835 316.25 327.5 301.987747165 327.5 284.375 c 0
327.5 596.875 m 0
 327.5 579.262252835 341.762252835 565 359.375 565 c 2
 890.625 565 l 2
 908.237747165 565 922.5 579.262252835 922.5 596.875 c 0
 922.5 614.487747165 908.237747165 628.75 890.625 628.75 c 2
 359.375 628.75 l 2
 341.762252835 628.75 327.5 614.487747165 327.5 596.875 c 0
14.9999667309 612.469891816 m 0
 14.9999667309 602.816693757 23.1304617495 596.234769975 31.2841887663 596.234769975 c 0
 33.6753578387 596.234769975 36.1517775593 596.774035334 38.5257779951 597.957208698 c 0
 51.5855446609 604.467782648 64.6453113858 610.97835654 77.705078125 617.488930418 c 1
 77.705078125 409.977539062 l 1
 62.2233072917 409.977539062 46.7415364583 409.977539062 31.259765625 409.977539062 c 0
 22.2737472082 409.977539062 15.0068359375 402.710627791 15.0068359375 393.724609375 c 0
 15.0068359375 384.739483622 22.2741627652 377.471679688 31.259765625 377.471679688 c 2
 156.65625 377.471679688 l 2
 165.641852861 377.471679688 172.909179688 384.739483622 172.909179688 393.724609375 c 0
 172.909179688 402.710627791 165.642268418 409.977539062 156.65625 409.977539062 c 0
 141.174479167 409.977539062 125.692708333 409.977539062 110.2109375 409.977539062 c 1
 110.2109375 643.747070312 l 2
 110.2109375 652.195144238 103.350536809 659.999988912 93.9563062474 659.999988912 c 0
 91.5120362208 659.999988912 88.9938336482 659.43132507 86.6925274741 658.284267412 c 2
 23.9945869216 627.031488074 l 2
 18.3201345753 624.202871514 14.9999667309 618.474524566 14.9999667309 612.469891816 c 0
26.4424762202 192.032929095 m 1
 39.0344920796 184.375653275 l 1
 23.4791797954 158.723956101 l 1
 18.2841363904 161.883091278 l 1
 21.1629109884 157.995799725 25.7450477149 155.287891579 31.2310955745 155.287891579 c 0
 37.3542061356 155.287891579 42.0894716887 158.579221519 45.5036866014 163.629835296 c 0
 48.6836853785 168.225745937 51.6873747352 171.680598173 57.362814058 176.381619573 c 0
 65.7721443681 183.360316926 78.0099566861 189.956054688 93.765625 189.956054688 c 0
 109.732606979 189.956054688 121.459022312 183.693110708 128.467634414 175.744240665 c 0
 136.040725482 167.154887632 140.1953125 155.383596544 140.1953125 142.306640625 c 0
 140.1953125 105.156659954 114.671646867 85.5925536098 81.9297605894 61.2914273561 c 0
 51.8769910028 38.9606800799 15.0078125 11.1202998394 15.0078125 -43.744140625 c 0
 15.0078125 -52.5970779956 22.4037971625 -60 31.2607421875 -60 c 2
 156.443359375 -60 l 2
 165.4296911 -60 172.700195312 -52.7298718633 172.700195312 -43.744140625 c 0
 172.700195312 -34.7628199305 165.433149834 -27.494140625 156.448242188 -27.494140625 c 2
 43.5898508444 -27.494140625 l 1
 59.145942632 -4.18307772073 l 2
 69.8200941765 11.8123163346 87.010533911 24.5523982106 106.492261773 39.042999528 c 0
 136.228797371 61.1016105896 172.700195312 88.6545375427 172.700195312 142.306640625 c 0
 172.700195312 161.948529951 166.268466777 182.031813102 152.843786933 197.257828249 c 0
 139.072630568 212.875225785 119.036597266 222.46107054 93.7631177186 222.461914119 c 0
 68.1699405702 222.461914119 49.0260046931 211.710613362 36.5761125204 201.379779402 c 0
 32.4762179297 197.977596011 29.233121564 195.013857562 26.4424762202 192.032929095 c 1
26.4424762202 192.032929095 m 1
 22.9796511376 188.333987599 20.2134900878 184.608577675 17.3714331613 179.986147235 c 0
 15.7487689418 177.313024235 15.0134020334 174.424243896 15.0134020334 171.579558521 c 0
 15.0134020334 168.116076513 16.2041599609 164.691742853 18.2841363904 161.883091278 c 1
 -3.21906239206 174.959307663 l 1
 12.3362498921 200.611004837 l 1
 26.4424762202 192.032929095 l 1
EndSplineSet
EndChar

StartChar: uniF063
Encoding: 61539 61539 71
Width: 1000
Flags: H
LayerCount: 2
Fore
SplineSet
109.375 628.75 m 2
 91.7622528343 628.75 77.5 614.487747165 77.5 596.875 c 0
 77.5 579.262252835 91.7622528343 565 109.375 565 c 2
 765.625 565 l 2
 783.237747165 565 797.5 579.262252835 797.5 596.875 c 0
 797.5 614.487747165 783.237747165 628.75 765.625 628.75 c 2
 109.375 628.75 l 2
359.375 316.25 m 2
 341.762252835 316.25 327.5 301.987747165 327.5 284.375 c 0
 327.5 266.762252835 341.762252835 252.5 359.375 252.5 c 2
 890.625 252.5 l 2
 908.237747165 252.5 922.5 266.762252835 922.5 284.375 c 0
 922.5 301.987747165 908.237747165 316.25 890.625 316.25 c 2
 359.375 316.25 l 2
359.375 3.75 m 2
 341.762252835 3.75 327.5 -10.5122528343 327.5 -28.125 c 0
 327.5 -45.7377471657 341.762252835 -60 359.375 -60 c 2
 890.625 -60 l 2
 908.237747165 -60 922.5 -45.7377471657 922.5 -28.125 c 0
 922.5 -10.5122528343 908.237747165 3.75 890.625 3.75 c 2
 359.375 3.75 l 2
141.25 315.625 m 2
 141.25 333.237747165 126.987747165 347.5 109.375 347.5 c 0
 91.7622528343 347.5 77.5 333.237747165 77.5 315.625 c 2
 77.5 -59.375 l 2
 77.5 -76.9877471658 91.7622528342 -91.25 109.375 -91.25 c 0
 126.987747165 -91.25 141.25 -76.9877471657 141.25 -59.375 c 2
 141.25 315.625 l 2
EndSplineSet
EndChar

StartChar: uniF064
Encoding: 61540 61540 72
Width: 1000
Flags: H
LayerCount: 2
Fore
SplineSet
484.375 -60 m 2
 890.625 -60 l 2
 942.756459802 -60 985 -17.7564598021 985 34.375 c 2
 985 565.625 l 2
 985 617.756459802 942.756459802 660 890.625 660 c 2
 484.375 660 l 2
 432.243540198 660 390 617.756459802 390 565.625 c 2
 390 34.375 l 2
 390 -17.7564598021 432.243540198 -60 484.375 -60 c 2
453.75 34.375 m 2
 453.75 565.625 l 2
 453.75 582.529075525 467.470924475 596.25 484.375 596.25 c 2
 890.625 596.25 l 2
 907.531364274 596.25 921.25 582.527413073 921.25 565.625 c 2
 921.25 34.375 l 2
 921.25 17.4702981213 907.529701879 3.75 890.625 3.75 c 2
 484.375 3.75 l 2
 467.472586927 3.75 453.75 17.4686357255 453.75 34.375 c 2
297.507751123 557.31416543 m 0
 297.507751123 576.041270395 281.636257 589.153258935 265.581342382 589.153258935 c 0
 260.204615342 589.153258935 254.712521163 587.781636959 249.648083608 584.852045112 c 0
 221.56301523 568.605299161 202.5 538.120074742 202.5 503.131835938 c 2
 202.5 96.880859375 l 2
 202.5 61.8922614964 221.563679785 31.4055965477 249.647111546 15.163165579 c 0
 254.711951264 12.2333410959 260.20555809 10.8610357844 265.582797351 10.8610357844 c 0
 281.641195915 10.8610357844 297.507751123 23.952804556 297.507751123 42.6992720859 c 0
 297.507751123 53.7481567836 291.779281333 64.4379115827 281.602340207 70.3244562098 c 0
 272.295742733 75.7134843318 266.25 85.7075606804 266.25 96.880859375 c 2
 266.25 503.131835938 l 2
 266.25 514.301665772 272.284250954 524.299228831 281.602111457 529.689083349 c 0
 291.779530285 535.576347807 297.507751123 546.266677816 297.507751123 557.31416543 c 0
78.0827973509 73.3610357844 m 0
 94.1411959149 73.3610357844 110.007751123 86.452804556 110.007751123 105.199272086 c 0
 110.007751123 116.248156783 104.279281333 126.937911582 94.1023402071 132.82445621 c 0
 84.7957427311 138.213484332 78.75 148.207560681 78.75 159.380859375 c 2
 78.75 440.631835938 l 2
 78.75 451.801665771 84.7842509529 461.799228831 94.1021114575 467.189083349 c 0
 104.279530285 473.076347807 110.007751123 483.766677816 110.007751123 494.81416543 c 0
 110.007751123 513.541270395 94.136257 526.653258935 78.0813423824 526.653258935 c 0
 72.7046153425 526.653258935 67.2125211638 525.281636959 62.148083609 522.352045113 c 0
 34.0630152307 506.105299161 15 475.620074742 15 440.631835938 c 2
 15 159.380859375 l 2
 15 124.392261496 34.0636797853 93.9055965478 62.1471115463 77.6631655791 c 0
 67.2119512639 74.7333410961 72.7055580906 73.3610357844 78.0827973509 73.3610357844 c 0
EndSplineSet
EndChar

StartChar: uniF068
Encoding: 61544 61544 73
Width: 1000
Flags: H
LayerCount: 2
Fore
SplineSet
296.875 785 m 0
 279.261975768 785 265 770.738667791 265 753.125 c 2
 265 660 l 1
 171.875 660 l 2
 119.743540198 660 77.5 617.756459802 77.5 565.625 c 2
 77.5 -90.625 l 2
 77.5 -142.756459802 119.743540198 -185 171.875 -185 c 2
 828.125 -185 l 2
 880.256459802 -185 922.5 -142.756459802 922.5 -90.625 c 2
 922.5 565.625 l 2
 922.5 617.756459802 880.256459802 660 828.125 660 c 2
 735 660 l 1
 735 753.125 l 2
 735 770.738667791 720.738024232 785 703.125 785 c 0
 685.511975768 785 671.25 770.738667791 671.25 753.125 c 2
 671.25 660 l 1
 328.75 660 l 1
 328.75 753.125 l 2
 328.75 770.738667791 314.488024232 785 296.875 785 c 0
171.875 596.25 m 2
 828.125 596.25 l 2
 845.031364274 596.25 858.75 582.527413073 858.75 565.625 c 2
 858.75 410 l 1
 141.25 410 l 1
 141.25 565.625 l 2
 141.25 582.529075525 154.970924475 596.25 171.875 596.25 c 2
141.25 346.25 m 1
 858.75 346.25 l 1
 858.75 -90.625 l 2
 858.75 -107.529701879 845.029701879 -121.25 828.125 -121.25 c 2
 171.875 -121.25 l 2
 154.972586927 -121.25 141.25 -107.531364274 141.25 -90.625 c 2
 141.25 346.25 l 1
EndSplineSet
EndChar

StartChar: uniF06A
Encoding: 61546 61546 74
Width: 1000
Flags: H
LayerCount: 2
Fore
SplineSet
265 550 m 2
 265 410 l 1
 254.791666667 410 244.583333333 410 234.375 410 c 0
 209.369742985 410 185.307463363 400.028107113 167.639678125 382.360321875 c 0
 149.971892887 364.692536637 140 340.630257015 140 315.625 c 2
 140 -28.125 l 2
 140 -80.2221771959 182.277822804 -122.5 234.375 -122.5 c 2
 765.625 -122.5 l 2
 790.627260162 -122.5 814.689069764 -112.526826534 832.358623123 -94.8581143828 c 0
 850.027335275 -77.1885610245 860 -53.1272601621 860 -28.125 c 2
 860 315.625 l 2
 860 340.629536861 850.026586972 364.692103653 832.35836875 382.360321875 c 0
 814.689248391 400.028601047 790.627980332 410 765.625 410 c 0
 755.416666667 410 745.208333333 410 735 410 c 1
 735 550 l 2
 735 612.302344722 710.213692717 672.131832563 666.171091323 716.172599307 c 0
 622.133366304 760.212158964 562.302276472 785 500 785 c 0
 437.697803623 785 377.868004634 760.212731056 333.827066836 716.172710587 c 0
 289.787843527 672.131652616 265 612.302041905 265 550 c 2
671.25 410 m 1
 328.75 410 l 1
 328.75 550 l 2
 328.75 595.442884541 346.763072342 638.943890563 378.9099485 671.089695371 c 0
 411.055753307 703.236571528 454.557115459 721.25 500 721.25 c 0
 545.442884541 721.25 588.944068629 703.236749595 621.089873437 671.089873437 c 0
 653.235485982 638.944260893 671.25 595.443131699 671.25 550 c 2
 671.25 410 l 1
203.75 315.625 m 2
 203.75 332.307097106 217.688049853 346.25 234.375 346.25 c 2
 765.625 346.25 l 2
 782.310425849 346.25 796.25 332.305683346 796.25 315.625 c 2
 796.25 -28.125 l 2
 796.25 -44.8048624423 782.308233657 -58.75 765.625 -58.75 c 2
 234.375 -58.75 l 2
 217.698467992 -58.75 203.75 -44.814500755 203.75 -28.125 c 2
 203.75 315.625 l 2
EndSplineSet
EndChar

StartChar: uniF06B
Encoding: 61547 61547 75
Width: 1000
Flags: H
LayerCount: 2
Fore
SplineSet
828.125 658.75 m 2
 845.031364274 658.75 858.75 645.027413073 858.75 628.125 c 2
 858.75 -28.125 l 2
 858.75 -45.0297018787 845.029701879 -58.75 828.125 -58.75 c 2
 171.875 -58.75 l 2
 154.972586927 -58.75 141.25 -45.0313642745 141.25 -28.125 c 2
 141.25 628.125 l 2
 141.25 645.029075525 154.970924475 658.75 171.875 658.75 c 2
 828.125 658.75 l 2
171.875 722.5 m 2
 119.743540198 722.5 77.5 680.256459802 77.5 628.125 c 2
 77.5 -28.125 l 2
 77.5 -80.2564598021 119.743540198 -122.5 171.875 -122.5 c 2
 828.125 -122.5 l 2
 880.256459802 -122.5 922.5 -80.2564598021 922.5 -28.125 c 2
 922.5 628.125 l 2
 922.5 680.256459802 880.256459802 722.5 828.125 722.5 c 2
 171.875 722.5 l 2
500 535 m 0
 482.387252835 535 468.125 520.737747165 468.125 503.125 c 2
 468.125 331.875 l 1
 296.875 331.875 l 2
 279.262252835 331.875 265 317.612747165 265 300 c 0
 265 282.387252835 279.262252835 268.125 296.875 268.125 c 2
 468.125 268.125 l 1
 468.125 96.875 l 2
 468.125 79.2622528343 482.387252835 65 500 65 c 0
 517.612747165 65 531.875 79.2622528343 531.875 96.875 c 2
 531.875 268.125 l 1
 703.125 268.125 l 2
 720.737747165 268.125 735 282.387252835 735 300 c 0
 735 317.612747165 720.737747165 331.875 703.125 331.875 c 2
 531.875 331.875 l 1
 531.875 503.125 l 2
 531.875 520.737747165 517.612747165 535 500 535 c 0
EndSplineSet
EndChar

StartChar: uniF06C
Encoding: 61548 61548 76
Width: 1000
Flags: H
LayerCount: 2
Fore
SplineSet
171.875 658.75 m 2
 828.125 658.75 l 2
 845.031364274 658.75 858.75 645.027413073 858.75 628.125 c 2
 858.75 -28.125 l 2
 858.75 -45.0297018787 845.029701879 -58.75 828.125 -58.75 c 2
 171.875 -58.75 l 2
 154.972586927 -58.75 141.25 -45.0313642745 141.25 -28.125 c 2
 141.25 628.125 l 2
 141.25 645.029075525 154.970924475 658.75 171.875 658.75 c 2
828.125 722.5 m 2
 171.875 722.5 l 2
 119.743540198 722.5 77.5 680.256459802 77.5 628.125 c 2
 77.5 -28.125 l 2
 77.5 -80.2564598021 119.743540198 -122.5 171.875 -122.5 c 2
 828.125 -122.5 l 2
 880.256459802 -122.5 922.5 -80.2564598021 922.5 -28.125 c 2
 922.5 628.125 l 2
 922.5 680.256459802 880.256459802 722.5 828.125 722.5 c 2
703.125 268.125 m 2
 720.737747165 268.125 735 282.387252835 735 300 c 0
 735 317.612747165 720.737747165 331.875 703.125 331.875 c 2
 296.875 331.875 l 2
 279.262252835 331.875 265 317.612747165 265 300 c 0
 265 282.387252835 279.262252835 268.125 296.875 268.125 c 2
 703.125 268.125 l 2
EndSplineSet
EndChar

StartChar: uniF06D
Encoding: 61549 61549 77
Width: 1000
Flags: H
LayerCount: 2
Fore
SplineSet
171.875 658.75 m 2
 828.125 658.75 l 2
 845.031364274 658.75 858.75 645.027413073 858.75 628.125 c 2
 858.75 -28.125 l 2
 858.75 -45.0297018787 845.029701879 -58.75 828.125 -58.75 c 2
 171.875 -58.75 l 2
 154.972586927 -58.75 141.25 -45.0313642745 141.25 -28.125 c 2
 141.25 628.125 l 2
 141.25 645.029075525 154.970924475 658.75 171.875 658.75 c 2
828.125 722.5 m 2
 171.875 722.5 l 2
 119.743540198 722.5 77.5 680.256459802 77.5 628.125 c 2
 77.5 -28.125 l 2
 77.5 -80.2564598021 119.743540198 -122.5 171.875 -122.5 c 2
 828.125 -122.5 l 2
 880.256459802 -122.5 922.5 -80.2564598021 922.5 -28.125 c 2
 922.5 628.125 l 2
 922.5 680.256459802 880.256459802 722.5 828.125 722.5 c 2
500 190 m 0
 560.760318667 190 610 239.239681333 610 300 c 0
 610 360.760318667 560.760318667 410 500 410 c 0
 439.239681333 410 390 360.760318667 390 300 c 0
 390 239.239681333 439.239681333 190 500 190 c 0
EndSplineSet
EndChar

StartChar: uniF06E
Encoding: 61550 61550 78
Width: 1000
Flags: H
LayerCount: 2
Fore
SplineSet
171.875 658.75 m 2
 828.125 658.75 l 2
 845.031364274 658.75 858.75 645.027413073 858.75 628.125 c 2
 858.75 -28.125 l 2
 858.75 -45.0297018787 845.029701879 -58.75 828.125 -58.75 c 2
 171.875 -58.75 l 2
 154.972586927 -58.75 141.25 -45.0313642745 141.25 -28.125 c 2
 141.25 628.125 l 2
 141.25 645.029075525 154.970924475 658.75 171.875 658.75 c 2
828.125 722.5 m 2
 171.875 722.5 l 2
 119.743540198 722.5 77.5 680.256459802 77.5 628.125 c 2
 77.5 -28.125 l 2
 77.5 -80.2564598021 119.743540198 -122.5 171.875 -122.5 c 2
 828.125 -122.5 l 2
 880.256459802 -122.5 922.5 -80.2564598021 922.5 -28.125 c 2
 922.5 628.125 l 2
 922.5 680.256459802 880.256459802 722.5 828.125 722.5 c 2
735 300 m 0
 735 308.430121853 731.613576297 316.594084699 725.666406915 322.538612362 c 2
 522.540934563 525.666037312 l 2
 516.325185778 531.881786097 508.169887176 534.999755859 500 534.999755859 c 0
 491.830112824 534.999755859 483.674762848 531.881734722 477.459014063 525.665985937 c 0
 471.243265278 519.450237152 468.125244141 511.294887176 468.125244141 503.125 c 0
 468.125244141 494.955112824 471.243265278 486.799762848 477.459014063 480.584014063 c 2
 626.168028125 331.875 l 1
 296.875 331.875 l 2
 279.262252835 331.875 265 317.612747165 265 300 c 0
 265 282.387252835 279.262252835 268.125 296.875 268.125 c 2
 626.167621901 268.125 l 1
 477.459098831 119.414117581 l 2
 471.242967607 113.197986357 468.125244141 105.043497232 468.125244141 96.8750000001 c 0
 468.125244141 88.7065027682 471.242882839 80.5520984112 477.459014063 74.3359671877 c 0
 483.674832825 68.1198168262 491.83033938 65.0014648438 500 65.0014648438 c 0
 508.16966062 65.0014648438 516.324882154 68.119531798 522.540700917 74.3356821596 c 2
 725.664032813 277.459014063 l 2
 731.611202195 283.403541726 735 291.569878147 735 300 c 0
EndSplineSet
EndChar

StartChar: uniF070
Encoding: 61552 61552 79
Width: 1000
Flags: H
LayerCount: 2
Fore
SplineSet
15 315.625 m 0
 15 298.011975768 29.2613322087 283.75 46.875 283.75 c 2
 953.125 283.75 l 2
 970.737747165 283.75 985 298.012252835 985 315.625 c 0
 985 333.237747165 970.737747165 347.5 953.125 347.5 c 2
 46.875 347.5 l 2
 29.2613322087 347.5 15 333.238024232 15 315.625 c 0
EndSplineSet
EndChar

StartChar: uniF075
Encoding: 61557 61557 80
Width: 1000
Flags: H
LayerCount: 2
Fore
SplineSet
516.25 753.125 m 2
 516.25 770.490103295 501.746589123 785 484.375 785 c 0
 467.008341922 785 452.5 770.495032644 452.5 753.125 c 2
 452.5 597.5 l 1
 171.875 597.5 l 2
 119.777822804 597.5 77.5 555.222177196 77.5 503.125 c 2
 77.5 284.375 l 2
 77.5 259.369742985 87.4718928867 235.307463363 105.139678125 217.639678125 c 0
 122.807463363 199.971892887 146.869742985 190 171.875 190 c 2
 452.5 190 l 1
 452.5 -153.125 l 2
 452.5 -170.493272894 467.006073788 -185 484.375 -185 c 0
 501.739957241 -185 516.25 -170.497255678 516.25 -153.125 c 2
 516.25 190 l 1
 758.375 190 l 2
 780.65884575 190.003365759 802.306014803 197.936708069 819.320682201 212.330756501 c 2
 948.699501196 321.708986205 l 2
 967.037941876 337.221928945 982.106445312 362.249806532 982.106445312 393.75 c 0
 982.106445312 425.221403788 967.014799465 450.297646907 948.696044857 465.793936709 c 2
 819.324501196 575.166013795 l 2
 802.292778487 589.556741528 780.661985983 597.5 758.375 597.5 c 2
 516.25 597.5 l 1
 516.25 753.125 l 2
141.25 503.125 m 2
 141.25 519.807097106 155.188049853 533.75 171.875 533.75 c 2
 758.463916531 533.75 l 2
 765.732005897 533.70772132 772.594321828 531.176936562 778.112998804 526.458986205 c 2
 907.560824677 417.022021952 l 2
 913.457675824 411.97238089 918.28125 403.952267235 918.28125 393.75 c 0
 918.28125 383.506305708 913.406487517 375.48418372 907.487998804 370.416013795 c 2
 778.17640314 261.094916822 l 2
 772.657726165 256.376966465 765.643212333 253.75 758.375 253.75 c 2
 171.875 253.75 l 2
 154.972177196 253.75 141.25 267.472177196 141.25 284.375 c 2
 141.25 503.125 l 2
EndSplineSet
EndChar

StartChar: uniF076
Encoding: 61558 61558 81
Width: 1000
Flags: H
LayerCount: 2
Fore
SplineSet
141.25 690.625 m 2
 141.25 707.529075525 154.970924475 721.25 171.875 721.25 c 2
 703.125 721.25 l 2
 720.031364274 721.25 733.75 707.527413073 733.75 690.625 c 2
 733.75 207.096679688 l 2
 733.75 189.482117217 748.013236801 175.21875 765.625 175.21875 c 0
 783.236763199 175.21875 797.5 189.482117217 797.5 207.096679688 c 2
 797.5 690.625 l 2
 797.5 742.756459802 755.256459802 785 703.125 785 c 2
 171.875 785 l 2
 119.743540198 785 77.5 742.756459802 77.5 690.625 c 2
 77.5 -28.125 l 2
 77.5 -80.2564598021 119.743540198 -122.5 171.875 -122.5 c 2
 370.051757812 -122.5 l 2
 387.665425604 -122.5 401.926757812 -108.238024232 401.926757812 -90.625 c 0
 401.926757812 -73.0119757671 387.665425604 -58.75 370.051757812 -58.75 c 2
 171.875 -58.75 l 2
 154.972586927 -58.75 141.25 -45.0313642745 141.25 -28.125 c 2
 141.25 690.625 l 2
296.875 535 m 2
 279.262252835 535 265 520.737747165 265 503.125 c 0
 265 485.512252835 279.262252835 471.25 296.875 471.25 c 2
 578.125 471.25 l 2
 595.737747165 471.25 610 485.512252835 610 503.125 c 0
 610 520.737747165 595.737747165 535 578.125 535 c 2
 296.875 535 l 2
265 315.625 m 0
 265 298.012252835 279.262252835 283.75 296.875 283.75 c 2
 421.875 283.75 l 2
 439.487747165 283.75 453.75 298.012252835 453.75 315.625 c 0
 453.75 333.237747165 439.487747165 347.5 421.875 347.5 c 2
 296.875 347.5 l 2
 279.262252835 347.5 265 333.237747165 265 315.625 c 0
984.999320642 128.131696762 m 0
 984.999320642 136.17277705 981.978747335 144.206841735 975.932620711 150.396923755 c 0
 969.697762065 156.781585981 961.42074079 160.000030052 953.120251797 160.000030052 c 0
 945.0788982 160.000030052 937.04361385 156.978865864 930.852784484 150.932335742 c 2
 668.624532613 -105.146434933 l 1
 569.455510828 -5.6225283015 l 2
 563.237110946 0.617472477338 555.064858434 3.74909569485 546.875193625 3.74909569485 c 0
 538.723680229 3.74909569485 530.584989117 0.645462333513 524.372348742 -5.54368792213 c 0
 518.131361895 -11.7630716091 515.000170205 -19.9355646192 515.000170205 -28.1256352734 c 0
 515.000170205 -36.2770707536 518.103784452 -44.4149314372 524.294215807 -50.6271973625 c 2
 645.735851892 -172.502428013 l 2
 651.950272153 -178.738255395 660.126673937 -181.874750537 668.320306066 -181.874750537 c 0
 676.365433511 -181.874750537 684.403955932 -178.849376811 690.590911869 -172.807006629 c 2
 975.398055072 105.318484181 l 2
 981.782311445 111.553932806 984.999320642 119.830516716 984.999320642 128.131696762 c 0
EndSplineSet
EndChar

StartChar: uniF077
Encoding: 61559 61559 82
Width: 1000
Flags: H
LayerCount: 2
Fore
SplineSet
953.130697615 33.7476794803 m 0
 972.026440947 33.7476794803 985 49.2520881143 985 65.625 c 2
 985 712.394260265 l 1
 925.181503901 740.830658134 l 1
 920.377268314 737.458738685 913.351141632 732.755342352 904.102805773 727.143951269 c 0
 883.762489146 714.803553816 852.612699721 698.02972237 810.418972971 681.150837627 c 0
 726.18062115 647.455496898 597.411986938 613.15859789 422.134852993 613.124023736 c 2
 417.768624463 613.124023736 l 1
 414.098137061 615.457419217 l 2
 400.865186481 623.872951183 385.156317923 628.75 368.303710938 628.75 c 2
 250 628.75 l 2
 120.203507059 628.75 15 523.546492941 15 393.75 c 0
 15 295.091618984 75.7805067229 210.651479209 161.931785301 175.80544184 c 2
 171.860976292 171.789332432 l 1
 171.642416734 167.656128292 171.25 163.581802554 171.25 159.375 c 0
 171.25 16.564896958 201.176077168 -82.2589941461 220.977465745 -131.99754191 c 0
 234.782949149 -166.677422964 268.32271165 -185 301.89453125 -185 c 2
 376.67578125 -185 l 2
 413.489674413 -185 443.198205244 -164.099746573 460.906206365 -138.009923472 c 0
 473.677011668 -119.195632947 481.644659888 -95.5436458258 481.644659888 -71.4307055693 c 0
 481.644659888 -62.4050066569 480.541930678 -53.2657792264 478.178914776 -44.2015201234 c 0
 465.389518141 4.8519882634 453.82640735 72.848044973 453.750982489 158.517784855 c 2
 453.737277455 174.084359863 l 1
 469.301854404 173.521301282 l 2
 620.71407688 168.043866757 733.925362421 136.942102895 810.418485832 106.345450985 c 0
 852.612563035 89.4704090646 883.761775613 72.6990269983 904.105131629 60.3507309882 c 0
 918.277495492 51.7573294079 924.005335064 47.8398686478 933.150035513 40.7978542022 c 0
 938.44216671 36.0018603052 946.313885011 33.7476794803 953.130697615 33.7476794803 c 0
234.877520899 158.75 m 1
 368.303710938 158.75 l 2
 375.742842322 158.75 382.715885104 159.512380395 389.877010281 159.987511425 c 1
 390.113521252 144.203403032 l 2
 391.384236951 59.3992425863 403.16271881 -9.14346344612 416.493886824 -60.2728976076 c 0
 417.44215556 -63.9101498335 417.873734311 -67.6403867763 417.873734311 -71.429871347 c 0
 417.873734311 -81.752465523 414.729705228 -92.5273679669 408.17847487 -102.176549729 c 0
 399.459654398 -115.024576215 387.60140895 -121.25 376.67578125 -121.25 c 2
 301.89453125 -121.25 l 2
 291.272442905 -121.25 283.190718581 -115.943144921 280.19443498 -108.401936771 c 0
 263.69855126 -66.9669560304 237.227697217 18.4110589873 235.132998546 143.494352114 c 2
 234.877520899 158.75 l 1
453.75 237.837616483 m 1
 453.75 549.660343375 l 1
 468.236603526 550.148587414 l 2
 628.996696413 555.56670747 750.476772207 588.51723974 834.112308255 621.97222174 c 0
 869.404169205 636.090039719 892.499579203 648.04700089 921.25 662.81681314 c 1
 921.25 124.69311731 l 1
 892.487747364 139.45850084 869.416754203 151.405657711 834.112561578 165.525723801 c 0
 750.476941704 198.980739332 628.996676775 231.932305691 468.236694615 237.34945639 c 2
 453.75 237.837616483 l 1
914.668899785 770.325541108 m 1
 908.53125 758.225585938 l 1
 932.66504796 746.330629558 l 1
 914.668899785 770.325541108 l 1
78.75 393.75 m 0
 78.75 488.318782895 155.431217105 565 250 565 c 2
 368.303710938 565 l 2
 380.276779147 565 390 555.276779147 390 543.303710938 c 2
 390 244.196289062 l 2
 390 232.223220853 380.276779147 222.5 368.303710938 222.5 c 2
 250 222.5 l 2
 155.431217105 222.5 78.75 299.181217105 78.75 393.75 c 0
EndSplineSet
EndChar

StartChar: uniF078
Encoding: 61560 61560 83
Width: 1000
Flags: H
LayerCount: 2
Fore
SplineSet
390.000244141 565.625 m 0
 390.000244141 557.455112824 393.118265278 549.299762848 399.334014063 543.084014063 c 2
 642.417983579 300.000044545 l 1
 399.33405895 56.9140776998 l 2
 393.117927726 50.6979464762 390.000244141 42.5434972318 390.000244141 34.375 c 0
 390.000244141 26.2065027682 393.117882839 18.0520984112 399.334014063 11.8359671877 c 0
 405.549832825 5.61981682616 413.70533938 2.50146484375 421.875 2.50146484375 c 0
 430.04466062 2.50146484375 438.199882154 5.61953179804 444.415700917 11.8356821596 c 2
 710.039032813 277.459014063 l 2
 716.255183174 283.674832826 719.373535156 291.83033938 719.373535156 300 c 0
 719.373535156 308.16966062 716.255468202 316.324882154 710.039317841 322.540700917 c 2
 444.415946651 588.166025223 l 2
 438.200197866 594.381774008 430.044887176 597.499755859 421.875 597.499755859 c 0
 413.705112824 597.499755859 405.549762848 594.381734722 399.334014063 588.165985937 c 0
 393.118265278 581.950237152 390.000244141 573.794887176 390.000244141 565.625 c 0
EndSplineSet
EndChar

StartChar: uniF07B
Encoding: 61563 61563 84
Width: 1000
Flags: H
LayerCount: 2
Fore
SplineSet
296.875 658.75 m 2
 703.125 658.75 l 2
 720.031364274 658.75 733.75 645.027413073 733.75 628.125 c 2
 733.749999994 -23.0813647267 l 1
 520.271756254 152.723793553 l 2
 514.394256378 157.565004379 507.176301613 159.999267578 500 159.999267578 c 0
 492.823698387 159.999267578 485.604646029 157.564100394 479.727146153 152.722889568 c 2
 266.25 -23.08136472 l 1
 266.25 628.125 l 2
 266.25 645.029075525 279.970924475 658.75 296.875 658.75 c 2
765.637268187 -122.499209162 m 0
 784.538239232 -122.499209162 797.5 -106.991183718 797.5 -90.625 c 2
 797.5 628.125 l 2
 797.5 680.256459802 755.256459802 722.5 703.125 722.5 c 2
 296.875 722.5 l 2
 244.743540198 722.5 202.5 680.256459802 202.5 628.125 c 2
 202.5 -90.625 l 2
 202.5 -106.991155524 215.450094094 -122.499209162 234.362635134 -122.499209162 c 0
 241.600020776 -122.499209162 248.84567126 -120.001252797 254.647725143 -115.22299556 c 2
 500.000019724 86.8289665381 l 1
 745.351126866 -115.222854383 l 2
 751.157115233 -120.003018282 758.400975867 -122.499209162 765.637268187 -122.499209162 c 0
EndSplineSet
EndChar

